<?xml version="1.0" standalone="no"?>
<!DOCTYPE svg PUBLIC "-//W3C//DTD SVG 1.1//EN" "http://www.w3.org/Graphics/SVG/1.1/DTD/svg11.dtd" >
<svg xmlns="http://www.w3.org/2000/svg">
<metadata></metadata>
<defs>
<font id="pt_serif_captionitalic" horiz-adv-x="1228" >
<font-face units-per-em="2048" ascent="1593" descent="-455" />
<missing-glyph horiz-adv-x="561" />
<glyph horiz-adv-x="2048" />
<glyph horiz-adv-x="2048" />
<glyph unicode="&#xd;" horiz-adv-x="561" />
<glyph unicode=" "  horiz-adv-x="561" />
<glyph unicode="&#x09;" horiz-adv-x="561" />
<glyph unicode="&#xa0;" horiz-adv-x="561" />
<glyph unicode="!" horiz-adv-x="733" d="M164 119q0 63 43 100t115 37t116.5 -37t44.5 -100q0 -61 -45 -98t-116 -37q-72 0 -115 37t-43 98zM356 446v363l133 625h216l-134 -625l-153 -363h-62z" />
<glyph unicode="&#x22;" horiz-adv-x="804" d="M322 1030l28 404h201l-139 -404h-90zM615 1030l28 404h201l-139 -404h-90z" />
<glyph unicode="#" d="M74 477l35 96h174l79 306h-174l35 96h168l92 340h121l-92 -340h328l92 340h121l-92 -340h184l-41 -96h-170l-82 -306h178l-43 -96h-160l-94 -358h-121l95 358h-328l-94 -358h-121l94 358h-184zM406 573h325l80 306h-326z" />
<glyph unicode="$" d="M74 100l61 285h148l-43 -203q20 -29 80.5 -54.5t148.5 -35.5l121 572q-80 49 -142.5 94t-105.5 94t-64.5 105.5t-21.5 127.5q0 76 29.5 142.5t91 116t157 79t224.5 33.5l22 100h121l-22 -102q104 -6 189 -26.5t134 -43.5l-57 -268h-148l39 189q-25 16 -73 24t-107 12 l-113 -528q100 -66 168 -120t108 -106t56.5 -104.5t16.5 -111.5q0 -74 -30 -141.5t-93.5 -122t-162.5 -89t-241 -41.5l-24 -120h-121l24 120q-143 10 -238 50.5t-132 72.5zM469 1118q0 -59 35 -114.5t133 -122.5l96 460q-143 -10 -203.5 -67.5t-60.5 -155.5zM590 92 q82 8 137 30.5t89 55.5t48.5 75t14.5 87q0 53 -38 113.5t-145 138.5z" />
<glyph unicode="%" horiz-adv-x="1859" d="M106 1026q0 94 41 173t108.5 136.5t155.5 90t184 32.5q158 0 241 -73.5t83 -190.5q0 -106 -44 -187t-113.5 -135.5t-156.5 -82t-173 -27.5q-68 0 -127.5 19.5t-103.5 54t-69.5 83t-25.5 107.5zM209 66l1341 1402l84 -77l-1345 -1405zM301 1022q0 -35 8 -67.5t25.5 -58.5 t46 -41t69.5 -15q49 0 98.5 22.5t88 69.5t63.5 118.5t25 170.5q0 31 -7.5 59.5t-24 51t-46 35.5t-72.5 13q-49 0 -98 -27.5t-88 -74.5t-63.5 -113.5t-24.5 -142.5zM922 242q0 94 41 173t108.5 136.5t155.5 90t184 32.5q158 0 241 -73.5t83 -190.5q0 -106 -44 -187 t-113.5 -135.5t-156.5 -82t-173 -27.5q-68 0 -127.5 19.5t-103.5 54t-69.5 83t-25.5 107.5zM1117 238q0 -35 8 -67.5t25.5 -58.5t46 -41t69.5 -15q49 0 98.5 22.5t88 69.5t63.5 118.5t25 170.5q0 31 -7.5 59.5t-24 51t-46 35.5t-72.5 13q-49 0 -98 -27.5t-88 -74.5 t-63.5 -113.5t-24.5 -142.5z" />
<glyph unicode="&#x26;" horiz-adv-x="1980" d="M164 326q0 98 40 180t104.5 149.5t145.5 119.5t164 93q-45 66 -67.5 128.5t-22.5 140.5q0 55 22.5 111.5t72 103.5t125 76.5t180.5 29.5q154 0 227.5 -62.5t73.5 -150.5q0 -70 -33 -129t-86 -111.5t-119.5 -95.5t-134.5 -78q72 -104 171 -213.5t214 -220.5q23 23 61.5 76 t77.5 125t71 156t42 168h-135l22 102h471l-22 -102h-154q-45 -119 -97 -217.5t-102.5 -173t-92.5 -127t-66 -76.5q74 -63 145.5 -118.5t163.5 -107.5h125l-22 -102h-332q-41 29 -105.5 71t-134.5 113q-39 -37 -95 -73.5t-128 -67.5t-156 -49.5t-176 -18.5q-115 0 -197.5 29 t-136 76t-79 110.5t-25.5 135.5zM401 362q0 -72 24 -123t65.5 -85.5t98 -51t124.5 -16.5q100 0 202.5 41t176.5 125q-57 55 -122 130t-124.5 151.5t-108.5 148.5t-73 119q-82 -59 -133.5 -118.5t-80 -117t-39 -108.5t-10.5 -95zM705 1165q0 -74 32.5 -147.5t79.5 -132.5 q49 31 93 68.5t78 82.5t54.5 95.5t20.5 105.5q0 23 -6 47.5t-22.5 44t-44 31.5t-70.5 12q-57 0 -98.5 -19.5t-67 -50t-37.5 -67.5t-12 -70z" />
<glyph unicode="'" horiz-adv-x="512" d="M322 1030l28 404h201l-139 -404h-90z" />
<glyph unicode="(" horiz-adv-x="776" d="M109 311q0 168 55 326t155.5 301t241.5 269t316 231l43 -62q-117 -90 -225.5 -203.5t-193.5 -250t-135.5 -293t-50.5 -330.5q0 -133 18.5 -233.5t50.5 -179.5t74 -139t89 -109l-74 -68q-45 35 -107.5 95.5t-120 150.5t-97 213t-39.5 282z" />
<glyph unicode=")" horiz-adv-x="776" d="M-123 -369q117 88 225.5 203t193.5 251t135 293t50 331q0 131 -18.5 232t-50 180t-73.5 139.5t-89 109.5l74 68q45 -35 107.5 -95.5t119.5 -151.5t97 -213t40 -282q0 -170 -55 -326.5t-155.5 -300t-242 -269.5t-315.5 -230z" />
<glyph unicode="*" horiz-adv-x="1069" d="M123 1034l305 72l31 -59l-207 -234zM123 1194l131 225l205 -227l-33 -53zM399 1520h263l-97 -303h-71zM408 715l90 303h71l99 -303h-260zM604 1190l211 233l135 -223l-309 -61zM606 1044l33 58l313 -64l-135 -225z" />
<glyph unicode="+" d="M180 649v111h414v428h123v-428h413v-111h-413v-440h-123v440h-414z" />
<glyph unicode="," horiz-adv-x="632" d="M-14 -295q47 14 92 46t81 73t60.5 87t30.5 89h-144q-10 20 -13 40.5t-3 41.5q0 47 19.5 91t48.5 73h258q4 -23 6 -45.5t2 -44.5q0 -104 -37 -191.5t-95.5 -155t-133 -112.5t-148.5 -64z" />
<glyph unicode="-" horiz-adv-x="972" d="M170 512l27 131h647l-27 -131h-647z" />
<glyph unicode="." horiz-adv-x="622" d="M78 119q0 63 43 100t115 37t116.5 -37t44.5 -100q0 -61 -45 -98t-116 -37q-72 0 -115 37t-43 98z" />
<glyph unicode="/" horiz-adv-x="790" d="M-88 -225l838 1685l100 -39l-840 -1687z" />
<glyph unicode="0" d="M119 432q0 184 43 368.5t129 330t215 236.5t301 91q76 0 148.5 -21.5t130 -72.5t92 -137t34.5 -213q0 -188 -43 -373.5t-131 -333t-219 -240t-305 -92.5q-106 0 -181 36t-123 97.5t-69.5 144.5t-21.5 179zM348 410q0 -111 18.5 -178.5t46 -105.5t62.5 -51.5t70 -13.5 q70 0 129 42t107 114t86 169t63.5 208t39 229.5t13.5 233.5q0 166 -45 240.5t-139 74.5q-109 0 -193 -85t-141 -222t-87 -309t-30 -346z" />
<glyph unicode="1" d="M186 0l29 131h234l245 1155l-254 -129l-49 103l334 174h215l-276 -1303h229l-29 -131h-678z" />
<glyph unicode="2" d="M33 0l37 172q68 37 157.5 99.5t187 141.5t192.5 170t170 189t121 198.5t46 194.5q0 33 -9 66t-32.5 57.5t-65.5 39.5t-106 15q-68 0 -113 -10t-90 -26l-47 -215h-196l49 227q100 74 209.5 104.5t244.5 30.5q111 0 185 -23.5t118 -62.5t63.5 -90t19.5 -107 q0 -117 -71 -241.5t-188.5 -247.5t-269 -239.5t-313.5 -217.5l-115 -61v-8l135 8h475l50 45l38 192h132l-84 -401h-930z" />
<glyph unicode="3" d="M47 86l51 242h197l-39 -183q23 -20 80 -37.5t129 -17.5q113 0 190.5 39t125.5 97.5t69.5 129t21.5 136.5q0 106 -67.5 153t-208.5 47h-147l28 139l543 447v8l-123 -16h-399l-49 -41l-37 -164h-131l79 369h885l-35 -160l-444 -365l-133 -86v-4l78 15q76 0 146.5 -17.5 t124.5 -57.5t87 -103.5t33 -153.5q0 -102 -37 -196.5t-116 -167t-202.5 -115.5t-300.5 -43q-53 0 -112.5 8t-113.5 21.5t-100 32.5t-73 44z" />
<glyph unicode="4" d="M4 395l29 131l897 908h215l-193 -908h254l-28 -131h-254l-56 -264h176l-28 -131h-602l28 131h211l56 264h-705zM172 512l152 14h413l127 598l45 148h-6l-102 -148l-539 -544z" />
<glyph unicode="5" d="M96 68l47 219h197l-39 -178q20 -4 59 -11.5t80 -7.5q117 0 195 37t124 96.5t65.5 133t19.5 145.5q0 127 -92.5 173t-266.5 46h-145l152 713h583l49 41l15 61h131l-58 -266h-624l-82 -389h121q115 0 198.5 -26t139 -71t82 -106.5t26.5 -132.5q0 -121 -37 -224.5 t-115.5 -179t-203.5 -118.5t-299 -43q-94 0 -180 20t-142 68z" />
<glyph unicode="6" d="M121 399q0 203 83 380t225 316.5t333.5 230.5t408.5 122l7 -102q-129 -25 -252 -79.5t-225.5 -136t-181.5 -188t-122 -235.5q63 63 158.5 105t224.5 42q96 0 167 -27.5t116 -73.5t66.5 -107t21.5 -124q0 -98 -36 -195.5t-109.5 -176t-187 -127t-267.5 -48.5 q-129 0 -213 42t-132 105.5t-66.5 137.5t-18.5 139zM334 416q0 -66 11 -128.5t39 -110.5t77 -76.5t125 -28.5q74 0 136 30.5t106 89t69 141.5t25 187q0 43 -14.5 84t-42 73t-70.5 50t-101 18q-109 0 -194.5 -48t-132.5 -107q-4 -14 -10.5 -37t-11.5 -47.5t-8 -49t-3 -40.5z " />
<glyph unicode="7" d="M268 0l811 1184l92 98l-118 -10h-568l-49 -41l-35 -168h-131l78 371h963l-35 -162l-782 -1272h-226z" />
<glyph unicode="8" d="M94 301q0 80 31 145.5t87 120t135 96.5t173 72q-31 18 -66.5 47t-65.5 69t-50.5 93t-20.5 123q0 94 39 167t107.5 123t162 75.5t199.5 25.5q102 0 175 -24.5t120 -64.5t69.5 -91t22.5 -107q0 -61 -20.5 -120.5t-64.5 -112.5t-112.5 -97t-164.5 -75q72 -41 121 -79 t79.5 -80t44 -91t13.5 -110q0 -88 -42 -166t-118 -136.5t-181 -93.5t-230 -35q-119 0 -203 25t-137.5 69t-78 103t-24.5 129zM303 301q0 -100 63.5 -164.5t190.5 -64.5q88 0 151.5 29.5t104.5 73.5t60.5 95.5t19.5 96.5q0 55 -21.5 99t-60.5 82t-93 70.5t-120 67.5 q-94 -49 -152.5 -99t-90 -99.5t-42 -96.5t-10.5 -90zM532 1104q0 -53 21.5 -97t55.5 -81t77 -67t86 -52q55 35 99 79t73 91t44.5 95t15.5 91q0 199 -205 199q-113 0 -190 -65.5t-77 -192.5z" />
<glyph unicode="9" d="M168 88q129 25 251 79t225.5 136t181 188.5t120.5 235.5q-63 -63 -157.5 -105t-223.5 -42q-96 0 -166.5 29.5t-115.5 76.5t-66.5 109t-21.5 125q0 100 35.5 197t109.5 173t187.5 122t267.5 46q127 0 209.5 -40t132 -101.5t69 -136t19.5 -146.5q0 -203 -83 -380 t-225.5 -316t-334 -230.5t-408.5 -121.5zM424 920q0 -43 14.5 -85t42 -75t70.5 -52.5t100 -19.5q109 0 194 48t132 108q4 14 10 36.5t11.5 47t9.5 49t4 41.5q0 72 -11.5 134t-39 109.5t-76.5 74t-125 26.5q-74 0 -136.5 -31t-106.5 -87t-68.5 -138t-24.5 -186z" />
<glyph unicode=":" horiz-adv-x="733" d="M147 119q0 63 43 100t115 37t117 -37t45 -100q0 -61 -45 -98t-117 -37t-115 37t-43 98zM313 903q0 63 43 100t115 37t117 -36.5t45 -100.5q0 -61 -45 -98t-117 -37t-115 37t-43 98z" />
<glyph unicode=";" horiz-adv-x="743" d="M57 -295q47 14 92.5 46t81 73t60 87t31.5 89h-144q-10 20 -13 40.5t-3 41.5q0 47 19.5 91t47.5 73h258q4 -23 6.5 -45.5t2.5 -44.5q0 -104 -37 -191.5t-95.5 -155t-133 -112.5t-148.5 -64zM315 903q0 63 43 100t115 37t117 -36.5t45 -100.5q0 -61 -45 -98t-117 -37 t-115 37t-43 98z" />
<glyph unicode="&#x3c;" d="M143 664v63l887 481l62 -121l-719 -380l731 -381l-76 -115z" />
<glyph unicode="=" d="M137 483v111h1034v-111h-1034zM137 815v111h1034v-111h-1034z" />
<glyph unicode="&#x3e;" d="M207 1094l76 114l884 -452v-64l-886 -481l-68 115l725 395z" />
<glyph unicode="?" horiz-adv-x="1067" d="M225 119q0 63 43 100t115 37t117 -37t45 -100q0 -61 -45 -98t-117 -37t-115 37t-43 98zM281 1122l51 248q98 51 186 69.5t199 18.5q199 0 303 -84t104 -250q0 -98 -40 -188t-114.5 -163t-181 -124t-239.5 -71l-43 -205h-131l61 291q459 104 459 469q0 215 -201 215 q-72 0 -113.5 -12.5t-64.5 -22.5l-39 -191h-196z" />
<glyph unicode="@" horiz-adv-x="2275" d="M184 483q0 223 80 403.5t216 307.5t317.5 195.5t384.5 68.5q193 0 359.5 -54t288.5 -155.5t191.5 -248t69.5 -332.5q0 -121 -34 -241t-108.5 -214t-193.5 -152.5t-289 -58.5q-35 0 -68.5 3t-72.5 7v361h-12q-27 -66 -71 -129.5t-101.5 -115.5t-122 -84t-131.5 -32 q-137 0 -212 85t-75 227q0 129 48 253.5t131 223t192.5 158t232.5 59.5q82 0 133.5 -13.5t104.5 -35.5l180 35l-117 -584v-303h27q92 0 171 40t135 112.5t89 174t33 224.5q0 156 -62.5 281.5t-169 214.5t-251 136.5t-306.5 47.5q-195 0 -352 -65.5t-269 -181.5 t-173.5 -271.5t-61.5 -333.5q0 -182 72 -322.5t190.5 -236t271 -145.5t314.5 -50q66 0 151 14.5t154 42.5l37 -94q-82 -41 -178 -57.5t-213 -16.5q-104 0 -215 23.5t-214 71t-194.5 119t-159 165.5t-107.5 213t-40 260zM813 346q0 -98 34 -150.5t126 -52.5q43 0 93 37 t99 96.5t95.5 134t82.5 152.5l60 307q-35 20 -74 28.5t-94 8.5q-88 0 -165 -53t-134 -136t-90 -182.5t-33 -189.5z" />
<glyph unicode="A" horiz-adv-x="1525" d="M-102 0l24 115h156l807 1319h217l201 -1319h151l-24 -115h-580l24 115h183l-56 360h-540l-217 -360h176l-25 -115h-497zM532 590h459l-63 473q-2 6 -2 40t-2 75q-2 45 -2 102h-9l-110 -221z" />
<glyph unicode="B" horiz-adv-x="1384" d="M-43 0l23 115h186l256 1204h-186l24 115h264q43 0 84 2t86 4t96.5 4t112.5 2q92 0 175 -15.5t144.5 -50t97.5 -91t36 -138.5q0 -160 -104.5 -259t-274.5 -126v-8q51 -4 104.5 -21.5t98.5 -54.5t73.5 -93.5t28.5 -135.5q0 -115 -53 -201t-148.5 -145.5t-226.5 -89 t-285 -29.5q-80 0 -180 6t-192 6h-240zM397 121q29 -8 74 -13.5t139 -5.5q82 0 160 21.5t139.5 65.5t98 110t36.5 154q0 127 -96 175t-264 48h-170zM537 784h112q41 0 93.5 3.5t86.5 7.5q86 27 141.5 64.5t88.5 82.5t46 95t13 100q0 84 -58.5 139t-203.5 55q-70 0 -120 -3 t-85 -7z" />
<glyph unicode="C" horiz-adv-x="1409" d="M156 516q0 205 61.5 378t176 299t279.5 195.5t374 69.5q150 0 242.5 -21.5t164.5 -56.5l-76 -350h-131l47 215l-20 41q-23 10 -76 25.5t-160 15.5q-139 0 -253.5 -57.5t-197.5 -163t-129 -253.5t-46 -331q0 -88 23.5 -163.5t75.5 -132t135 -88.5t200 -32q74 0 134 11.5 t89 29.5l37 39l39 191h131l-68 -322q-35 -18 -83 -32.5t-101 -25.5t-108.5 -16.5t-106.5 -5.5q-201 0 -329 47.5t-199.5 124t-98 173t-26.5 196.5z" />
<glyph unicode="D" horiz-adv-x="1585" d="M-43 0l23 115h186l256 1204h-186l24 115h252q39 0 92 2t109.5 5t108.5 6t87 3q201 0 326 -46t194.5 -118t94 -160t24.5 -174q0 -215 -60.5 -394t-179 -307t-294.5 -198.5t-408 -70.5q-33 0 -81 3t-101 6t-106.5 6t-96.5 3h-264zM395 104q12 -2 41 -3t62.5 -2t64.5 -2 t43 -1q197 0 329 76t211 198t112.5 277.5t33.5 315.5q0 74 -17.5 141t-66.5 118.5t-134 82t-220 30.5q-57 0 -112.5 -2t-88.5 -8z" />
<glyph unicode="E" horiz-adv-x="1300" d="M-43 0l23 115h186l256 1204h-186l24 115h1090l-72 -336h-131l39 176l-33 45h-502l-112 -531h346l37 31l18 86h131l-74 -350h-131l19 86l-25 33h-346l-119 -559h537l49 41l43 200h131l-76 -356h-1122z" />
<glyph unicode="F" horiz-adv-x="1234" d="M-43 0l23 115h165l256 1204h-165l24 115h1088l-72 -336h-131l39 176l-33 45h-520l-119 -561h371l37 30l20 99h131l-6 -28t-14.5 -69.5t-18.5 -90t-19 -90.5t-15 -69l-7 -28h-131l23 98l-25 33h-371l-112 -528h219l-25 -115h-612z" />
<glyph unicode="G" horiz-adv-x="1564" d="M156 520q0 205 60 377t174 297t277.5 194.5t372.5 69.5q152 0 256.5 -21.5t176.5 -56.5l-3 -15q-4 -15 -10 -40t-13 -56.5t-13 -64.5q-16 -78 -37 -174h-131l47 215l-21 41q-16 10 -47 18.5t-65.5 13.5t-71.5 7t-66 2q-152 0 -269.5 -64.5t-197 -174t-121.5 -255 t-42 -307.5q0 -78 18.5 -153.5t66.5 -135t131 -95.5t212 -36q68 0 110.5 9.5t83.5 23.5l39 37l82 387h-217l25 115h567l-25 -115h-143l-98 -465q-100 -59 -229.5 -91t-246.5 -32q-190 0 -313 48.5t-193.5 125t-98 174t-27.5 197.5z" />
<glyph unicode="H" horiz-adv-x="1658" d="M-43 0l23 115h186l256 1204h-186l24 115h586l-25 -115h-170l-110 -526h716l111 526h-170l25 115h585l-24 -115h-187l-256 -1204h187l-25 -115h-583l22 115h170l121 563h-717l-121 -563h170l-24 -115h-584z" />
<glyph unicode="I" horiz-adv-x="796" d="M-2 0l25 115h186l256 1204h-186l24 115h602l-24 -115h-187l-256 -1204h187l-25 -115h-602z" />
<glyph unicode="J" horiz-adv-x="757" d="M-84 -231q37 16 75 41.5t71.5 69.5t63.5 111.5t52 168.5l248 1159h-170l25 115h585l-24 -115h-187l-241 -1139q-31 -145 -89.5 -239.5t-126 -149.5t-136 -81.5t-119.5 -37.5z" />
<glyph unicode="K" horiz-adv-x="1437" d="M-43 0l23 115h186l256 1204h-186l24 115h586l-25 -115h-170l-114 -537h125l550 537h-165l24 115h518l-24 -115h-162l-594 -541l420 -663h129l-25 -115h-307l-387 680h-123l-121 -565h170l-24 -115h-584z" />
<glyph unicode="L" horiz-adv-x="1226" d="M-43 0l23 115h186l256 1204h-186l24 115h637l-25 -115h-221l-256 -1204h545l51 45l60 282h147l-94 -442h-1147z" />
<glyph unicode="M" horiz-adv-x="1994" d="M-43 0l23 115h186l256 1204h-186l24 115h465l285 -904l688 904h446l-24 -115h-187l-256 -1204h187l-25 -115h-594l25 115h186l195 913q2 6 12 44t20 81l29 115h-18l-135 -219l-578 -742h-125l-252 742l-39 239h-20l-25 -123q-10 -47 -18 -88t-10 -49l-195 -913h174 l-25 -115h-489z" />
<glyph unicode="N" horiz-adv-x="1658" d="M-43 0l23 115h186l256 1204h-186l24 115h391l529 -971l69 -170h11l24 176l180 850h-178l25 115h497l-24 -115h-187l-286 -1344h-117l-619 1125l-49 157h-8l-10 -159l-209 -983h178l-24 -115h-496z" />
<glyph unicode="O" horiz-adv-x="1679" d="M156 580q0 166 52 324.5t159.5 281.5t271.5 197.5t385 74.5q137 0 252 -40t195.5 -115.5t125.5 -182t45 -237.5q0 -164 -45 -327t-145 -292t-258 -209t-381 -80q-121 0 -237.5 35t-211 109t-151.5 187.5t-57 273.5zM412 578q0 -131 35.5 -223.5t94 -151t134.5 -86 t153 -27.5q160 0 266.5 73t171 187.5t92 254.5t27.5 276q0 227 -108.5 344.5t-304.5 117.5q-145 0 -252 -67.5t-175.5 -176t-101 -245.5t-32.5 -276z" />
<glyph unicode="P" horiz-adv-x="1345" d="M-43 0l23 115h186l256 1204h-186l24 115h229q92 0 195.5 8t204.5 8q113 0 206 -20.5t158.5 -63.5t102.5 -109.5t37 -158.5q0 -135 -53.5 -237.5t-148.5 -172.5t-226 -104.5t-285 -34.5h-38t-54.5 1t-56 3t-42.5 4l-94 -442h205l-25 -115h-618zM514 674q10 -4 29.5 -5 t42 -3t44 -2h34.5q94 0 180 24.5t151.5 75.5t103.5 130t38 189q0 115 -78 183.5t-258 68.5q-55 0 -88 -4t-62 -8z" />
<glyph unicode="Q" horiz-adv-x="1679" d="M156 580q0 166 52 324.5t159.5 281.5t271.5 197.5t385 74.5q137 0 252 -40t195.5 -115.5t125.5 -182t45 -237.5q0 -164 -45 -327t-145 -292t-258 -209t-381 -80q-121 0 -237.5 35t-211 109t-151.5 187.5t-57 273.5zM369 -158l32 82q49 6 97 6q117 0 226.5 -25.5t219 -56 t223 -56t236.5 -25.5q66 0 136.5 10t143.5 33l17 -78q-104 -76 -216 -111t-222 -35q-94 0 -196.5 35t-213.5 79t-231.5 86t-251.5 56zM412 578q0 -131 35.5 -223.5t94 -151t134.5 -86t153 -27.5q160 0 266.5 73t171 187.5t92 254.5t27.5 276q0 227 -108.5 344.5 t-304.5 117.5q-145 0 -252 -67.5t-175.5 -176t-101 -245.5t-32.5 -276z" />
<glyph unicode="R" horiz-adv-x="1433" d="M-43 0l23 115h186l256 1204h-186l24 115h207q92 0 202.5 8t215.5 8q229 0 348 -87t119 -255q0 -102 -39 -183t-100.5 -139.5t-139.5 -94.5t-155 -48l296 -528h138l-25 -115h-317l-299 621h-209l-107 -506h176l-24 -115h-590zM524 725h162q84 0 159 22.5t130 69.5t88 119 t33 170q0 111 -65.5 170t-221.5 59q-53 0 -90 -4t-68 -8z" />
<glyph unicode="S" horiz-adv-x="1200" d="M51 84l78 373h131l-51 -244l27 -49q14 -12 42.5 -25.5t64.5 -25t76 -17.5t79 -6q178 0 275 69.5t97 202.5q0 80 -44 137.5t-109.5 104.5t-143 90t-143 95.5t-110 120t-44.5 161.5q0 186 141.5 286.5t413.5 100.5q141 0 233.5 -19.5t158.5 -49.5l-5 -15q-4 -16 -8 -40.5 t-11 -56.5t-13 -65q-16 -78 -37 -174h-131l45 219l-23 52q-35 16 -100.5 25t-136.5 9q-154 0 -225.5 -61t-71.5 -147q0 -72 44 -124.5t109.5 -98.5t143.5 -90t143.5 -98t109.5 -126t44 -170q0 -102 -41 -185t-120 -142.5t-195.5 -92.5t-268.5 -33q-72 0 -138.5 10.5 t-121.5 27t-97 35t-67 36.5z" />
<glyph unicode="T" horiz-adv-x="1409" d="M150 1010l90 424h1339l-90 -424h-148l58 264l-35 45h-365l-256 -1204h211l-24 -115h-651l24 115h211l256 1204h-369l-47 -45l-57 -264h-147z" />
<glyph unicode="U" horiz-adv-x="1540" d="M195 1319l24 115h582l-25 -115h-166l-159 -752q-8 -41 -13.5 -75.5t-5.5 -69.5q0 -147 82 -225t254 -78q360 0 444 385l177 815h-168l24 115h486l-25 -115h-186l-174 -819q-57 -270 -216 -394t-419 -124q-137 0 -233.5 31.5t-158 87t-89 132t-27.5 168.5q0 76 18 162 l160 756h-186z" />
<glyph unicode="V" horiz-adv-x="1579" d="M184 1319l25 115h618l-24 -115h-197l166 -957l19 -194h8l102 199l531 952h-187l25 115h518l-25 -115h-168l-755 -1319h-228l-252 1319h-176z" />
<glyph unicode="W" horiz-adv-x="2166" d="M184 1319l25 115h606l-24 -115h-195l33 -877q0 -6 -1 -49t-1 -92q-2 -57 -2 -131h8l139 276q2 4 23.5 48.5t56.5 115t79 158.5t89 180q106 215 242 486h153l82 -988v-51t2 -92q0 -57 2 -129h10l121 277l385 868h-178l25 115h512l-25 -115h-170l-622 -1319h-240l-80 1133 l-561 -1133h-240l-78 1319h-176z" />
<glyph unicode="X" horiz-adv-x="1527" d="M-88 0l25 115h169l580 606l-303 598h-182l24 115h606l-24 -115h-164l221 -457l402 457h-181l25 115h524l-24 -115h-168l-520 -551l331 -653h187l-25 -115h-592l25 115h149l-252 506l-446 -506h158l-25 -115h-520z" />
<glyph unicode="Y" horiz-adv-x="1488" d="M184 1319l25 115h612l-24 -115h-172l233 -606l483 606h-188l25 115h520l-25 -115h-174l-588 -711l-104 -493h170l-25 -115h-585l24 115h187l104 491l-311 713h-187z" />
<glyph unicode="Z" horiz-adv-x="1355" d="M-33 0l25 115l1167 1204h-672l-49 -45l-55 -256h-147l88 416h1136l-24 -115l-1168 -1204h748l51 45l53 256h148l-88 -416h-1213z" />
<glyph unicode="[" horiz-adv-x="688" d="M-25 -471l404 1905h440l-18 -86h-238l-366 -1733h237l-18 -86h-441z" />
<glyph unicode="\" horiz-adv-x="876" d="M-111 1411l119 59l932 -1689l-119 -55z" />
<glyph unicode="]" horiz-adv-x="688" d="M-123 -471l19 86h237l367 1733h-240l19 86h442l-404 -1905h-440z" />
<glyph unicode="^" d="M156 889l426 567h80l391 -567h-209l-258 407l-299 -407h-131z" />
<glyph unicode="_" horiz-adv-x="942" d="M0 -291h942v-110h-942v110z" />
<glyph unicode="`" horiz-adv-x="669" d="M211 1452v84h258l201 -276l-58 -48z" />
<glyph unicode="a" horiz-adv-x="1210" d="M94 299q0 152 43 295t125 255t202 179.5t275 67.5q57 0 109.5 -21.5t75.5 -48.5l32 49h158l-192 -964h168v-111h-363l43 240h-12q-20 -35 -57 -80t-89.5 -85t-118 -67.5t-141.5 -27.5q-117 0 -187.5 79.5t-70.5 239.5zM307 336q1 -225 144 -225q39 0 86 23.5t93 60t86 83 t66 91.5l109 557q-20 27 -60 43t-92 16q-104 0 -184 -58.5t-135 -152.5t-84 -209.5t-29 -228.5z" />
<glyph unicode="b" horiz-adv-x="1191" d="M78 74l282 1351h-151v111h375l-148 -653h13q68 94 164 153.5t231 59.5q119 0 191.5 -78t72.5 -246q0 -164 -48 -308.5t-137 -252t-213 -169.5t-278 -62q-113 0 -210 27.5t-144 66.5zM293 121q35 -20 84 -25.5t96 -5.5q94 0 172 54.5t133.5 144.5t86 205.5t30.5 238.5 q0 102 -37 163.5t-137 61.5q-45 0 -90 -16t-84 -43t-70 -60.5t-47 -66.5z" />
<glyph unicode="c" horiz-adv-x="966" d="M90 375q0 160 43 293t126 228t202 147.5t270 52.5q86 0 160 -21.5t104 -56.5l-61 -244h-143l43 184q-16 14 -54.5 20.5t-68.5 6.5q-92 0 -167 -40t-129.5 -111.5t-83 -173t-28.5 -226.5q0 -147 67.5 -232t178.5 -85q92 0 162.5 40t113.5 99l68 -53 q-57 -106 -163.5 -164.5t-262.5 -58.5q-88 0 -157.5 31.5t-119 85t-75 126t-25.5 152.5z" />
<glyph unicode="d" horiz-adv-x="1210" d="M100 301q0 152 45 295t130 254t208 178.5t277 67.5q31 0 52.5 -2t38.5 -6.5t33.5 -11.5t39.5 -15l75 364h-149v111h375l-297 -1434h166v-102h-363l27 213h-10q-23 -41 -58 -83t-82 -76t-106.5 -54t-128.5 -20q-59 0 -108.5 22.5t-86.5 63t-57.5 101t-20.5 134.5zM313 336 q0 -111 44 -168t114 -57q53 0 99 18t85 49t71 70t54 80l121 616q-33 23 -60.5 32t-78.5 9q-109 0 -192 -58.5t-140 -151.5t-87 -208.5t-30 -230.5z" />
<glyph unicode="e" horiz-adv-x="1026" d="M90 358q0 154 45 289t127 233.5t197.5 157t257.5 58.5q55 0 104 -13.5t86 -40t57.5 -65.5t20.5 -90q0 -147 -155.5 -237.5t-510.5 -114.5q-8 -37 -12 -70t-4 -66q0 -129 66.5 -205.5t195.5 -76.5q41 0 81 12t77 31.5t66.5 44t48.5 47.5l53 -55q-23 -41 -61.5 -80t-92 -70 t-119 -49t-141.5 -18q-176 0 -281.5 99t-105.5 279zM336 631q217 6 332.5 71.5t115.5 176.5q0 23 -6 44t-21.5 38.5t-41 27.5t-66.5 10q-96 0 -176 -85t-137 -283z" />
<glyph unicode="f" horiz-adv-x="669" d="M-123 -340q29 12 67 34.5t76.5 66.5t71.5 114t51 176l144 914h-162v110h190l17 94q18 102 60 172t105.5 113t143.5 62.5t172 19.5q39 0 90 -9t88 -26l-55 -233h-117l29 141q-23 8 -47.5 12t-46.5 4q-78 0 -136.5 -53t-87.5 -190l-22 -107h250v-110h-273l-143 -873 q-25 -152 -81 -248t-120.5 -152.5t-126 -81t-98.5 -34.5z" />
<glyph unicode="g" horiz-adv-x="1101" d="M-104 -176q0 68 45 113t102 63h113q-29 -25 -46.5 -60.5t-17.5 -68.5q0 -49 29 -85t74 -59.5t101 -34.5t114 -11q84 0 147.5 17t106.5 47t65.5 66.5t22.5 75.5q0 57 -52.5 95t-144.5 64t-218 42t-274 31l203 284q-29 14 -58.5 36t-52 54.5t-37 76.5t-14.5 102 q0 100 38 179t107.5 133t165 83t212.5 29h557v-111h-223q14 -25 22 -76t8 -100q0 -113 -42 -198t-111.5 -143t-160.5 -88t-190 -30q-43 0 -86 4t-57 13l-90 -127q111 -8 235.5 -20.5t230 -43.5t175.5 -86t70 -147q0 -90 -49.5 -160t-130 -117t-187 -71.5t-221.5 -24.5 q-98 0 -185.5 18.5t-154 52t-104 80t-37.5 103.5zM295 657q0 -55 17.5 -96t45 -68.5t63.5 -41t73 -13.5q70 0 128 24.5t99 68.5t63.5 105.5t22.5 137.5q0 78 -15.5 132.5t-43.5 86.5h-111q-152 0 -247 -81t-95 -255z" />
<glyph unicode="h" horiz-adv-x="1230" d="M76 0l303 1425h-148v111h371l-145 -633h12q78 80 174 136.5t231 56.5q209 0 209 -246q0 -59 -11 -126t-28 -128l-124 -485h174v-111h-383l129 559q16 66 29.5 125t13.5 113q0 76 -32 118.5t-97 42.5q-47 0 -92.5 -13t-86 -33.5t-75.5 -47t-60 -53.5l-168 -811h-196z" />
<glyph unicode="i" horiz-adv-x="628" d="M86 0l219 965h-149v110h370l-213 -964h168v-111h-395zM293 1407q0 59 42 94t107 35q70 0 110 -35t40 -94t-40 -94t-110 -35q-66 0 -107.5 35t-41.5 94z" />
<glyph unicode="j" horiz-adv-x="614" d="M-190 -344q27 12 66.5 33.5t80.5 64.5t80 114t63 183l201 914h-139v110h362l-215 -983q-35 -154 -97 -250t-132 -153.5t-135.5 -82t-102.5 -34.5zM283 1407q0 59 42 94t107 35q70 0 110 -35t40 -94t-40 -94t-110 -35q-66 0 -107.5 35t-41.5 94z" />
<glyph unicode="k" horiz-adv-x="1091" d="M76 0l299 1425h-150v111h369l-195 -944h66l326 326v157h272v-86l-432 -377l278 -501h119v-111h-297l-270 510h-80l-105 -510h-200z" />
<glyph unicode="l" horiz-adv-x="608" d="M102 154q0 33 5.5 68.5t13.5 74.5l237 1128h-149v111h371l-250 -1190q-10 -45 -12.5 -73.5t-2.5 -55.5q0 -57 20.5 -78.5t51.5 -21.5q53 0 100.5 32.5t87.5 67.5l48 -72q-23 -29 -58 -57.5t-78 -53t-92 -39.5t-98 -15q-100 0 -147.5 49t-47.5 125z" />
<glyph unicode="m" horiz-adv-x="1808" d="M94 0l211 965h-139v110h366l-45 -178h9q25 29 61.5 63.5t83.5 64.5t105.5 50.5t125.5 20.5q82 0 133.5 -46t51.5 -161q98 94 198.5 150.5t217.5 56.5q198 0 198 -205q0 -57 -11 -116.5t-32 -129.5l-151 -534h170v-111h-390l173 645q14 53 27 109.5t13 91.5q0 53 -25.5 86 t-90.5 33q-35 0 -78 -18.5t-85 -46.5t-78 -62.5t-54 -67.5l-189 -770h-188l141 604q16 66 27.5 128.5t11.5 127.5q0 47 -18.5 76t-63.5 29t-89 -16.5t-84 -43t-73.5 -61.5t-62.5 -74l-176 -770h-201z" />
<glyph unicode="n" horiz-adv-x="1249" d="M94 0l203 965h-141v110h364l-47 -213h10q86 104 192.5 169t229.5 65q111 0 159 -54.5t48 -140.5q0 -47 -11 -118.5t-28 -133.5l-129 -538h168v-111h-178h-201l137 612q16 66 28.5 124.5t12.5 113.5q0 47 -24.5 81t-73.5 34q-61 0 -117.5 -25t-103.5 -60.5t-83 -74.5 t-56 -68l-160 -737h-199z" />
<glyph unicode="o" horiz-adv-x="1155" d="M90 399q0 115 38 239t114.5 224.5t192.5 167t272 66.5q178 0 268 -104.5t90 -305.5q0 -141 -43 -268t-121 -223.5t-186.5 -155.5t-241.5 -59q-174 0 -278.5 107t-104.5 312zM303 350q0 -119 56.5 -196.5t154.5 -77.5q78 0 140.5 57t106.5 146.5t67.5 204t23.5 235.5 q0 127 -46 203.5t-144 76.5q-72 0 -127.5 -30.5t-94.5 -82.5t-65.5 -119t-43 -139.5t-22.5 -143t-6 -134.5z" />
<glyph unicode="p" horiz-adv-x="1226" d="M0 -410l309 1375h-139v110h362l-53 -211h8q33 45 74 87t91 75t108.5 51.5t126.5 18.5q115 0 188.5 -77t73.5 -245q0 -156 -51 -299t-140.5 -253.5t-209 -176t-256.5 -65.5q-37 0 -64 2t-47.5 7t-39.5 11t-42 16l-74 -323h156v-103h-381zM324 119q14 -12 29.5 -21.5 t35 -13.5t46 -6t65.5 -2q88 0 166.5 61.5t138 158.5t95.5 218t36 238q0 102 -40 157.5t-118 55.5q-57 0 -109.5 -25t-94.5 -60.5t-72.5 -77.5t-44.5 -79z" />
<glyph unicode="q" horiz-adv-x="1167" d="M90 301q0 154 43 297t128 254t212 177.5t293 66.5q49 0 101.5 -6.5t98.5 -16.5t83.5 -21.5t60.5 -23.5l-303 -1335h158v-103h-381l145 611h-8q-23 -37 -60.5 -76t-87 -72t-106.5 -53t-119 -20q-133 0 -195.5 89t-62.5 232zM303 336q0 -111 37.5 -165t103.5 -54 q43 0 91.5 19.5t91.5 50t76.5 65.5t52.5 65l139 654q-29 16 -59.5 22t-81.5 6q-115 0 -200 -61t-140.5 -156.5t-83 -214t-27.5 -231.5z" />
<glyph unicode="r" horiz-adv-x="856" d="M96 0l211 965h-141v110h362l-49 -209h10q41 63 100.5 124t112.5 85h164v-196h-168q-20 -4 -47.5 -11.5t-58.5 -19.5t-63.5 -32.5t-63.5 -51.5l-168 -764h-201z" />
<glyph unicode="s" horiz-adv-x="964" d="M12 78l78 244h139l-53 -170q23 -23 74 -42.5t125 -19.5q37 0 79 7t76.5 25.5t57 50.5t22.5 81q0 51 -31.5 90t-78.5 75t-103.5 71.5t-103.5 77.5t-79 95.5t-32 124.5q0 76 35 134.5t94.5 96.5t141.5 57.5t174 19.5q43 0 85 -6.5t77.5 -15.5t62.5 -21.5t39 -22.5l-62 -239 h-127l35 167q-16 12 -58 19.5t-73 7.5q-33 0 -70.5 -5t-70.5 -20.5t-54.5 -43t-21.5 -72.5q0 -55 32 -96t81 -76t104.5 -70t104.5 -77t80.5 -96t31.5 -130q0 -78 -41 -137.5t-108.5 -100.5t-156.5 -61t-183 -20q-53 0 -105.5 10t-96.5 25.5t-75.5 33t-44.5 29.5z" />
<glyph unicode="t" horiz-adv-x="808" d="M119 965v110h217l59 236h193l-56 -236h277v-110h-299l-160 -619q-10 -41 -14 -73.5t-4 -67.5q0 -94 106 -94q55 0 125 25.5t123 72.5l43 -82q-23 -25 -62.5 -51.5t-91 -48t-113 -34.5t-126.5 -13q-100 0 -155.5 49t-55.5 125q0 33 2 68.5t12 74.5l168 668h-188z" />
<glyph unicode="u" d="M119 176q0 29 5 75t17 105l129 609h-141v110h369l-142 -612q-12 -53 -24.5 -113.5t-12.5 -118.5q0 -61 27 -90.5t70 -29.5q70 0 132 32.5t112.5 76.5t84 91t50.5 78l137 686h194l-186 -964h166v-111h-377l43 242h-8q-31 -43 -76 -89.5t-101.5 -84t-123 -63t-139.5 -25.5 q-94 0 -149.5 50t-55.5 146z" />
<glyph unicode="v" horiz-adv-x="1015" d="M35 965v110h332l88 -831v-133h18l53 151l291 576l-41 237h252v-110l-516 -965h-205l-131 965h-141z" />
<glyph unicode="w" horiz-adv-x="1558" d="M35 965v110h338l33 -964h10l59 168l291 686h188l115 -854h10l43 139l242 567l-41 258h248v-110l-443 -965h-225l-80 578l-14 180h-10l-320 -758h-239l-60 965h-145z" />
<glyph unicode="x" horiz-adv-x="1028" d="M-10 0v111l432 434l-156 420h-139v110h319l136 -424l219 238l-17 186h238v-110l-412 -410l172 -444h136v-111h-318l-147 457l-232 -273l33 -184h-264z" />
<glyph unicode="y" horiz-adv-x="1040" d="M72 965v110h305l160 -852v-112h16l55 106q35 76 72 162t72.5 172t66.5 169t51 157l-57 198h252v-110q-33 -90 -81 -210t-105.5 -250t-123 -265.5t-132 -257t-133 -224t-125.5 -168.5h-236v197h227q29 35 58.5 80t58.5 133h-100l-176 965h-125z" />
<glyph unicode="z" horiz-adv-x="989" d="M18 0v111l746 792h-481l-58 -147h-116l67 319h799v-110l-744 -793h537l55 147h119l-70 -319h-854z" />
<glyph unicode="{" horiz-adv-x="780" d="M104 449l15 65q90 0 150.5 62.5t78.5 152.5l105 488q20 98 87.5 157.5t178.5 59.5h211l-19 -86h-108q-61 0 -95 -29t-49 -94l-102 -477q-14 -68 -48 -115t-78 -77t-91 -45t-90 -19l-4 -13q35 -4 70.5 -17t65.5 -39t49.5 -62.5t19.5 -88.5q0 -27 -7 -57l-102 -477 q-2 -12 -3 -21.5t-1 -19.5q0 -82 102 -82h105l-19 -86h-211q-86 0 -134 38t-48 116q0 27 6 61l103 481q8 35 8 74q0 72 -37 111t-109 39z" />
<glyph unicode="|" horiz-adv-x="544" d="M211 -266v1700h121v-1700h-121z" />
<glyph unicode="}" horiz-adv-x="780" d="M-131 -471l18 86h107q61 0 95 28.5t48 94.5l103 479q14 68 44.5 115t69.5 76.5t83 45t87 19.5l2 12q-35 2 -66.5 15.5t-58 38t-42 59.5t-15.5 84q0 16 3 37.5t5 30.5l103 475q2 12 3 21t1 20q0 82 -101 82h-106l18 86h211q86 0 134.5 -39t48.5 -115q0 -14 -2.5 -29.5 t-6.5 -31.5l-102 -480q-8 -35 -8 -71q0 -72 36.5 -112t108.5 -40l-14 -65q-88 0 -149.5 -62.5t-80.5 -152.5l-104 -490q-20 -98 -87 -157.5t-179 -59.5h-207z" />
<glyph unicode="~" horiz-adv-x="1218" d="M121 678q84 111 168 144.5t155 33.5q59 0 113.5 -21.5t108 -48t106.5 -48t111 -21.5q43 0 87 15.5t91 53.5l39 -65q-66 -86 -134.5 -111.5t-134.5 -25.5q-59 0 -115.5 21.5t-111.5 48t-110.5 48t-110.5 21.5q-51 0 -101.5 -21.5t-103.5 -85.5z" />
<glyph unicode="&#xa2;" d="M131 395q0 147 41 268t119 210.5t188.5 144.5t249.5 72l74 329h121l-74 -323q82 -4 143.5 -20.5t83.5 -37.5v-264h-147v184q-16 12 -47 18.5t-60 8.5l-194 -866h22q92 0 163 39t114 98l67 -53q-53 -102 -152.5 -158.5t-242.5 -62.5l-74 -349h-123l80 353 q-90 12 -156.5 51t-109.5 94t-64.5 123t-21.5 141zM344 455q0 -111 42 -194t130 -118l191 832q-166 -35 -264.5 -169t-98.5 -351z" />
<glyph unicode="&#xa3;" d="M-25 0l13 68q158 55 249 145t115 193q8 35 12.5 69.5t4.5 71.5q0 31 -3.5 62.5t-7.5 64.5h-247l22 106h195q-6 31 -11.5 54.5t-9.5 48t-6 53.5t-2 70q0 102 34 186t102.5 143.5t174 91t248.5 31.5q141 0 243.5 -19.5t162.5 -47.5l-76 -353h-131l55 254q-41 16 -104.5 36 t-173.5 20q-84 0 -143.5 -27t-97.5 -71t-55.5 -102t-17.5 -120q0 -59 7.5 -115.5t23.5 -132.5h354l-22 -106h-314q2 -14 2 -28.5v-31.5q0 -35 -4 -72.5t-16 -78.5q-10 -31 -26.5 -67t-45 -74.5t-69.5 -77.5t-99 -74h613l49 231h131l-82 -401h-1047z" />
<glyph unicode="&#xa5;" d="M76 1331l22 103h615l-23 -103h-176l217 -616l461 616h-186l22 103h512l-22 -103h-177l-497 -645h325l-24 -106h-371l-26 -129h370l-22 -107h-371l-51 -242h174l-23 -102h-594l23 102h190l52 242h-371l22 107h371l27 129h-371l25 106h323l-260 645h-186z" />
<glyph unicode="&#xa8;" horiz-adv-x="1114" d="M342 1409q0 59 36 95t95 36q57 0 93 -36t36 -95q0 -55 -36 -91t-93 -36q-59 0 -95 36t-36 91zM848 1409q0 59 37 95t94 36q59 0 94 -36t35 -95q0 -55 -35 -91t-94 -36q-57 0 -94 36t-37 91z" />
<glyph unicode="&#xa9;" horiz-adv-x="1857" d="M160 594q0 170 63.5 304t170 226.5t245.5 141.5t289 49t286 -49t239 -141.5t163.5 -226.5t60.5 -304t-60.5 -304t-163.5 -226.5t-239.5 -141.5t-285.5 -49q-166 0 -306.5 49t-244 141.5t-160.5 226.5t-57 304zM270 594q0 -141 49.5 -256t137.5 -196t208.5 -126t262.5 -45 q143 0 261 45t202 126t130 196t46 256t-49.5 256t-135.5 196.5t-202.5 126t-251.5 44.5q-152 0 -272.5 -45.5t-207 -126t-132.5 -195.5t-46 -256zM477 596q0 106 42 186t109.5 133.5t153.5 81t174 27.5q92 0 153.5 -11.5t109.5 -33.5v-223h-103v159q-6 4 -23.5 8.5t-38 7.5 t-43 5t-38.5 2q-129 0 -202 -91t-73 -251q0 -68 16.5 -130.5t52.5 -109.5t93.5 -74.5t136.5 -27.5q43 0 76 10t43 19v141h94v-205q-41 -29 -100 -40t-125 -11q-111 0 -204 27.5t-160.5 82t-105.5 134.5t-38 184z" />
<glyph unicode="&#xab;" horiz-adv-x="1064" d="M70 530l583 426l52 -43l-398 -387l250 -370l-72 -45zM518 530l481 422l50 -41l-322 -383l174 -370l-63 -43z" />
<glyph unicode="&#xad;" horiz-adv-x="972" d="M170 512l27 131h647l-27 -131h-647z" />
<glyph unicode="&#xae;" horiz-adv-x="1607" d="M221 924q0 131 47 233.5t127 172t185.5 105t222.5 35.5q121 0 227.5 -35.5t185 -105t124.5 -172t46 -233.5q0 -133 -47 -234.5t-128 -171t-186 -105.5t-222 -36q-115 0 -219.5 36t-185.5 105.5t-129 171t-48 234.5zM319 924q0 -106 40 -191.5t106.5 -146t154 -92 t183.5 -31.5q100 0 188 31.5t154.5 91t104.5 144.5t38 194q0 106 -40 191t-106.5 144.5t-154.5 92t-184 32.5q-102 0 -190.5 -32.5t-154 -92t-102.5 -144.5t-37 -191zM522 633v69h80v474h-80v69h90q41 0 98.5 4t94.5 4q51 0 99 -9t84 -30.5t57.5 -54.5t21.5 -78 q0 -63 -44 -105t-108 -61l150 -213h55v-69h-157l-156 274h-80v-205h82v-69h-287zM727 969h72q133 0 133 112q0 53 -39 79t-98 26q-27 0 -40.5 -1t-27.5 -5v-211z" />
<glyph unicode="&#xb4;" horiz-adv-x="987" d="M539 1260l200 276h258v-84l-401 -240z" />
<glyph unicode="&#xb8;" horiz-adv-x="1019" d="M182 -393q43 2 85 6t75 14.5t52.5 28.5t19.5 51q0 20 -5.5 35.5t-21.5 25t-45 15.5t-76 10l86 209h105l-60 -127q63 -2 103.5 -10t64 -24.5t31.5 -41t8 -59.5q0 -61 -42 -100t-105.5 -60.5t-137 -30t-137.5 -8.5v66z" />
<glyph unicode="&#xbb;" horiz-adv-x="1064" d="M55 158l336 393l-164 360l70 41l301 -422l-492 -415zM397 156l416 393l-240 364l68 43l406 -426l-596 -419z" />
<glyph unicode="&#x2c6;" horiz-adv-x="899" d="M303 1303l399 401h60l115 -399l-66 -37l-143 229l-299 -229z" />
<glyph unicode="&#x2da;" horiz-adv-x="815" d="M356 1468q0 88 65.5 148.5t166.5 60.5q92 0 154.5 -54t62.5 -148q0 -43 -18.5 -80t-48 -63.5t-69.5 -42t-83 -15.5q-104 0 -167 52t-63 142zM479 1473q0 -53 31 -81t68 -28q45 0 74.5 24.5t29.5 77.5q0 59 -28.5 90t-73.5 31q-53 0 -77 -30.5t-24 -83.5z" />
<glyph unicode="&#x2dc;" horiz-adv-x="856" d="M150 1407q86 74 152.5 100.5t119.5 26.5q41 0 77 -11.5t68.5 -23.5t65.5 -23.5t67 -11.5q29 0 60 9.5t65 33.5l33 -63q-74 -70 -136.5 -95.5t-113.5 -25.5q-41 0 -77.5 11.5t-71.5 24.5t-68 24.5t-67 11.5q-29 0 -61 -11.5t-68 -42.5z" />
<glyph unicode="&#x401;" horiz-adv-x="1300" d="M-43 0l23 115h186l256 1204h-186l24 115h1090l-72 -336h-131l39 176l-33 45h-502l-112 -531h346l37 31l18 86h131l-74 -350h-131l19 86l-25 33h-346l-119 -559h537l49 41l43 200h131l-76 -356h-1122zM477 1630q0 59 37.5 89t95.5 30q59 0 98 -29.5t39 -89.5 q0 -53 -39 -81.5t-98 -28.5q-57 0 -95 28.5t-38 81.5zM993 1630q0 59 39 89t94 30q59 0 98 -29.5t39 -89.5q0 -53 -39 -81.5t-98 -28.5q-55 0 -94 28.5t-39 81.5z" />
<glyph unicode="&#x402;" horiz-adv-x="1728" d="M150 1010l90 424h1339l-90 -424h-148l58 264l-33 45h-367l-110 -522q78 33 175 62.5t230 29.5q197 0 282 -77t85 -245q0 -145 -50 -253.5t-132 -179.5t-187.5 -105.5t-216.5 -34.5l8 76q66 10 127.5 47t109.5 98t77.5 148.5t29.5 197.5q0 109 -45 163t-161 54 q-96 0 -189.5 -23.5t-163.5 -58.5l-125 -581h160l-22 -115h-605l23 115h215l256 1204h-367l-49 -45l-57 -264h-147z" />
<glyph unicode="&#x403;" horiz-adv-x="1120" d="M-43 0l23 115h186l256 1204h-186l24 115h1051l-90 -424h-148l57 264l-32 45h-447l-256 -1204h221l-24 -115h-635zM713 1624l299 248l252 -68v-82l-525 -147z" />
<glyph unicode="&#x404;" horiz-adv-x="1409" d="M156 516q0 205 61.5 378t176 299t279.5 195.5t374 69.5q150 0 242.5 -21.5t164.5 -56.5l-76 -350h-131l47 215l-20 41q-23 10 -76 25.5t-160 15.5q-111 0 -206 -37t-170.5 -104.5t-131 -164.5t-86.5 -218h691l-27 -131h-688q-4 -37 -6 -74t-2 -76q0 -88 23.5 -163.5 t75.5 -132t135 -88.5t200 -32q74 0 134 11.5t89 29.5l37 39l39 191h131l-68 -322q-35 -18 -83 -32.5t-101 -25.5t-108.5 -16.5t-106.5 -5.5q-201 0 -329 47.5t-199.5 124t-98 173t-26.5 196.5z" />
<glyph unicode="&#x405;" horiz-adv-x="1200" d="M51 84l78 373h131l-51 -244l27 -49q14 -12 42.5 -25.5t64.5 -25t76 -17.5t79 -6q178 0 275 69.5t97 202.5q0 80 -44 137.5t-109.5 104.5t-143 90t-143 95.5t-110 120t-44.5 161.5q0 186 141.5 286.5t413.5 100.5q141 0 233.5 -19.5t158.5 -49.5l-5 -15q-4 -16 -8 -40.5 t-11 -56.5t-13 -65q-16 -78 -37 -174h-131l45 219l-23 52q-35 16 -100.5 25t-136.5 9q-154 0 -225.5 -61t-71.5 -147q0 -72 44 -124.5t109.5 -98.5t143.5 -90t143.5 -98t109.5 -126t44 -170q0 -102 -41 -185t-120 -142.5t-195.5 -92.5t-268.5 -33q-72 0 -138.5 10.5 t-121.5 27t-97 35t-67 36.5z" />
<glyph unicode="&#x406;" horiz-adv-x="796" d="M-2 0l25 115h186l256 1204h-186l24 115h602l-24 -115h-187l-256 -1204h187l-25 -115h-602z" />
<glyph unicode="&#x407;" horiz-adv-x="796" d="M-2 0l25 115h186l256 1204h-186l24 115h602l-24 -115h-187l-256 -1204h187l-25 -115h-602zM281 1630q0 59 37.5 89t95.5 30q59 0 98 -29.5t39 -89.5q0 -53 -39 -81.5t-98 -28.5q-57 0 -95 28.5t-38 81.5zM692 1630q0 59 39 89t94 30q59 0 98.5 -29.5t39.5 -89.5 q0 -53 -39 -81.5t-99 -28.5q-55 0 -94 28.5t-39 81.5z" />
<glyph unicode="&#x408;" horiz-adv-x="757" d="M-84 -231q37 16 75 41.5t71.5 69.5t63.5 111.5t52 168.5l248 1159h-170l25 115h585l-24 -115h-187l-241 -1139q-31 -145 -89.5 -239.5t-126 -149.5t-136 -81.5t-119.5 -37.5z" />
<glyph unicode="&#x409;" horiz-adv-x="2123" d="M-57 0l53 258h237q43 51 92.5 136t101.5 213t104.5 304t101.5 408h-213l24 115h1217l-25 -115h-204l-99 -465q43 8 103.5 11t107.5 3q115 0 209 -19.5t161.5 -61.5t104.5 -107.5t37 -157.5q0 -131 -54 -230t-150.5 -165t-232.5 -99.5t-298 -33.5q-10 0 -44 1t-76 2t-88 2 t-81 1h-293l21 115h186l256 1204h-428q-49 -193 -92 -342.5t-83 -264t-77 -201.5t-71.5 -153.5t-69.5 -119t-70 -99.5q-27 -35 -61.5 -69.5t-71.5 -69.5h-235zM1178 119q12 -2 33.5 -4t45 -3t46 -2t34.5 -1q82 0 164 20.5t148.5 68.5t108.5 124.5t42 187.5q0 51 -15.5 96 t-53 78t-101.5 51.5t-162 18.5q-55 0 -92 -4.5t-67 -8.5z" />
<glyph unicode="&#x40a;" horiz-adv-x="2258" d="M-43 0l20 115h187l256 1204h-187l25 115h586l-25 -115h-170l-110 -526h716l111 526h-170l25 115h606l-25 -115h-207l-106 -506q43 6 102.5 10t106.5 4q113 0 204 -22.5t155.5 -67.5t99 -109.5t34.5 -150.5q0 -240 -185 -361.5t-519 -121.5q-12 0 -45 1t-75 2t-87 2t-80 1 h-282l22 115h170l121 563h-717l-121 -563h170l-22 -115h-584zM1341 119q8 -4 30 -5t46.5 -3t47 -2h34.5q78 0 156 18t140.5 62t101 117t38.5 183q0 45 -14 86t-51 72t-97.5 48.5t-152.5 17.5q-53 0 -89 -4t-67 -9z" />
<glyph unicode="&#x40b;" horiz-adv-x="1794" d="M129 1010l90 424h1340l-91 -424h-147l57 264l-32 45h-367l-111 -524q70 33 168.5 62.5t227.5 29.5q166 0 255 -77t89 -222q0 -29 -3 -58.5t-12 -62.5l-75 -352h186l-25 -115h-415l88 420q18 86 18 149q0 102 -49 152.5t-164 50.5q-98 0 -168.5 -24.5t-142.5 -59.5 l-123 -573h160l-25 -115h-604l25 115h215l256 1204h-367l-49 -45l-58 -264h-147z" />
<glyph unicode="&#x40c;" horiz-adv-x="1437" d="M-43 0l23 115h186l256 1204h-186l24 115h586l-25 -115h-170l-114 -537h125l550 537h-165l24 115h518l-24 -115h-162l-594 -541l420 -663h129l-25 -115h-307l-387 680h-123l-121 -565h170l-24 -115h-584zM805 1624l299 248l252 -68v-82l-525 -147z" />
<glyph unicode="&#x40e;" horiz-adv-x="1499" d="M184 1319l25 115h608l-24 -115h-185l248 -633l39 -141h8l72 135l377 639h-191l25 115h522l-25 -115h-165l-555 -870q-43 -66 -100.5 -139.5t-116 -137t-109.5 -111t-82 -61.5h-199l54 252h239q14 12 31.5 29.5t34 36t30 36t19.5 29.5l-406 936h-174zM627 1802h258v-139 q14 -16 50 -22.5t65 -6.5q45 0 93 6.5t91 24.5t79 51t56 86h125q-16 -61 -51 -112.5t-90.5 -89t-132.5 -58t-179 -20.5q-190 0 -277 68.5t-87 211.5z" />
<glyph unicode="&#x40f;" horiz-adv-x="1634" d="M-43 0l25 115h186l256 1204h-186l24 115h586l-25 -115h-170l-256 -1204h693l256 1204h-170l24 115h584l-23 -115h-186l-256 -1204h186l-24 -115h-662l-147 -410h-103l33 410h-645z" />
<glyph unicode="&#x410;" horiz-adv-x="1525" d="M-102 0l24 115h156l807 1319h217l201 -1319h151l-24 -115h-580l24 115h183l-56 360h-540l-217 -360h176l-25 -115h-497zM532 590h459l-63 473q-2 6 -2 40t-2 75q-2 45 -2 102h-9l-110 -221z" />
<glyph unicode="&#x411;" horiz-adv-x="1361" d="M-43 0l20 115h187l256 1204h-187l25 115h1100l-80 -375h-148l48 215l-33 45h-496l-108 -504q43 6 116.5 10t135.5 4q219 0 344 -86t125 -264q0 -117 -55.5 -208t-153 -152.5t-228.5 -93t-282 -31.5q-12 0 -46 1t-78 2t-91 2t-82 1h-289zM395 119q10 -4 32 -5t46.5 -3 t47 -2h34.5q98 0 184 22.5t148.5 67.5t99.5 113.5t37 160.5q0 53 -17.5 97t-56.5 77t-101.5 50.5t-152.5 17.5q-53 0 -101 -3t-79 -10z" />
<glyph unicode="&#x412;" horiz-adv-x="1384" d="M-43 0l23 115h186l256 1204h-186l24 115h264q43 0 84 2t86 4t96.5 4t112.5 2q92 0 175 -15.5t144.5 -50t97.5 -91t36 -138.5q0 -160 -104.5 -259t-274.5 -126v-8q51 -4 104.5 -21.5t98.5 -54.5t73.5 -93.5t28.5 -135.5q0 -115 -53 -201t-148.5 -145.5t-226.5 -89 t-285 -29.5q-80 0 -180 6t-192 6h-240zM397 121q29 -8 74 -13.5t139 -5.5q82 0 160 21.5t139.5 65.5t98 110t36.5 154q0 127 -96 175t-264 48h-170zM537 784h112q41 0 93.5 3.5t86.5 7.5q86 27 141.5 64.5t88.5 82.5t46 95t13 100q0 84 -58.5 139t-203.5 55q-70 0 -120 -3 t-85 -7z" />
<glyph unicode="&#x413;" horiz-adv-x="1120" d="M-43 0l23 115h186l256 1204h-186l24 115h1051l-90 -424h-148l57 264l-32 45h-447l-256 -1204h221l-24 -115h-635z" />
<glyph unicode="&#x414;" horiz-adv-x="1554" d="M-172 -332l96 447h199q80 86 159.5 221t152.5 296t131.5 338t92.5 349h-221l25 115h1212l-24 -115h-187l-256 -1204h213l-96 -447h-154l62 287l-31 45h-1110l-51 -45l-61 -287h-152zM281 115h698l256 1204h-432q-66 -254 -135.5 -450.5t-139 -343t-133 -247 t-114.5 -163.5z" />
<glyph unicode="&#x415;" horiz-adv-x="1300" d="M-43 0l23 115h186l256 1204h-186l24 115h1090l-72 -336h-131l39 176l-33 45h-502l-112 -531h346l37 31l18 86h131l-74 -350h-131l19 86l-25 33h-346l-119 -559h537l49 41l43 200h131l-76 -356h-1122z" />
<glyph unicode="&#x416;" horiz-adv-x="2123" d="M-94 0l24 115h121q184 184 328 329q61 61 120.5 121t105.5 107t75 76l29 28l-336 543h-160l25 115h495l-24 -115h-154l293 -537h160l114 537h-157l24 115h537l-25 -115h-158l-114 -537h153l502 537h-164l25 115h530l-24 -115h-174l-561 -549l413 -655h123l-24 -115h-295 l-377 680h-148l-121 -565h158l-24 -115h-537l25 115h157l121 565h-143l-613 -680h-325z" />
<glyph unicode="&#x417;" horiz-adv-x="1261" d="M39 102q0 2 11 56.5t26 117.5l37 168h131l-51 -247l22 -39q45 -29 112.5 -48.5t133.5 -19.5q205 0 319.5 103.5t114.5 271.5q0 109 -73.5 158t-209.5 49h-182l29 131h266q129 39 199.5 131t70.5 203q0 39 -12 76.5t-42 66.5t-80 46t-126 17q-35 0 -71.5 -3t-70.5 -9 t-61.5 -13t-42.5 -15l-34 -39l-43 -203h-131l67 313q43 23 96.5 38t108.5 25.5t111.5 15.5t105.5 5q94 0 178 -16.5t147.5 -53t100.5 -96t37 -143.5q0 -55 -20.5 -113.5t-63.5 -111t-110.5 -95.5t-164.5 -63v-8q47 -10 93.5 -30.5t83 -55.5t59.5 -85t23 -118 q0 -129 -56.5 -222t-147.5 -153.5t-208 -89.5t-240 -29q-86 0 -159.5 12.5t-131 32t-96.5 42t-55 40.5z" />
<glyph unicode="&#x418;" horiz-adv-x="1685" d="M-43 0l23 115h186l256 1204h-186l24 115h588l-25 -115h-172l-186 -879l-57 -153l137 166l854 821l8 45h-186l24 115h590l-25 -115h-186l-256 -1204h186l-24 -115h-590l25 115h174l186 876l55 154l-127 -158l-864 -831l-8 -41h186l-24 -115h-586z" />
<glyph unicode="&#x419;" horiz-adv-x="1685" d="M-43 0l23 115h186l256 1204h-186l24 115h588l-25 -115h-172l-186 -879l-57 -153l137 166l854 821l8 45h-186l24 115h590l-25 -115h-186l-256 -1204h186l-24 -115h-590l25 115h174l186 876l55 154l-127 -158l-864 -831l-8 -41h186l-24 -115h-586zM662 1802h258v-139 q14 -16 50 -22.5t65 -6.5q45 0 93 6.5t91 24.5t79 51t56 86h125q-16 -61 -51 -112.5t-90.5 -89t-132.5 -58t-179 -20.5q-190 0 -277 68.5t-87 211.5z" />
<glyph unicode="&#x41a;" horiz-adv-x="1437" d="M-43 0l23 115h186l256 1204h-186l24 115h586l-25 -115h-170l-114 -537h125l550 537h-165l24 115h518l-24 -115h-162l-594 -541l420 -663h129l-25 -115h-307l-387 680h-123l-121 -565h170l-24 -115h-584z" />
<glyph unicode="&#x41b;" horiz-adv-x="1492" d="M-57 0l53 258h237q43 51 92.5 136t101.5 213t104.5 304t101.5 408h-213l24 115h1198l-24 -115h-186l-256 -1204h186l-25 -115h-592l25 115h176l256 1204h-428q-49 -193 -92 -342.5t-83 -264t-77 -201.5t-71.5 -153.5t-69.5 -119t-70 -99.5q-27 -35 -61.5 -69.5 t-71.5 -69.5h-235z" />
<glyph unicode="&#x41c;" horiz-adv-x="1994" d="M-43 0l23 115h186l256 1204h-186l24 115h465l285 -904l688 904h446l-24 -115h-187l-256 -1204h187l-25 -115h-594l25 115h186l195 913q2 6 12 44t20 81l29 115h-18l-135 -219l-578 -742h-125l-252 742l-39 239h-20l-25 -123q-10 -47 -18 -88t-10 -49l-195 -913h174 l-25 -115h-489z" />
<glyph unicode="&#x41d;" horiz-adv-x="1658" d="M-43 0l23 115h186l256 1204h-186l24 115h586l-25 -115h-170l-110 -526h716l111 526h-170l25 115h585l-24 -115h-187l-256 -1204h187l-25 -115h-583l22 115h170l121 563h-717l-121 -563h170l-24 -115h-584z" />
<glyph unicode="&#x41e;" horiz-adv-x="1679" d="M156 580q0 166 52 324.5t159.5 281.5t271.5 197.5t385 74.5q137 0 252 -40t195.5 -115.5t125.5 -182t45 -237.5q0 -164 -45 -327t-145 -292t-258 -209t-381 -80q-121 0 -237.5 35t-211 109t-151.5 187.5t-57 273.5zM412 578q0 -131 35.5 -223.5t94 -151t134.5 -86 t153 -27.5q160 0 266.5 73t171 187.5t92 254.5t27.5 276q0 227 -108.5 344.5t-304.5 117.5q-145 0 -252 -67.5t-175.5 -176t-101 -245.5t-32.5 -276z" />
<glyph unicode="&#x41f;" horiz-adv-x="1634" d="M-43 0l23 115h186l256 1204h-186l24 115h1524l-25 -115h-186l-256 -1204h186l-24 -115h-586l25 115h169l256 1204h-692l-256 -1204h170l-24 -115h-584z" />
<glyph unicode="&#x420;" horiz-adv-x="1345" d="M-43 0l23 115h186l256 1204h-186l24 115h229q92 0 195.5 8t204.5 8q113 0 206 -20.5t158.5 -63.5t102.5 -109.5t37 -158.5q0 -135 -53.5 -237.5t-148.5 -172.5t-226 -104.5t-285 -34.5h-38t-54.5 1t-56 3t-42.5 4l-94 -442h205l-25 -115h-618zM514 674q10 -4 29.5 -5 t42 -3t44 -2h34.5q94 0 180 24.5t151.5 75.5t103.5 130t38 189q0 115 -78 183.5t-258 68.5q-55 0 -88 -4t-62 -8z" />
<glyph unicode="&#x421;" horiz-adv-x="1409" d="M156 516q0 205 61.5 378t176 299t279.5 195.5t374 69.5q150 0 242.5 -21.5t164.5 -56.5l-76 -350h-131l47 215l-20 41q-23 10 -76 25.5t-160 15.5q-139 0 -253.5 -57.5t-197.5 -163t-129 -253.5t-46 -331q0 -88 23.5 -163.5t75.5 -132t135 -88.5t200 -32q74 0 134 11.5 t89 29.5l37 39l39 191h131l-68 -322q-35 -18 -83 -32.5t-101 -25.5t-108.5 -16.5t-106.5 -5.5q-201 0 -329 47.5t-199.5 124t-98 173t-26.5 196.5z" />
<glyph unicode="&#x422;" horiz-adv-x="1409" d="M150 1010l90 424h1339l-90 -424h-148l58 264l-35 45h-365l-256 -1204h211l-24 -115h-651l24 115h211l256 1204h-369l-47 -45l-57 -264h-147z" />
<glyph unicode="&#x423;" horiz-adv-x="1499" d="M184 1319l25 115h608l-24 -115h-185l248 -633l39 -141h8l72 135l377 639h-191l25 115h522l-25 -115h-165l-555 -870q-43 -66 -100.5 -139.5t-116 -137t-109.5 -111t-82 -61.5h-199l54 252h239q14 12 31.5 29.5t34 36t30 36t19.5 29.5l-406 936h-174z" />
<glyph unicode="&#x424;" horiz-adv-x="1792" d="M115 594q0 133 43 250t128 204t212 137t293 50q31 0 79 -2t76 -6l19 92h-160l24 115h531l-25 -115h-159l-21 -98q43 10 99.5 12t95.5 2q106 0 187 -27.5t133 -75t79 -114t27 -141.5q0 -133 -42 -253t-127 -209t-213 -141.5t-300 -52.5q-12 0 -32 1t-41.5 2t-42 4t-32.5 8 l-26 -121h159l-24 -115h-531l25 115h160l24 116q-47 -6 -104.5 -8t-102.5 -2q-104 0 -181 30t-128 80t-76.5 117.5t-25.5 145.5zM360 592q0 -51 14.5 -98.5t47.5 -83t87 -57t134 -21.5q29 0 55.5 2t61.5 8l164 776q-55 6 -113 6q-117 0 -202 -41t-140 -112.5t-82 -168.5 t-27 -210zM965 338q23 -4 53.5 -5t50.5 -1q117 0 204 44t144.5 118.5t85 175t27.5 213.5q0 53 -12.5 97t-44 77t-86 50t-136.5 17q-35 0 -61.5 -2t-59.5 -10z" />
<glyph unicode="&#x425;" horiz-adv-x="1527" d="M-88 0l25 115h169l580 606l-303 598h-182l24 115h606l-24 -115h-164l221 -457l402 457h-181l25 115h524l-24 -115h-168l-520 -551l331 -653h187l-25 -115h-592l25 115h149l-252 506l-446 -506h158l-25 -115h-520z" />
<glyph unicode="&#x426;" horiz-adv-x="1636" d="M-43 0l25 115h186l256 1204h-186l24 115h586l-25 -115h-170l-256 -1204h684l256 1204h-170l25 115h586l-25 -115h-186l-256 -1204h227l-96 -447h-142l62 287l-31 45h-1374z" />
<glyph unicode="&#x427;" horiz-adv-x="1470" d="M195 1319l24 115h545l-25 -115h-149l-72 -332q-6 -31 -10 -60.5t-4 -56.5q0 -98 52 -155.5t175 -57.5q96 0 185.5 25t160.5 59l123 578h-164l25 115h559l-25 -115h-165l-256 -1204h165l-24 -115h-608l24 115h213l111 520q-70 -35 -176.5 -63.5t-239.5 -28.5 q-166 0 -265.5 74.5t-99.5 234.5q0 29 3.5 62.5t11.5 68.5l71 336h-165z" />
<glyph unicode="&#x428;" horiz-adv-x="2179" d="M-43 0l23 115h186l256 1204h-186l24 115h563l-24 -115h-148l-256 -1204h504l256 1204h-147l24 115h524l-24 -115h-148l-256 -1204h504l256 1204h-147l24 115h564l-25 -115h-186l-256 -1204h186l-25 -115h-2066z" />
<glyph unicode="&#x429;" horiz-adv-x="2189" d="M-43 0l25 115h186l256 1204h-186l24 115h563l-24 -115h-148l-256 -1204h504l256 1204h-147l24 115h525l-25 -115h-148l-256 -1204h504l256 1204h-147l24 115h564l-25 -115h-186l-256 -1204h229l-96 -447h-142l62 287l-31 45h-1929z" />
<glyph unicode="&#x42a;" horiz-adv-x="1624" d="M147 1010l91 424h923l-24 -115h-205l-98 -465q43 8 103 11t107 3q115 0 209.5 -19.5t162 -62.5t104 -108.5t36.5 -157.5q0 -131 -54 -229t-150.5 -165t-232.5 -99.5t-298 -32.5q-10 0 -44 1t-76 2t-88 2t-81 1h-292l20 115h186l256 1204h-317l-49 -45l-57 -264h-132z M678 119q12 -2 33.5 -4t45 -3t46 -2t35.5 -1q82 0 163.5 20.5t148.5 66.5t108.5 122.5t41.5 187.5q0 51 -15 97t-53 79t-101.5 52.5t-161.5 19.5q-55 0 -92 -4.5t-68 -8.5z" />
<glyph unicode="&#x42b;" horiz-adv-x="1929" d="M-43 0l20 115h187l256 1204h-187l25 115h621l-25 -115h-205l-98 -465q43 8 101.5 11t105.5 3q231 0 358 -86t127 -262q0 -123 -50 -220t-142.5 -164.5t-223.5 -104.5t-292 -37q-10 0 -43 1t-75 2t-87 2t-80 1h-293zM395 119q12 -2 33 -4t44.5 -3t45 -2t33.5 -1 q78 0 155.5 20.5t140 67.5t101.5 122.5t39 186.5q0 51 -13 97t-47 79t-93.5 52.5t-151.5 19.5q-55 0 -90 -4.5t-66 -8.5zM1182 0l22 115h178l256 1204h-178l25 115h594l-25 -115h-186l-256 -1204h186l-22 -115h-594z" />
<glyph unicode="&#x42c;" horiz-adv-x="1341" d="M-43 0l20 115h187l256 1204h-187l25 115h621l-25 -115h-205l-98 -465q43 8 103.5 11t107.5 3q115 0 209 -19.5t161.5 -61.5t104.5 -107.5t37 -157.5q0 -131 -54.5 -230t-150.5 -165t-232.5 -99.5t-297.5 -33.5q-10 0 -44 1t-76 2t-88 2t-81 1h-293zM395 119q12 -2 34 -4 t45.5 -3t46 -2t34.5 -1q82 0 164 20.5t148.5 68.5t108.5 124.5t42 187.5q0 51 -15.5 96t-53.5 78t-101.5 51.5t-161.5 18.5q-55 0 -92 -4.5t-68 -8.5z" />
<glyph unicode="&#x42d;" horiz-adv-x="1392" d="M63 90l76 354h131l-51 -231l21 -43q29 -23 89 -43.5t146 -20.5q100 0 199.5 26t184.5 90.5t148.5 174t88.5 275.5h-631l29 131h620q2 23 3 45t1 45q0 213 -100 323.5t-334 110.5q-68 0 -122 -12t-81 -27l-37 -41l-41 -188h-131l68 315q84 47 192.5 65.5t206.5 18.5 q168 0 285 -42t190.5 -114.5t107.5 -171t34 -208.5q0 -207 -59.5 -380t-171 -299t-270.5 -197t-357 -71q-176 0 -285 37t-150 78z" />
<glyph unicode="&#x42e;" horiz-adv-x="2191" d="M-43 0l23 115h186l256 1204h-186l24 115h590l-25 -115h-174l-110 -526h252q29 131 93 250.5t163.5 212t234.5 147.5t307 55q137 0 241.5 -42t176.5 -116.5t108.5 -181t36.5 -235.5q0 -164 -50 -327t-150.5 -292t-251 -209t-350.5 -80q-117 0 -223.5 33t-186.5 104.5 t-127 184t-47 274.5v52.5t4 54.5h-256l-121 -563h174l-24 -115h-588zM1024 578q0 -131 25.5 -223.5t71.5 -151t110.5 -86t142.5 -27.5q147 0 247.5 76t162 192.5t88 256t26.5 266.5q0 219 -82.5 340.5t-265.5 121.5q-133 0 -231 -70.5t-163.5 -181t-98.5 -246.5t-33 -267z " />
<glyph unicode="&#x42f;" horiz-adv-x="1439" d="M-90 0l24 115h125l494 512q-27 6 -68 25.5t-79.5 57.5t-67.5 96t-29 140q0 236 183.5 365t539.5 129q47 0 118 -3t142 -3h297l-24 -115h-187l-256 -1204h187l-25 -115h-614l24 115h199l102 483h-229q0 -2 -23.5 -27.5t-60.5 -67.5t-84 -96.5t-96 -109.5 q-115 -131 -260 -297h-332zM565 948q0 -68 23.5 -115t63.5 -76.5t92.5 -42t111.5 -12.5q41 0 88 2.5t76 8.5l129 602q-23 4 -65 7t-76 3q-100 0 -181.5 -21.5t-139.5 -66.5t-90 -116.5t-32 -172.5z" />
<glyph unicode="&#x430;" horiz-adv-x="1210" d="M94 299q0 152 43 295t125 255t202 179.5t275 67.5q57 0 109.5 -21.5t75.5 -48.5l32 49h158l-192 -964h168v-111h-363l43 240h-12q-20 -35 -57 -80t-89.5 -85t-118 -67.5t-141.5 -27.5q-117 0 -187.5 79.5t-70.5 239.5zM307 336q1 -225 144 -225q39 0 86 23.5t93 60t86 83 t66 91.5l109 557q-20 27 -60 43t-92 16q-104 0 -184 -58.5t-135 -152.5t-84 -209.5t-29 -228.5z" />
<glyph unicode="&#x431;" horiz-adv-x="1165" d="M90 412q0 150 26.5 299t82 280t139.5 234.5t199 160.5t241.5 74t261.5 25l72 112h111l-95 -299q-180 0 -318 -10t-242.5 -59t-180.5 -151.5t-131 -286.5h10q102 143 229.5 203.5t268.5 60.5q143 0 232 -97.5t89 -267.5q0 -129 -42 -256t-119.5 -228.5t-188 -163.5 t-248.5 -62q-182 0 -289.5 105.5t-107.5 326.5zM291 412q0 -70 13 -131.5t40 -106.5t69 -71.5t101 -26.5q63 0 125.5 47t112 127t80 186.5t30.5 227.5q0 125 -54 189.5t-146 64.5q-94 0 -175 -53.5t-139 -123.5q-27 -82 -42 -167t-15 -162z" />
<glyph unicode="&#x432;" horiz-adv-x="1142" d="M90 334q0 113 22.5 211t62.5 180t94.5 146.5t117.5 111.5q68 49 162 81t223 32q55 0 104.5 -12.5t85 -38t57 -63.5t21.5 -89q0 -100 -80.5 -173t-230.5 -124q76 -4 127 -24.5t83 -51.5t45 -67.5t13 -69.5q0 -70 -35.5 -141.5t-101 -130t-156 -95t-200.5 -36.5 q-102 0 -179 26.5t-129.5 74.5t-79 112.5t-26.5 140.5zM303 352q0 -123 54.5 -199.5t170.5 -76.5q45 0 91.5 18.5t83 53t59 85t22.5 113.5q0 88 -47 130t-155 59q-25 -4 -57.5 -7.5t-67.5 -6.5t-71 -6t-67 -5q-16 -61 -16 -158zM330 594q104 0 195 23.5t160 63.5t107.5 93 t38.5 111q0 45 -22.5 79.5t-79.5 34.5q-59 0 -116.5 -21.5t-109.5 -68.5t-96.5 -124.5t-76.5 -190.5z" />
<glyph unicode="&#x433;" horiz-adv-x="882" d="M35 205q0 74 42 134t106.5 112.5t138 99.5t138 95t106.5 98.5t42 107.5q0 43 -21.5 78t-74.5 35q-45 0 -88 -17.5t-82 -42t-70.5 -51.5t-52.5 -47l-57 70q18 33 59 71.5t96.5 71.5t120 54.5t131.5 21.5q66 0 115 -16.5t81 -44t48 -63.5t16 -75q0 -80 -42 -143.5 t-106.5 -115.5t-138 -98t-138 -92.5t-106.5 -95.5t-42 -106q0 -55 33 -95t98 -40q55 0 106.5 18t93.5 44t74.5 53.5t53.5 47.5l69 -63q-29 -39 -77 -80t-110 -74.5t-138 -55t-162 -21.5q-53 0 -100 16t-83 46t-57.5 72t-21.5 91z" />
<glyph unicode="&#x434;" horiz-adv-x="1122" d="M66 362q0 141 47 270.5t133 227.5t209 156.5t274 58.5q41 0 81 -9t64 -26q0 68 -14 133.5t-48 116.5t-88 83t-132 32q-72 0 -132.5 -23.5t-111.5 -50.5l-39 76q25 27 66 50.5t90 41t103.5 27.5t105.5 10q88 0 162.5 -30.5t130 -96.5t87 -166t31.5 -239q0 -219 -50 -406.5 t-140 -325t-213 -215t-266 -77.5q-160 0 -255 99t-95 283zM279 348q0 -47 9 -93t30.5 -83t57.5 -59.5t89 -22.5q70 0 142.5 59.5t131 169t96 262t37.5 339.5q-47 27 -84.5 36t-78.5 9q-121 0 -203 -60.5t-133 -151.5t-72.5 -200t-21.5 -205z" />
<glyph unicode="&#x435;" horiz-adv-x="1026" d="M90 358q0 154 45 289t127 233.5t197.5 157t257.5 58.5q55 0 104 -13.5t86 -40t57.5 -65.5t20.5 -90q0 -147 -155.5 -237.5t-510.5 -114.5q-8 -37 -12 -70t-4 -66q0 -129 66.5 -205.5t195.5 -76.5q41 0 81 12t77 31.5t66.5 44t48.5 47.5l53 -55q-23 -41 -61.5 -80t-92 -70 t-119 -49t-141.5 -18q-176 0 -281.5 99t-105.5 279zM336 631q217 6 332.5 71.5t115.5 176.5q0 23 -6 44t-21.5 38.5t-41 27.5t-66.5 10q-96 0 -176 -85t-137 -283z" />
<glyph unicode="&#x436;" horiz-adv-x="1869" d="M-31 27l49 225h123l-32 -152q10 -2 28 -2q70 0 130.5 49.5t106.5 136.5t72.5 206.5t26.5 263.5q0 197 -113 196q-18 0 -42.5 -11t-50 -28.5t-50 -40t-41.5 -45.5l-57 62q61 98 157.5 149t182.5 51q51 0 92 -22.5t67.5 -62t41 -92t14.5 -109.5q0 -51 -5 -103.5t-16 -103.5 h207l101 481h188l-105 -481h205q61 233 190.5 363t295.5 130q35 0 84 -5t75 -21l-53 -230h-125l37 144q-6 2 -13 2h-14q-66 0 -124 -47t-101 -130t-68.5 -198t-25.5 -250q0 -117 36 -172t95 -55q37 0 88 39t82 92l66 -49q-18 -43 -51 -82t-76 -69.5t-93.5 -49t-105.5 -18.5 q-66 0 -112 23.5t-74.5 63.5t-42 95t-13.5 119q0 43 4 98t15 111h-199l-108 -498h-187l107 498h-207q-31 -113 -79 -206t-110.5 -161t-139.5 -105.5t-163 -37.5q-18 0 -42.5 2t-48 7t-45 12t-34.5 18z" />
<glyph unicode="&#x437;" horiz-adv-x="991" d="M25 82l57 211h131l-39 -148q16 -23 63.5 -39t114.5 -16q55 0 109.5 15.5t97.5 45t69.5 73.5t26.5 102q0 88 -46 122.5t-130 45.5h-145v110h119q61 18 105 47t74 64t44 71.5t14 69.5q0 66 -44 97.5t-154 31.5q-43 0 -85 -13.5t-81 -29.5l-47 -154h-132l54 216 q63 41 144 66.5t216 25.5q74 0 136.5 -12.5t108.5 -38t71.5 -63.5t25.5 -89q0 -203 -303 -307q70 0 121 -19.5t84 -50.5t48 -69.5t15 -77.5q0 -80 -34.5 -151t-101 -124t-160 -83.5t-210.5 -30.5q-94 0 -188 25.5t-149 76.5z" />
<glyph unicode="&#x438;" d="M119 176q0 29 5 75t17 105l129 609h-141v110h369l-142 -612q-12 -53 -24.5 -113.5t-12.5 -118.5q0 -61 27 -90.5t70 -29.5q70 0 132 32.5t112.5 76.5t84 91t50.5 78l137 686h194l-186 -964h166v-111h-377l43 242h-8q-31 -43 -76 -89.5t-101.5 -84t-123 -63t-139.5 -25.5 q-94 0 -149.5 50t-55.5 146z" />
<glyph unicode="&#x439;" d="M119 176q0 29 5 75t17 105l129 609h-141v110h369l-142 -612q-12 -53 -24.5 -113.5t-12.5 -118.5q0 -61 27 -90.5t70 -29.5q70 0 132 32.5t112.5 76.5t84 91t50.5 78l137 686h194l-186 -964h166v-111h-377l43 242h-8q-31 -43 -76 -89.5t-101.5 -84t-123 -63t-139.5 -25.5 q-94 0 -149.5 50t-55.5 146zM393 1413v119h234v-141q27 -18 53.5 -25.5t79.5 -7.5q43 0 88 11t84 32.5t68.5 54.5t44.5 76h114q-27 -135 -144.5 -211t-287.5 -76q-154 0 -231.5 50.5t-102.5 117.5z" />
<glyph unicode="&#x43a;" horiz-adv-x="1157" d="M94 0l199 965h-160v110h387l-104 -483h67l369 301v182h272v-110l-473 -353l301 -501h117v-111h-305l-283 510h-82l-102 -510h-203z" />
<glyph unicode="&#x43b;" horiz-adv-x="1167" d="M-51 0v197h213q51 61 95 151t81 192.5t66.5 212t52.5 212.5h-160v110h766l-205 -964h174v-111h-198h-191l207 965h-272q-29 -115 -67 -252.5t-90 -271.5t-117.5 -250.5t-147.5 -190.5h-207z" />
<glyph unicode="&#x43c;" horiz-adv-x="1603" d="M-45 0v197h203q37 45 73.5 132t69.5 194.5t60.5 223t46.5 218.5h-132v110h441l51 -799h8l443 799h282l-203 -964h170v-111h-194h-189l211 965h-14l-477 -854h-213l-49 854h-25q-20 -111 -51 -248t-74 -272.5t-100 -253t-127 -191.5h-211z" />
<glyph unicode="&#x43d;" horiz-adv-x="1249" d="M96 0l203 965h-143v110h370l-104 -475h432l98 475h195l-201 -964h168v-111h-381l98 489h-430l-108 -489h-197z" />
<glyph unicode="&#x43e;" horiz-adv-x="1155" d="M90 399q0 115 38 239t114.5 224.5t192.5 167t272 66.5q178 0 268 -104.5t90 -305.5q0 -141 -43 -268t-121 -223.5t-186.5 -155.5t-241.5 -59q-174 0 -278.5 107t-104.5 312zM303 350q0 -119 56.5 -196.5t154.5 -77.5q78 0 140.5 57t106.5 146.5t67.5 204t23.5 235.5 q0 127 -46 203.5t-144 76.5q-72 0 -127.5 -30.5t-94.5 -82.5t-65.5 -119t-43 -139.5t-22.5 -143t-6 -134.5z" />
<glyph unicode="&#x43f;" horiz-adv-x="1249" d="M94 0l203 965h-141v110h364l-47 -213h10q86 104 192.5 169t229.5 65q111 0 159 -54.5t48 -140.5q0 -47 -11 -118.5t-28 -133.5l-129 -538h168v-111h-178h-201l137 612q16 66 28.5 124.5t12.5 113.5q0 47 -24.5 81t-73.5 34q-61 0 -117.5 -25t-103.5 -60.5t-83 -74.5 t-56 -68l-160 -737h-199z" />
<glyph unicode="&#x440;" horiz-adv-x="1226" d="M0 -410l309 1375h-139v110h362l-53 -211h8q33 45 74 87t91 75t108.5 51.5t126.5 18.5q115 0 188.5 -77t73.5 -245q0 -156 -51 -299t-140.5 -253.5t-209 -176t-256.5 -65.5q-37 0 -64 2t-47.5 7t-39.5 11t-42 16l-74 -323h156v-103h-381zM324 119q14 -12 29.5 -21.5 t35 -13.5t46 -6t65.5 -2q88 0 166.5 61.5t138 158.5t95.5 218t36 238q0 102 -40 157.5t-118 55.5q-57 0 -109.5 -25t-94.5 -60.5t-72.5 -77.5t-44.5 -79z" />
<glyph unicode="&#x441;" horiz-adv-x="966" d="M90 375q0 160 43 293t126 228t202 147.5t270 52.5q86 0 160 -21.5t104 -56.5l-61 -244h-143l43 184q-16 14 -54.5 20.5t-68.5 6.5q-92 0 -167 -40t-129.5 -111.5t-83 -173t-28.5 -226.5q0 -147 67.5 -232t178.5 -85q92 0 162.5 40t113.5 99l68 -53 q-57 -106 -163.5 -164.5t-262.5 -58.5q-88 0 -157.5 31.5t-119 85t-75 126t-25.5 152.5z" />
<glyph unicode="&#x442;" horiz-adv-x="1808" d="M94 0l211 965h-139v110h366l-45 -178h9q25 29 61.5 63.5t83.5 64.5t105.5 50.5t125.5 20.5q82 0 133.5 -46t51.5 -161q98 94 198.5 150.5t217.5 56.5q199 0 198 -207q0 -55 -11 -114.5t-32 -129.5l-151 -534h170v-111h-390l173 645q14 53 27 109.5t13 91.5q0 53 -25.5 86 t-90.5 33q-35 0 -78 -18.5t-85 -46.5t-78 -62.5t-54 -67.5l-189 -770h-188l141 604q16 66 27.5 128.5t11.5 127.5q0 47 -18.5 76t-63.5 29t-89 -16.5t-84 -43t-73.5 -61.5t-62.5 -74l-176 -770h-201z" />
<glyph unicode="&#x443;" horiz-adv-x="1040" d="M72 965v110h305l160 -852v-112h16l55 106q35 76 72 162t72.5 172t66.5 169t51 157l-57 198h252v-110q-33 -90 -81 -210t-105.5 -250t-123 -265.5t-132 -257t-133 -224t-125.5 -168.5h-236v197h227q29 35 58.5 80t58.5 133h-100l-176 965h-125z" />
<glyph unicode="&#x444;" horiz-adv-x="1589" d="M90 272q0 186 46 339t122 260.5t175 166t208 58.5q51 0 92 -14.5t70 -37.5l69 381h-149v111h356l-110 -571q37 49 113.5 90t181.5 41q49 0 92 -15.5t74.5 -51.5t50 -93t18.5 -141q0 -186 -46 -337t-123 -257.5t-177 -165t-207 -58.5q-66 0 -104.5 24t-55.5 52l-77 -360 h155v-103h-366l123 535q-55 -66 -122 -107t-171 -41q-49 0 -92 14.5t-76 49.5t-51.5 91t-18.5 140zM291 279q0 -104 34 -147.5t91 -43.5q27 0 57.5 10.5t61 28.5t57 42t45.5 52l145 746q-25 16 -54.5 24t-80.5 8q-76 0 -141.5 -62.5t-112.5 -163.5t-74.5 -231t-27.5 -263z M801 117q35 -43 137 -43q76 0 142.5 62.5t114.5 163.5t75.5 230t27.5 263q0 104 -34.5 148t-89.5 44q-78 0 -134.5 -36t-91.5 -83z" />
<glyph unicode="&#x445;" horiz-adv-x="1028" d="M-10 0v111l432 434l-156 420h-139v110h319l136 -424l219 238l-17 186h238v-110l-412 -410l172 -444h136v-111h-318l-147 457l-232 -273l33 -184h-264z" />
<glyph unicode="&#x446;" horiz-adv-x="1230" d="M119 176q0 29 5 75t17 105l129 609h-141v110h369l-144 -612q-12 -53 -23.5 -113.5t-11.5 -118.5q0 -61 27 -90.5t70 -29.5q70 0 132 32.5t112.5 76.5t84 91t50.5 78l137 686h194l-186 -964h170v-111q-27 -16 -46.5 -34.5t-33.5 -43.5v-229q-100 -92 -264 -125l-37 78 q39 16 69.5 32.5t65.5 42.5v156q20 37 59.5 65.5t69.5 47.5v10h-264l43 242h-8q-31 -43 -76 -89.5t-101.5 -84t-123 -63t-139.5 -25.5q-94 0 -149.5 50t-55.5 146z" />
<glyph unicode="&#x447;" horiz-adv-x="1120" d="M66 965v110h368q-47 -184 -81 -306t-34 -208q0 -45 27 -71.5t80 -26.5q37 0 79 13t83 36t77.5 54.5t63.5 68.5l100 440h193l-211 -964h164v-111h-381l113 508h-11q-96 -88 -186 -135t-207 -47q-78 0 -131 45t-53 139q0 39 5 81t16.5 95t26.5 120.5t38 158.5h-139z" />
<glyph unicode="&#x448;" horiz-adv-x="1767" d="M117 186q0 55 11 114.5t28 129.5l131 535h-170v110h389l-150 -645q-12 -53 -23 -109.5t-11 -91.5q0 -53 26.5 -85.5t91.5 -32.5q35 0 75 18t79 46t71.5 62.5t51.5 67.5l172 770h188l-129 -604q-14 -66 -24.5 -128t-10.5 -128q0 -47 22.5 -75.5t63.5 -28.5q45 0 88 17 t83 45t75 63.5t62 74.5l159 764h203l-190 -964h139v-111h-322v197h-8q-27 -37 -63.5 -76t-84.5 -70t-106.5 -51t-126.5 -20q-82 0 -135 46t-53 160q-98 -94 -189.5 -150t-207.5 -56q-205 0 -205 206z" />
<glyph unicode="&#x449;" horiz-adv-x="1769" d="M117 186q0 55 11 114.5t28 129.5l131 535h-170v110h389l-150 -645q-12 -53 -23 -109.5t-11 -91.5q0 -53 26.5 -85.5t91.5 -32.5q35 0 75 18t79 46t71.5 62.5t51.5 67.5l172 770h188l-129 -604q-14 -66 -24.5 -128t-10.5 -128q0 -47 22.5 -75.5t63.5 -28.5q45 0 88 17 t83 45t75 63.5t62 74.5l159 764h203l-190 -964h170v-111q-27 -16 -46.5 -34.5t-33.5 -43.5v-229q-100 -92 -264 -125l-37 78q39 16 69.5 32.5t65.5 42.5v156q20 37 59 65.5t70 47.5v10h-236v197h-8q-27 -37 -63.5 -76t-84.5 -70t-106.5 -51t-126.5 -20q-82 0 -135 46 t-53 160q-98 -94 -189.5 -150t-207.5 -56q-205 0 -205 206z" />
<glyph unicode="&#x44a;" horiz-adv-x="1058" d="M47 764l47 311h649v-110q-82 -57 -161.5 -148.5t-155.5 -249.5h8q68 51 150 84t188 33q35 0 73 -12.5t68.5 -38t51 -65.5t20.5 -97q0 -98 -47 -187t-124 -157t-175 -107.5t-201 -39.5q-53 0 -105 14t-95 48t-70 89t-27 137q0 84 38 176.5t96.5 180.5t131 166.5 t140.5 136.5h-330l-53 -164h-117zM342 258q0 -78 37 -130t106 -52q61 0 116.5 28.5t95.5 76.5t63.5 108.5t23.5 124.5q0 37 -14 62.5t-35.5 40.5t-46 22.5t-45.5 7.5q-78 0 -153.5 -29t-110.5 -76q-23 -59 -30 -101t-7 -83z" />
<glyph unicode="&#x44b;" horiz-adv-x="1521" d="M117 213q0 70 20.5 161t52 190.5t68.5 202.5t70 198h-142v110h394q-29 -68 -52.5 -125t-46 -113.5t-46 -119t-48.5 -139.5h10q53 51 126 89t182 38q35 0 71.5 -11.5t67 -37t50 -65.5t19.5 -97q0 -96 -43 -188.5t-117.5 -164t-175 -116.5t-212.5 -45q-51 0 -96.5 13 t-79 41.5t-53 73t-19.5 105.5zM317 225q0 -74 27 -111.5t94 -37.5q61 0 111.5 32.5t87.5 84t56.5 116t19.5 127.5q0 37 -13.5 61.5t-34 40t-44 22.5t-41.5 7q-78 0 -128 -28.5t-85 -69.5q-20 -59 -35 -122.5t-15 -121.5zM977 0l244 1075h200l-219 -964h170v-111h-395z" />
<glyph unicode="&#x44c;" horiz-adv-x="1009" d="M117 213q0 70 21.5 161t53 190.5t68.5 202.5t70 198h-144v110h394q-27 -68 -50.5 -125t-46 -113.5t-45 -119t-47.5 -139.5h8q61 51 150.5 89t198.5 38q35 0 71.5 -11.5t67.5 -37t51 -65.5t20 -97q0 -96 -47 -189.5t-125.5 -165t-182 -115.5t-216.5 -44q-123 0 -196.5 55 t-73.5 178zM317 225q0 -72 39 -110.5t107 -38.5q61 0 114.5 32.5t93.5 84t63.5 116t23.5 127.5q0 37 -14.5 61.5t-35 40t-44 22.5t-43.5 7q-78 0 -147.5 -31.5t-106.5 -66.5q-20 -59 -35 -122.5t-15 -121.5z" />
<glyph unicode="&#x44d;" horiz-adv-x="1050" d="M10 82l60 211h131l-41 -148q16 -23 64 -39t116 -16q63 0 125.5 22.5t116 69.5t93.5 122t58 179h-416v131h433q2 10 2 21.5v21.5q0 55 -13.5 113.5t-44 106t-80 78t-118.5 30.5q-55 0 -100.5 -10t-84.5 -33l-41 -154h-131l49 216q63 41 144.5 66.5t216.5 25.5 q199 0 311.5 -101.5t112.5 -294.5q0 -158 -49.5 -289.5t-133 -227t-197.5 -149.5t-245 -54q-94 0 -188 25.5t-150 76.5z" />
<glyph unicode="&#x44e;" horiz-adv-x="1624" d="M94 0l201 965h-139v110h368l-104 -475h198q25 96 72 185t117 159t162 111t207 41q358 0 358 -404q0 -141 -44 -270t-123 -227.5t-189.5 -156.5t-241.5 -58q-158 0 -250 104t-92 315v44.5t4 45.5h-199l-106 -489h-199zM795 350q0 -125 49 -199.5t131 -74.5q78 0 141.5 56 t109.5 147.5t70.5 208t24.5 237.5q0 127 -45 200.5t-143 73.5q-63 0 -113.5 -30.5t-88.5 -81.5t-63.5 -116.5t-42 -138.5t-23.5 -145.5t-7 -136.5z" />
<glyph unicode="&#x44f;" horiz-adv-x="1157" d="M-45 0v111h111l342 362q-41 8 -85 29.5t-81 54.5t-60.5 76t-23.5 96q0 80 39 146.5t111.5 115.5t179 77t241.5 28q86 0 168 -12.5t145 -30.5l-198 -942h172v-111h-389l92 442h-129l-363 -442h-272zM371 707q0 -80 85 -131.5t224 -51.5h53l105 453q-29 10 -69 16t-87 6 q-66 0 -122 -22.5t-98 -61t-66.5 -92t-24.5 -116.5z" />
<glyph unicode="&#x451;" horiz-adv-x="1026" d="M90 358q0 154 45 289t127 233.5t197.5 157t257.5 58.5q55 0 104 -13.5t86 -40t57.5 -65.5t20.5 -90q0 -147 -155.5 -237.5t-510.5 -114.5q-8 -37 -12 -70t-4 -66q0 -129 66.5 -205.5t195.5 -76.5q41 0 81 12t77 31.5t66.5 44t48.5 47.5l53 -55q-23 -41 -61.5 -80t-92 -70 t-119 -49t-141.5 -18q-176 0 -281.5 99t-105.5 279zM330 1409q0 59 36 95t95 36q57 0 93 -36t36 -95q0 -55 -36 -91t-93 -36q-59 0 -95 36t-36 91zM336 631q217 6 332.5 71.5t115.5 176.5q0 23 -6 44t-21.5 38.5t-41 27.5t-66.5 10q-96 0 -176 -85t-137 -283zM836 1409 q0 59 37 95t94 36q59 0 94 -36t35 -95q0 -55 -35 -91t-94 -36q-57 0 -94 36t-37 91z" />
<glyph unicode="&#x452;" horiz-adv-x="1187" d="M76 0l235 1110h-176l31 104h168l45 211h-148v111h371l-74 -322h396l-27 -104h-391l-72 -315h12q78 80 174.5 136t231.5 56q209 0 209 -246q0 -59 -11.5 -125.5t-27.5 -128.5l-113 -467q-29 -121 -88 -202.5t-124.5 -134t-129 -79t-102.5 -32.5l-33 84q27 12 66 32.5 t78.5 60.5t77.5 104.5t61 160.5l104 437q16 66 28.5 125t12.5 112q0 76 -31.5 119t-97.5 43q-47 0 -92 -13.5t-86 -34t-76 -47t-59 -53.5l-146 -702h-196z" />
<glyph unicode="&#x453;" horiz-adv-x="882" d="M35 205q0 74 42 134t106.5 112.5t138 99.5t138 95t106.5 98.5t42 107.5q0 43 -21.5 78t-74.5 35q-45 0 -88 -17.5t-82 -42t-70.5 -51.5t-52.5 -47l-57 70q18 33 59 71.5t96.5 71.5t120 54.5t131.5 21.5q66 0 115 -16.5t81 -44t48 -63.5t16 -75q0 -80 -42 -143.5 t-106.5 -115.5t-138 -98t-138 -92.5t-106.5 -95.5t-42 -106q0 -55 33 -95t98 -40q55 0 106.5 18t93.5 44t74.5 53.5t53.5 47.5l69 -63q-29 -39 -77 -80t-110 -74.5t-138 -55t-162 -21.5q-53 0 -100 16t-83 46t-57.5 72t-21.5 91zM512 1260l200 276h258v-84l-401 -240z" />
<glyph unicode="&#x454;" horiz-adv-x="966" d="M90 375q0 160 43 293t126 228t202 147.5t270 52.5q86 0 153.5 -17.5t110.5 -60.5l-61 -244h-143l43 184q-23 14 -58 20.5t-65 6.5q-154 0 -258.5 -105.5t-137.5 -287.5h426v-111h-438v-47q0 -147 67.5 -232t178.5 -85q92 0 162.5 40t113.5 99l68 -53 q-57 -106 -163.5 -164.5t-262.5 -58.5q-88 0 -157.5 31.5t-119 85t-75 126t-25.5 152.5z" />
<glyph unicode="&#x455;" horiz-adv-x="964" d="M12 78l78 244h139l-53 -170q23 -23 74 -42.5t125 -19.5q37 0 79 7t76.5 25.5t57 50.5t22.5 81q0 51 -31.5 90t-78.5 75t-103.5 71.5t-103.5 77.5t-79 95.5t-32 124.5q0 76 35 134.5t94.5 96.5t141.5 57.5t174 19.5q43 0 85 -6.5t77.5 -15.5t62.5 -21.5t39 -22.5l-62 -239 h-127l35 167q-16 12 -58 19.5t-73 7.5q-33 0 -70.5 -5t-70.5 -20.5t-54.5 -43t-21.5 -72.5q0 -55 32 -96t81 -76t104.5 -70t104.5 -77t80.5 -96t31.5 -130q0 -78 -41 -137.5t-108.5 -100.5t-156.5 -61t-183 -20q-53 0 -105.5 10t-96.5 25.5t-75.5 33t-44.5 29.5z" />
<glyph unicode="&#x456;" horiz-adv-x="628" d="M86 0l219 965h-149v110h370l-213 -964h168v-111h-395zM293 1407q0 59 42 94t107 35q70 0 110 -35t40 -94t-40 -94t-110 -35q-66 0 -107.5 35t-41.5 94z" />
<glyph unicode="&#x457;" horiz-adv-x="702" d="M125 0l219 965h-149v110h370l-213 -964h168v-111h-395zM158 1405q0 61 33.5 97t87.5 36q57 0 92 -36t35 -97q0 -57 -35 -92t-92 -35q-55 0 -88 35t-33 92zM526 1405q0 61 34 97t89 36q57 0 91 -36t34 -97q0 -57 -33.5 -92t-91.5 -35q-57 0 -90 35t-33 92z" />
<glyph unicode="&#x458;" horiz-adv-x="614" d="M-190 -344q27 12 66.5 33.5t80.5 64.5t80 114t63 183l201 914h-139v110h362l-215 -983q-35 -154 -97 -250t-132 -153.5t-135.5 -82t-102.5 -34.5zM283 1407q0 59 42 94t107 35q70 0 110 -35t40 -94t-40 -94t-110 -35q-66 0 -107.5 35t-41.5 94z" />
<glyph unicode="&#x459;" horiz-adv-x="1587" d="M-51 0v197h213q51 61 95 151t81 192.5t66.5 212t52.5 212.5h-160v110h809q-20 -63 -38.5 -121.5t-36 -118t-33 -122t-29.5 -135.5h8q61 51 150.5 89t197.5 38q35 0 72 -11.5t67.5 -37t51 -65.5t20.5 -97q0 -96 -47 -189.5t-126 -165t-182.5 -115.5t-215.5 -44 q-123 0 -197 55t-74 178q0 70 17.5 163t43 194.5t53.5 204t50 190.5h-280q-29 -115 -67 -252.5t-90 -271.5t-117.5 -250.5t-147.5 -190.5h-207zM895 225q0 -72 39 -110.5t106 -38.5q61 0 114.5 32.5t93.5 84t63.5 116t23.5 127.5q0 37 -14 61.5t-34.5 40t-44 22.5t-44.5 7 q-78 0 -147.5 -31.5t-106.5 -66.5q-20 -59 -34.5 -122.5t-14.5 -121.5z" />
<glyph unicode="&#x45a;" horiz-adv-x="1671" d="M96 0l203 965h-143v110h370l-104 -475h428l102 475h213q-16 -61 -30.5 -119.5t-27.5 -118t-26.5 -123t-27.5 -136.5h8q61 51 150 89t198 38q35 0 72 -11.5t67.5 -37t51 -65.5t20.5 -97q0 -96 -45 -189.5t-122 -165t-179.5 -115.5t-214.5 -44q-123 0 -197 55t-74 178 q0 49 13.5 128t29.5 148h-430l-108 -489h-197zM989 225q0 -72 39 -110.5t107 -38.5q61 0 113 32.5t90 84t59.5 116t21.5 127.5q0 37 -14 61.5t-34.5 40t-44 22.5t-44.5 7q-78 0 -147.5 -31.5t-106.5 -66.5q-20 -59 -29.5 -122.5t-9.5 -121.5z" />
<glyph unicode="&#x45b;" horiz-adv-x="1230" d="M76 0l235 1110h-176l31 104h168l45 211h-148v111h371l-72 -322h394l-27 -104h-389l-70 -315h13q78 80 174 136t231 56q209 0 209 -246q0 -59 -12.5 -125.5t-28.5 -128.5l-104 -376h174v-111h-383l112 451q16 66 28.5 125t12.5 112q0 76 -31.5 119t-97.5 43 q-47 0 -92 -13.5t-86 -34t-76 -47t-59 -53.5l-150 -702h-196z" />
<glyph unicode="&#x45c;" horiz-adv-x="1157" d="M94 0l199 965h-160v110h387l-104 -483h67l369 301v182h272v-110l-473 -353l301 -501h117v-111h-305l-283 510h-82l-102 -510h-203zM648 1260l200 276h258v-84l-401 -240z" />
<glyph unicode="&#x45e;" horiz-adv-x="1040" d="M72 965v110h305l160 -852v-112h16l55 106q35 76 72 162t72.5 172t66.5 169t51 157l-57 198h252v-110q-33 -90 -81 -210t-105.5 -250t-123 -265.5t-132 -257t-133 -224t-125.5 -168.5h-236v197h227q29 35 58.5 80t58.5 133h-100l-176 965h-125zM293 1413v119h234v-141 q27 -18 53.5 -25.5t79.5 -7.5q43 0 88 11t84 32.5t68.5 54.5t44.5 76h114q-27 -135 -144.5 -211t-287.5 -76q-154 0 -231.5 50.5t-102.5 117.5z" />
<glyph unicode="&#x45f;" d="M119 176q0 29 5 75t17 105l129 609h-141v110h369l-142 -612q-12 -53 -24.5 -113.5t-12.5 -118.5q0 -61 27 -90.5t70 -29.5q70 0 132 32.5t112.5 76.5t84 91t50.5 78l137 686h194l-186 -964h166v-111h-377l43 242h-8q-31 -43 -76 -89.5t-101.5 -84t-123 -63t-139.5 -25.5 q-94 0 -149.5 50t-55.5 146zM319 -354q72 33 113 67v176q41 41 96.5 68t108.5 41l39 -55q-20 -14 -40 -27.5t-40 -32.5v-176q-16 -23 -46 -44t-63.5 -37.5t-68.5 -30t-64 -21.5z" />
<glyph unicode="&#x462;" horiz-adv-x="1626" d="M123 862l84 402h491l23 98h-186l24 115h621l-25 -115h-205l-22 -98h577l-69 -332h-131l36 172l-30 45h-406l-71 -338q41 6 102 10t108 4q115 0 210.5 -17t163 -57t104.5 -103.5t37 -155.5q0 -141 -66 -237.5t-169 -154t-233 -82t-260 -24.5q-10 0 -34.5 1t-57 2t-70.5 2 t-75 1h-350l24 115h187l221 1034h-320l-51 -45l-51 -242h-131zM686 119q12 -4 34.5 -5t46.5 -3t45.5 -2h35.5q100 0 184 25.5t144.5 74.5t93.5 119.5t33 160.5q0 47 -15.5 87t-53.5 70t-102.5 47.5t-162.5 17.5q-57 0 -91 -3t-69 -10z" />
<glyph unicode="&#x463;" horiz-adv-x="1544" d="M94 0l211 965h-139v110h366l-63 -229h8q31 45 70 89t87 80t106.5 58.5t125.5 22.5q27 0 54.5 -7.5t49 -27t35 -52t13.5 -81.5q0 -35 -10.5 -78t-24.5 -91t-32.5 -98.5t-32.5 -97.5h8q61 72 154.5 107t203.5 35q35 0 72 -11.5t67.5 -37t50 -65.5t19.5 -97 q0 -96 -47 -189.5t-126 -167.5t-182.5 -119t-215.5 -45q-123 0 -196 55.5t-73 159.5q0 43 12.5 103.5t31 127t40 136.5t40 131.5t30.5 109.5t12 72q0 96 -65 97q-43 0 -85 -19.5t-81 -50.5t-73 -69t-58 -74l-160 -752h-203zM844 199q0 -53 42 -91t109 -38q61 0 114.5 33.5 t94.5 86t64.5 118t23.5 128.5q0 37 -14 61.5t-34.5 40t-44 22.5t-44.5 7q-76 0 -139.5 -26.5t-106.5 -67.5q-23 -59 -44 -134t-21 -140z" />
<glyph unicode="&#x472;" horiz-adv-x="1679" d="M156 580q0 166 52 324.5t159.5 281.5t271.5 197.5t385 74.5q137 0 252 -40t195.5 -115.5t125.5 -182t45 -237.5q0 -164 -45 -327t-145 -292t-258 -209t-381 -80q-121 0 -237.5 35t-211 109t-151.5 187.5t-57 273.5zM412 578q0 -131 35.5 -223.5t94 -151t134.5 -86 t153 -27.5q129 0 223.5 49t159 130t103.5 185.5t55 217.5q-74 -57 -146.5 -82t-125.5 -25q-61 0 -116.5 22.5t-109 48.5t-107.5 48.5t-112 22.5q-47 0 -111.5 -14.5t-129.5 -61.5v-53zM420 717q63 53 124.5 87t117.5 50q49 14 98 14q59 -2 112.5 -23.5t104.5 -47t102.5 -47 t110.5 -21.5q35 0 88 4t102 27q6 61 6 121q0 227 -108.5 344.5t-304.5 117.5q-129 0 -225.5 -52t-165 -139t-108.5 -199.5t-54 -235.5z" />
<glyph unicode="&#x473;" horiz-adv-x="1155" d="M90 399q0 115 38 238t114.5 225.5t192.5 168t272 65.5q358 0 358 -404q0 -141 -43 -270t-121 -227.5t-186.5 -156.5t-241.5 -58q-174 0 -278.5 104t-104.5 315zM303 350q0 -125 56.5 -199.5t154.5 -74.5q61 0 113.5 34.5t92.5 95t68.5 141.5t45.5 173q-55 -37 -103.5 -51 t-89.5 -14q-37 0 -66.5 12t-56 26.5t-52 26.5t-54.5 12q-45 0 -103 -32q-6 -80 -6 -150zM324 588q59 37 110 50t86 13q37 0 65.5 -11t53.5 -25.5t50.5 -25.5t55.5 -11q41 0 101 26q6 61 6 121q0 127 -46 200.5t-144 73.5q-80 0 -137.5 -34.5t-97.5 -93t-65.5 -132 t-37.5 -151.5z" />
<glyph unicode="&#x474;" horiz-adv-x="1554" d="M184 1319l25 115h618l-24 -115h-197l166 -957l19 -194h8l102 199l586 1067h305l-55 -258h-230l-667 -1176h-228l-252 1319h-176z" />
<glyph unicode="&#x475;" horiz-adv-x="1095" d="M35 965v110h332l112 -831l6 -133h15l47 145q49 113 100 225.5t103.5 219t106.5 201.5t110 173h247q23 -35 23 -98q0 -29 -6 -57.5t-17 -45.5h-219q-123 -193 -229.5 -417t-204.5 -457h-244l-141 965h-141z" />
<glyph unicode="&#x48a;" horiz-adv-x="1687" d="M-43 0l23 115h186l256 1204h-186l24 115h588l-25 -115h-172l-186 -879l-57 -153l137 166l854 821l8 45h-186l24 115h590l-25 -115h-186l-256 -1204h221v-115q-47 -82 -112.5 -149.5t-142.5 -121t-164 -92t-175 -63.5l-41 86q137 55 243 140t165 200h-422l25 115h174 l186 876l55 154l-127 -158l-864 -831l-8 -41h186l-24 -115h-586zM670 1802h258v-139q14 -16 50 -22.5t64 -6.5q45 0 93.5 6.5t91.5 24.5t78.5 51t56.5 86h125q-16 -61 -51 -112.5t-90.5 -89t-132.5 -58t-179 -20.5q-190 0 -277 68.5t-87 211.5z" />
<glyph unicode="&#x48b;" d="M119 176q0 29 5 75t17 105l129 609h-141v110h369l-142 -612q-12 -53 -24.5 -113.5t-12.5 -118.5q0 -61 27 -90.5t70 -29.5q70 0 132 32.5t112.5 76.5t84 91t50.5 78l137 686h194l-186 -964h223v-109q-29 -70 -71.5 -136.5t-104 -123.5t-141.5 -100t-180 -66l-33 90 q121 41 211 125t133 209h-248l43 242h-8q-31 -43 -76 -89.5t-101.5 -84t-123 -63t-139.5 -25.5q-94 0 -149.5 50t-55.5 146zM412 1413v119h233v-141q27 -18 53.5 -25.5t79.5 -7.5q43 0 88 11t84 32.5t69 54.5t44 76h115q-27 -135 -145 -211t-288 -76q-154 0 -231.5 50.5 t-101.5 117.5z" />
<glyph unicode="&#x48c;" horiz-adv-x="1417" d="M33 0l20 115h187l198 938h-299l25 114h299l33 152h-187l25 115h620l-24 -115h-205l-33 -152h445l-25 -114h-444l-41 -199q43 8 103.5 11t107.5 3q115 0 209 -19.5t161.5 -61.5t104.5 -107.5t37 -157.5q0 -131 -54.5 -230t-150.5 -165t-232.5 -99.5t-298.5 -33.5 q-10 0 -43.5 1t-75.5 2t-88.5 2t-80.5 1h-293zM471 119q12 -2 33.5 -4t45 -3t46 -2t35.5 -1q82 0 164 20.5t148.5 68.5t108.5 124.5t42 187.5q0 51 -15.5 96t-53.5 78t-101.5 51.5t-161.5 18.5q-55 0 -92 -4.5t-68 -8.5z" />
<glyph unicode="&#x48d;" horiz-adv-x="1011" d="M78 965l28 110h191l86 350h-141v111h372l-116 -461h374l-28 -110h-373l-92 -416h8q63 66 158.5 111t202.5 45q35 0 72.5 -11.5t68.5 -37t51.5 -65.5t20.5 -97q0 -96 -47.5 -189.5t-127 -165t-183 -115.5t-216.5 -44q-123 0 -195.5 55t-72.5 178q0 35 9 103.5t30 158.5 l110 490h-190zM319 225q0 -72 37 -110.5t105 -38.5q61 0 114.5 32.5t92.5 84t61.5 116t22.5 127.5q0 37 -12.5 61.5t-32 40t-42 22.5t-42.5 7q-78 0 -149.5 -30.5t-106.5 -77.5q-20 -59 -34 -117.5t-14 -116.5z" />
<glyph unicode="&#x48e;" horiz-adv-x="1345" d="M-43 0l23 115h186l256 1204h-186l24 115h229q92 0 195.5 8t204.5 8q113 0 206 -20.5t158.5 -63.5t102.5 -109.5t37 -158.5q0 -190 -100.5 -314.5t-272.5 -183.5l80 -160l-101 -51l-90 180q-53 -10 -111.5 -15t-117.5 -5h-38t-54.5 1t-56 3t-42.5 4l-94 -442h205l-25 -115 h-618zM514 674q10 -4 29.5 -5t42 -3t44 -2h34.5q49 0 96 6t90 20l-102 207l100 49l104 -213q84 49 134.5 135t50.5 215q0 115 -78 183.5t-258 68.5q-55 0 -88 -4t-62 -8z" />
<glyph unicode="&#x48f;" horiz-adv-x="1226" d="M0 -410l309 1375h-139v110h362l-53 -211h8q33 45 74 87t91 75t108.5 51.5t126.5 18.5q115 0 188.5 -77t73.5 -245q0 -205 -84 -381t-225 -287l149 -198l-98 -66l-148 201q-121 -63 -251 -63q-37 0 -64 2t-47.5 7t-39.5 11t-42 16l-74 -323h156v-103h-381zM324 119 q14 -12 29.5 -21.5t35 -13.5t46 -6t65.5 -2q45 0 88 17.5t84 47.5l-144 197l93 63l131 -178q41 51 74.5 113.5t58 131.5t38 140.5t13.5 143.5q0 102 -40 157.5t-118 55.5q-57 0 -109.5 -25t-94.5 -60.5t-72.5 -77.5t-44.5 -79z" />
<glyph unicode="&#x490;" horiz-adv-x="1048" d="M-43 0l25 115h184l256 1204h-186l24 115h807l51 45l49 235h131l-84 -395h-563l-256 -1204h221l-24 -115h-635z" />
<glyph unicode="&#x491;" horiz-adv-x="935" d="M96 0l217 965h-135v110h645l121 250h100l-57 -360h-463l-217 -965h-211z" />
<glyph unicode="&#x492;" horiz-adv-x="1183" d="M-23 0l25 115h186l119 557h-205l25 114h205l112 533h-186l25 115h1050l-90 -424h-147l57 264l-33 45h-446l-113 -533h342l-24 -114h-342l-119 -557h221l-25 -115h-637z" />
<glyph unicode="&#x493;" horiz-adv-x="1060" d="M51 434l29 111h184l92 420h-149l20 110h834l-76 -358h-131l39 207l-25 41h-317l-94 -420h321l-28 -111h-318l-94 -434h-197l99 434h-189z" />
<glyph unicode="&#x494;" horiz-adv-x="1392" d="M-43 0l25 115h186l256 1204h-186l24 115h1051l-90 -424h-148l55 264l-30 45h-447l-121 -567q68 33 163.5 62.5t222.5 29.5q199 0 285.5 -84t86.5 -266q0 -178 -53 -337t-148.5 -280t-230.5 -196.5t-297 -88.5l-18 86q137 47 234 136.5t156.5 201t87.5 234.5t28 237 q0 133 -48.5 187.5t-171.5 54.5q-90 0 -169.5 -25.5t-149.5 -58.5l-113 -530h211l-24 -115h-627z" />
<glyph unicode="&#x495;" horiz-adv-x="1101" d="M104 0l215 965h-145l21 110h833l-76 -358h-131l39 207l-24 41h-318l-112 -504q68 57 147.5 92t177.5 35q55 0 101.5 -19.5t80 -53.5t52 -78t18.5 -95q0 -115 -35 -238.5t-107.5 -232.5t-183 -191.5t-260.5 -115.5l-39 94q96 41 175 109.5t134.5 153.5t85 180.5 t29.5 187.5q0 31 -11 60.5t-29.5 52t-44 36t-56.5 13.5q-84 0 -139.5 -21.5t-114.5 -67.5l-80 -362h-203z" />
<glyph unicode="&#x496;" horiz-adv-x="2191" d="M-94 0l24 115h121q184 184 328 329q61 61 120.5 121t105.5 107t75 76l29 28l-336 543h-160l25 115h495l-24 -115h-154l293 -537h160l114 537h-157l24 115h537l-25 -115h-158l-114 -537h153l502 537h-164l25 115h530l-24 -115h-174l-561 -549l413 -655h162l-96 -447h-142 l62 287l-31 45h-151l-377 680h-148l-121 -565h158l-24 -115h-537l25 115h157l121 565h-143l-613 -680h-325z" />
<glyph unicode="&#x497;" horiz-adv-x="1787" d="M-31 27v225h131v-152q6 -2 21 -2q57 0 112.5 48.5t99.5 132t71.5 197.5t27.5 247q0 123 -26.5 175t-86.5 52q-35 0 -77.5 -23.5t-75.5 -52.5l-47 74q59 72 136 105.5t163 33.5q51 0 92 -22.5t67.5 -62t41 -92t14.5 -109.5q0 -51 -5 -103.5t-16 -103.5h207l101 481h188 l-104 -481h204q61 233 190.5 363t295.5 130q35 0 63.5 -5t54.5 -21v-230h-131v146h-12q-55 0 -109.5 -46t-97.5 -128t-69.5 -198t-26.5 -253q0 -117 36 -172t95 -55q37 0 81 13.5t75 33.5l41 -98q-27 -16 -57.5 -62.5t-47.5 -89.5v-229q-100 -92 -264 -125l-37 78 q39 16 70 32.5t65 42.5v156q20 37 59.5 73t69.5 54v8q-37 -10 -74.5 -17t-70.5 -7q-66 0 -112 23.5t-74.5 63.5t-42 95t-13.5 119q0 43 4.5 98t14.5 111h-199l-108 -498h-187l107 498h-207q-31 -113 -79 -206t-110.5 -161t-139.5 -105.5t-163 -37.5q-37 0 -70.5 9t-58.5 30z " />
<glyph unicode="&#x498;" horiz-adv-x="1261" d="M39 102q0 4 11 57.5t26 116.5l37 168h131l-51 -247l22 -39q45 -29 112.5 -48.5t133.5 -19.5q205 0 319.5 103.5t114.5 271.5q0 109 -73.5 158t-209.5 49h-182l29 131h266q129 39 199.5 131t70.5 203q0 39 -12 76.5t-42 66.5t-80 46t-126 17q-35 0 -71.5 -3t-70.5 -9 t-61.5 -13t-42.5 -15l-34 -39l-43 -203h-131l67 313q43 23 96.5 38t108.5 25.5t111.5 15.5t105.5 5q94 0 178 -16.5t147.5 -53t100.5 -96t37 -143.5q0 -55 -20.5 -113.5t-63.5 -111t-110.5 -95.5t-164.5 -63v-8q47 -10 93.5 -30.5t83 -55.5t59.5 -85t23 -118 q0 -119 -48.5 -208t-128 -150.5t-183 -94t-214.5 -41.5l-139 -385h-103l31 390q-121 16 -200.5 54t-108.5 68z" />
<glyph unicode="&#x499;" horiz-adv-x="991" d="M25 82l57 211h131l-39 -148q16 -23 63.5 -39t114.5 -16q55 0 109.5 15.5t97.5 45t69.5 73.5t26.5 102q0 88 -46 122.5t-130 45.5h-145v110h119q61 18 105 47t74 64t44 71.5t14 69.5q0 66 -44 97.5t-154 31.5q-43 0 -85 -13.5t-81 -29.5l-47 -154h-132l54 216 q63 41 144 66.5t216 25.5q74 0 136.5 -12.5t108.5 -38t71.5 -63.5t25.5 -89q0 -203 -303 -307q70 0 121 -19.5t84 -50.5t48 -69.5t15 -77.5q0 -68 -25.5 -128.5t-72.5 -110.5t-116.5 -86t-155.5 -52q-18 -14 -33.5 -32.5t-26.5 -35.5v-217q-16 -23 -46 -44t-63.5 -37.5 t-68.5 -30t-63 -21.5l-35 72q72 33 112 67v176q20 25 49 48.5t60 42.5h-21q-94 0 -188 25.5t-149 76.5z" />
<glyph unicode="&#x49a;" horiz-adv-x="1437" d="M-43 0l23 115h186l256 1204h-186l24 115h586l-25 -115h-170l-114 -537h125l550 537h-165l24 115h518l-24 -115h-162l-594 -541l420 -663h160l-97 -447h-141l61 287l-30 45h-156l-387 680h-123l-121 -565h170l-24 -115h-584z" />
<glyph unicode="&#x49b;" horiz-adv-x="1187" d="M94 0l199 965h-160v110h387l-104 -483h67l369 301v182h272v-110l-473 -353l301 -501h170v-111q-27 -16 -46 -34.5t-34 -43.5v-229q-100 -92 -264 -125l-37 78q39 16 70 32.5t66 42.5v156q20 37 59 65.5t70 47.5v10h-242l-283 510h-82l-102 -510h-203z" />
<glyph unicode="&#x49c;" horiz-adv-x="1613" d="M-43 0l23 115h186l256 1204h-186l24 115h586l-25 -115h-170l-114 -537h157l68 312h127l-68 -312h19l549 537h-166l24 115h518l-24 -115h-162l-600 -549l426 -655h129l-25 -115h-307l-399 680h-2l-66 -307h-127l66 307h-158l-121 -565h170l-24 -115h-584z" />
<glyph unicode="&#x49d;" horiz-adv-x="1292" d="M94 0l199 965h-160v110h387l-104 -483h133l63 280h109l-64 -280h52l286 301v182h252v-110l-370 -353l198 -501h117v-111h-305l-180 510h-68l-61 -268h-107l59 268h-131l-102 -510h-203z" />
<glyph unicode="&#x49e;" horiz-adv-x="1458" d="M-23 0l23 115h186l205 968h-280l22 111h283l26 125h-186l25 115h585l-24 -115h-170l-27 -125h248l-23 -111h-249l-64 -301h133l549 537h-166l25 115h512l-25 -115h-162l-594 -541l420 -663h129l-24 -115h-307l-388 680h-122l-121 -565h170l-25 -115h-584z" />
<glyph unicode="&#x49f;" horiz-adv-x="1091" d="M76 0l254 1212h-195l31 105h186l23 108h-150v111h369l-45 -219h375l-27 -105h-371l-127 -620h66l326 326v157h272v-86l-432 -377l278 -501h119v-111h-297l-270 510h-80l-105 -510h-200z" />
<glyph unicode="&#x4a0;" horiz-adv-x="1720" d="M147 1010l91 424h890l-24 -115h-170l-115 -537h125l551 537h-166l25 115h518l-25 -115h-161l-594 -541l419 -663h129l-24 -115h-307l-387 680h-123l-121 -565h170l-25 -115h-583l22 115h187l256 1204h-320l-49 -45l-57 -264h-132z" />
<glyph unicode="&#x4a1;" horiz-adv-x="1275" d="M27 764l47 311h565l-104 -483h67l369 301v182h272v-110l-473 -353l301 -501h117v-111h-305l-283 510h-82l-102 -510h-203l201 965h-217l-45 -201h-125z" />
<glyph unicode="&#x4a2;" horiz-adv-x="1658" d="M-43 0l23 115h186l256 1204h-186l24 115h586l-25 -115h-170l-110 -526h716l111 526h-170l25 115h585l-24 -115h-187l-256 -1204h228l-96 -447h-142l62 287l-31 45h-444l24 115h170l121 563h-717l-121 -563h170l-24 -115h-584z" />
<glyph unicode="&#x4a3;" horiz-adv-x="1253" d="M96 0l203 965h-143v110h370l-104 -475h432l98 475h195l-201 -964h170v-111q-27 -16 -46 -34.5t-34 -43.5v-229q-100 -92 -264 -125l-37 78q39 16 70 32.5t65 42.5v156q20 37 59.5 65.5t69.5 47.5v10h-266l98 489h-430l-108 -489h-197z" />
<glyph unicode="&#x4a4;" horiz-adv-x="2066" d="M-43 0l23 115h186l256 1204h-186l24 115h586l-25 -115h-170l-110 -526h716l111 526h-170l25 115h1034l-90 -424h-148l58 264l-33 45h-447l-256 -1204h222l-25 -115h-637l25 115h186l121 563h-717l-121 -563h170l-24 -115h-584z" />
<glyph unicode="&#x4a5;" horiz-adv-x="1568" d="M96 0l203 965h-143v110h370l-104 -475h432l98 475h615l-76 -358h-131l39 207l-25 41h-250l-178 -854h168v-111h-381l98 489h-430l-108 -489h-197z" />
<glyph unicode="&#x4a6;" horiz-adv-x="2304" d="M-43 0l25 115h186l256 1204h-186l24 115h1524l-25 -115h-186l-121 -567q68 33 163 62.5t222 29.5q199 0 286 -84t87 -266q0 -178 -53.5 -337t-148.5 -280t-230 -196.5t-297 -88.5l-19 86q137 47 234.5 136.5t157 201t87 234.5t27.5 237q0 133 -48 187.5t-171 54.5 q-90 0 -170 -25.5t-149 -58.5l-113 -530h186l-24 -115h-586l25 115h170l256 1204h-693l-256 -1204h170l-24 -115h-586z" />
<glyph unicode="&#x4a7;" horiz-adv-x="1650" d="M94 0l203 965h-141v110h364l-47 -213h10q86 104 192.5 169t229.5 65q111 0 159 -54.5t48 -140.5q0 -47 -12.5 -118.5t-26.5 -133.5l-41 -178q66 53 143.5 85t170.5 32q55 0 101 -19.5t80 -53.5t52 -78t18 -95q0 -115 -34.5 -238.5t-107.5 -232.5t-183.5 -191.5 t-259.5 -115.5l-39 94q96 41 175 109.5t134 153.5t85 180.5t30 187.5q0 31 -11.5 60.5t-30 52t-44 36t-56.5 13.5q-82 0 -135 -20.5t-112 -63.5l-84 -367h-191l137 612q16 66 28.5 124.5t12.5 113.5q0 47 -24.5 81t-73.5 34q-61 0 -117.5 -25t-103.5 -60.5t-83 -74.5 t-56 -68l-160 -737h-199z" />
<glyph unicode="&#x4a8;" horiz-adv-x="1912" d="M156 582q0 164 48 321.5t147.5 280.5t251 198.5t355.5 75.5q70 0 129.5 -16.5t94.5 -42.5l-58 -82q-20 14 -53 20t-67 6q-164 0 -277 -69.5t-182.5 -179t-101 -243.5t-31.5 -265q0 -84 21.5 -171t73.5 -160t140 -119t221 -46q88 0 160 23q-53 35 -102 85t-86 115.5 t-59.5 145.5t-22.5 174q0 131 36.5 259t114.5 228.5t200 163t292 62.5q104 0 191 -31t149.5 -87.5t98.5 -135t36 -174.5q0 -127 -37 -250t-109.5 -229.5t-182 -189.5t-255.5 -130q20 -10 56 -19.5t73 -9.5q82 0 144.5 23.5t124.5 64.5l34 -110q-72 -51 -148.5 -72 t-195.5 -21q-39 0 -77.5 7.5t-72.5 19.5t-62.5 26.5t-47.5 26.5q-23 -12 -58.5 -26.5t-81.5 -26.5t-97.5 -19.5t-102.5 -7.5q-186 0 -307 59.5t-191.5 149.5t-98 196.5t-27.5 201.5zM1014 612q0 -68 15 -134t40 -124.5t55.5 -106.5t63.5 -79q129 76 213 169t133 194.5 t67.5 206t18.5 202.5q0 51 -11.5 102.5t-39 93.5t-71.5 68.5t-112 26.5q-98 0 -167.5 -52.5t-115.5 -138.5t-67.5 -197.5t-21.5 -230.5z" />
<glyph unicode="&#x4a9;" horiz-adv-x="1490" d="M90 424q0 152 55.5 275.5t147.5 211.5t213 136.5t250 48.5v-97q-80 -2 -161 -41.5t-147.5 -112.5t-107.5 -178.5t-41 -240.5q0 -61 18.5 -123.5t60.5 -113t109.5 -82t163.5 -31.5q31 0 73 3t60 9q-111 35 -178 129t-67 217q0 125 51 226.5t133 173t180 109.5t195 38 q135 0 219 -78t84 -239q0 -113 -45 -210.5t-110.5 -172t-140.5 -125t-134 -68.5q29 -10 65.5 -14t73.5 -4q59 0 96 14t70 41l35 -72q-23 -41 -84.5 -57t-126.5 -16q-66 0 -133.5 13t-100.5 42q-61 -27 -135 -41t-117 -14q-131 0 -229 32.5t-163.5 92t-98.5 141.5t-33 178z M739 399q0 -96 37 -166.5t103 -103.5q45 20 99 70.5t102 124t80 171t32 212.5q0 86 -35 132t-113 46q-53 0 -107 -38t-98 -103.5t-72 -155t-28 -189.5z" />
<glyph unicode="&#x4aa;" horiz-adv-x="1409" d="M156 516q0 205 61.5 378t176 299t279.5 195.5t374 69.5q150 0 242.5 -21.5t164.5 -56.5l-76 -350h-131l47 215l-20 41q-23 10 -76 25.5t-160 15.5q-139 0 -253.5 -57.5t-197.5 -163t-129 -253.5t-46 -331q0 -88 23.5 -163.5t75.5 -132t135 -88.5t200 -32q74 0 134 11.5 t89 29.5l37 39l39 191h131l-68 -322q-61 -33 -155.5 -53t-186.5 -27l-139 -385h-102l30 394q-152 18 -249 69t-152 124t-76.5 161t-21.5 178z" />
<glyph unicode="&#x4ab;" horiz-adv-x="966" d="M90 375q0 160 43 293t126 228t202 147.5t270 52.5q86 0 160 -21.5t104 -56.5l-61 -244h-143l43 184q-16 14 -54.5 20.5t-68.5 6.5q-92 0 -167 -40t-129.5 -111.5t-83 -173t-28.5 -226.5q0 -147 67.5 -231t178.5 -84q92 0 162.5 39t113.5 98l68 -53q-47 -86 -126 -141.5 t-192 -73.5q-16 -14 -31.5 -30.5t-23.5 -33.5v-217q-16 -23 -46 -44t-63.5 -37.5t-68.5 -30t-63 -21.5l-35 72q72 33 112 67v176q20 25 49 48.5t60 42.5q-88 0 -157.5 31.5t-118 86t-74 126t-25.5 151.5z" />
<glyph unicode="&#x4ac;" horiz-adv-x="1409" d="M150 1010l90 424h1339l-90 -424h-148l58 264l-35 45h-365l-256 -1204h228l-97 -447h-141l62 287l-31 45h-485l24 115h211l256 1204h-369l-47 -45l-57 -264h-147z" />
<glyph unicode="&#x4ad;" horiz-adv-x="1810" d="M94 0l211 965h-139v110h366l-45 -178h9q25 29 61.5 63.5t83.5 64.5t105.5 50.5t125.5 20.5q82 0 133.5 -46t51.5 -161q98 94 198.5 150.5t217.5 56.5q199 0 198 -207q0 -55 -11 -114.5t-32 -129.5l-151 -534h170v-111q-27 -16 -46.5 -34.5t-33.5 -43.5v-229 q-100 -92 -264 -125l-37 78q39 16 69.5 32.5t65.5 42.5v156q20 37 59 65.5t70 47.5v10h-273l170 645q14 53 26.5 109.5t12.5 91.5q0 53 -23.5 86t-88.5 33q-35 0 -78 -18.5t-85 -46.5t-78 -62.5t-52 -67.5l-189 -770h-190l141 604q16 66 27.5 128.5t11.5 127.5 q0 47 -18.5 76t-63.5 29t-89 -16.5t-84 -43t-73.5 -61.5t-60.5 -74l-176 -770h-203z" />
<glyph unicode="&#x4ae;" horiz-adv-x="1488" d="M184 1319l25 115h612l-24 -115h-172l233 -606l483 606h-188l25 115h520l-25 -115h-174l-588 -711l-104 -493h170l-25 -115h-585l24 115h187l104 491l-311 713h-187z" />
<glyph unicode="&#x4af;" horiz-adv-x="1011" d="M55 965v110h312l127 -823v-133h12l41 153l291 617l-43 186h235v-110l-489 -965l-56 -307h158v-103h-381l84 410l-172 965h-119z" />
<glyph unicode="&#x4b0;" horiz-adv-x="1488" d="M184 1319l25 115h612l-24 -115h-172l233 -606l483 606h-188l25 115h520l-25 -115h-174l-586 -707h336l-24 -114h-338l-80 -383h170l-25 -115h-585l24 115h187l79 383h-329l24 114h326l-307 707h-187z" />
<glyph unicode="&#x4b1;" horiz-adv-x="1011" d="M55 965v110h312l127 -823v-133h12l41 153l291 617l-43 186h235v-110l-436 -861h256l-27 -104h-282l-56 -307h158v-103h-381l84 410h-285l31 104h236l-154 861h-119z" />
<glyph unicode="&#x4b2;" horiz-adv-x="1527" d="M-88 0l25 115h169l580 606l-303 598h-182l24 115h606l-24 -115h-164l221 -457l402 457h-181l25 115h524l-24 -115h-168l-520 -551l331 -653h187l-97 -447h-141l62 287l-31 45h-410l25 115h149l-252 506l-446 -506h158l-25 -115h-520z" />
<glyph unicode="&#x4b3;" horiz-adv-x="1028" d="M-10 0v111l432 434l-156 420h-139v110h319l136 -424l219 238l-17 186h238v-110l-412 -410l172 -444h170v-111q-27 -16 -46 -34.5t-34 -43.5v-229q-100 -92 -264 -125l-37 78q39 16 70 32.5t66 42.5v156q20 37 59 65.5t70 47.5v10h-236l-147 457l-232 -273l33 -184h-264z " />
<glyph unicode="&#x4b4;" horiz-adv-x="1990" d="M150 1010l90 424h1198l-90 -424h-131l55 264l-31 45h-242l-256 -1204h693l254 1204h-148l27 115h563l-25 -115h-186l-258 -1204h227l-94 -447h-135l61 289l-30 43h-1413l24 115h211l256 1204h-367l-51 -45l-55 -264h-147z" />
<glyph unicode="&#x4b5;" horiz-adv-x="1230" d="M119 176q0 29 5 75t17 105l129 609h-141v110h369l-144 -612q-12 -53 -23.5 -113.5t-11.5 -118.5q0 -61 27 -90.5t70 -29.5q70 0 132 32.5t112.5 76.5t84 91t50.5 78l137 686h194l-186 -964h170v-111q-27 -16 -46.5 -34.5t-33.5 -43.5v-229q-100 -92 -264 -125l-37 78 q39 16 69.5 32.5t65.5 42.5v156q20 37 59.5 65.5t69.5 47.5v10h-264l43 242h-8q-31 -43 -76 -89.5t-101.5 -84t-123 -63t-139.5 -25.5q-94 0 -149.5 50t-55.5 146zM448 1368l25 113h590l-25 -113h-590z" />
<glyph unicode="&#x4b6;" horiz-adv-x="1482" d="M195 1319l24 115h545l-25 -115h-149l-72 -332q-6 -31 -10 -60.5t-4 -56.5q0 -98 52 -155.5t175 -57.5q96 0 185.5 25t160.5 59l123 578h-164l25 115h559l-25 -115h-165l-256 -1204h229l-96 -447h-142l62 287l-31 45h-489l24 115h213l111 520q-70 -35 -176.5 -63.5 t-239.5 -28.5q-166 0 -265.5 74.5t-99.5 234.5q0 29 3.5 62.5t11.5 68.5l71 336h-165z" />
<glyph unicode="&#x4b7;" horiz-adv-x="1120" d="M66 965v110h368q-47 -184 -81 -306t-34 -208q0 -45 27 -71.5t80 -26.5q37 0 79 13t83 36t77.5 54.5t63.5 68.5l100 440h193l-211 -964h170v-111q-27 -16 -46.5 -34.5t-33.5 -43.5v-229q-100 -92 -264 -125l-37 78q39 16 69.5 32.5t65.5 42.5v156q20 37 59.5 65.5 t69.5 47.5v10h-270l113 508h-11q-96 -88 -186 -135t-207 -47q-78 0 -131 45t-53 139q0 39 5 81t16.5 95t26.5 120.5t38 158.5h-139z" />
<glyph unicode="&#x4b8;" horiz-adv-x="1531" d="M195 1319l24 115h545l-25 -115h-149l-72 -332q-12 -55 -12 -104q0 -98 53 -161t178 -65l66 306h115l-64 -299q74 10 146.5 29.5t138.5 47.5l123 578h-164l24 115h559l-24 -115h-166l-256 -1204h166l-25 -115h-608l25 115h213l110 520q-51 -23 -122.5 -46.5t-162.5 -35.5 l-61 -291h-115l60 281h-31q-195 0 -301.5 79.5t-106.5 239.5q0 29 3.5 58.5t11.5 62.5l69 336h-165z" />
<glyph unicode="&#x4b9;" horiz-adv-x="1216" d="M66 965v110h368q-47 -184 -81 -306t-34 -208q0 -45 29 -71.5t94 -26.5q35 0 76 6l72 319h108l-65 -288q59 23 111.5 52.5t80.5 61.5l107 461h192l-211 -964h164v-111h-381l113 508h-10q-39 -37 -88 -68.5t-105 -56.5l-51 -225h-106l40 186q-74 -18 -149 -18 q-104 0 -162.5 45t-58.5 139q0 39 5 81t16.5 95t26.5 120.5t38 158.5h-139z" />
<glyph unicode="&#x4ba;" horiz-adv-x="1470" d="M51 0l25 115h166l256 1204h-166l24 115h609l-25 -115h-213l-111 -520q70 35 176.5 63.5t239.5 28.5q166 0 265.5 -75t99.5 -234q0 -29 -3 -63t-12 -68l-71 -336h166l-25 -115h-545l25 115h149l72 331q6 31 10 61t4 56q0 98 -52 155.5t-175 57.5q-96 0 -185 -24.5 t-161 -59.5l-123 -577h164l-25 -115h-559z" />
<glyph unicode="&#x4bb;" horiz-adv-x="1230" d="M76 0l303 1425h-148v111h371l-145 -633h12q78 80 174 136.5t231 56.5q209 0 209 -246q0 -59 -11 -126t-28 -128l-124 -485h174v-111h-383l129 559q16 66 29.5 125t13.5 113q0 76 -32 118.5t-97 42.5q-47 0 -92.5 -13t-86 -33.5t-75.5 -47t-60 -53.5l-168 -811h-196z" />
<glyph unicode="&#x4bc;" horiz-adv-x="1861" d="M82 948q0 23 3 48.5t7 50.5l29 124h272l-41 -188l-137 -57q14 -78 75.5 -98.5t168.5 -22.5q35 174 114.5 299t189 202.5t242 114.5t271.5 37q145 0 254.5 -36t183.5 -98t111 -149.5t37 -189.5q0 -27 -4.5 -65.5t-10.5 -79.5t-15 -81t-22 -69h-1118q-2 -23 -3 -41t-1 -39 q0 -125 37 -217t101.5 -152.5t149.5 -90t183 -29.5q109 0 222.5 34.5t222.5 102.5l43 -63q-57 -59 -130 -100.5t-151 -68t-154.5 -39t-144.5 -12.5q-145 0 -262 43t-199 123t-126 194t-44 255q0 47 6 100q-180 4 -270 64.5t-90 193.5zM705 805h892q20 57 23.5 113.5 t3.5 76.5q0 70 -20.5 133.5t-63.5 111.5t-110.5 75.5t-159.5 27.5q-213 0 -363.5 -132t-201.5 -406z" />
<glyph unicode="&#x4bd;" horiz-adv-x="1236" d="M47 774q0 86 57 199h197v-189h-139q-2 -8 -2 -15v-13q0 -53 43 -87t135 -38q31 102 86 189t130 147.5t169 95.5t203 35q55 0 104 -13.5t86 -40t57.5 -63.5t20.5 -88q0 -154 -157.5 -244t-512.5 -114q-8 -37 -12 -70t-4 -66q0 -129 68.5 -205.5t197.5 -76.5q41 0 81 12 t77 31.5t66.5 44t48.5 47.5l53 -55q-23 -41 -62 -80t-92 -70t-118.5 -49t-141.5 -18q-176 0 -281.5 99t-105.5 279q0 45 4 88t12 86q-55 2 -104 18.5t-85 47.5t-57.5 76t-21.5 100zM541 631q217 6 334.5 71.5t117.5 182.5q0 23 -6 44t-21.5 38.5t-41 25.5t-66.5 8 q-96 0 -178 -82.5t-139 -287.5z" />
<glyph unicode="&#x4be;" horiz-adv-x="1861" d="M82 948q0 23 3 48.5t7 50.5l29 124h272l-41 -188l-137 -57q14 -78 75.5 -98.5t168.5 -22.5q35 174 114.5 299t189 202.5t242 114.5t271.5 37q145 0 254.5 -36t183.5 -98t111 -149.5t37 -189.5q0 -27 -4.5 -65.5t-10.5 -79.5t-15 -81t-22 -69h-1118q-2 -23 -3 -41t-1 -39 q0 -125 37 -217t101.5 -152.5t149.5 -90t183 -29.5q109 0 222.5 34.5t222.5 102.5l43 -63q-94 -96 -222.5 -150.5t-250.5 -69.5l-142 -385h-102l31 387q-123 14 -220.5 64.5t-165 129.5t-103.5 184.5t-36 232.5q0 49 6 102q-180 4 -270 64.5t-90 193.5zM705 805h892 q20 57 23.5 113.5t3.5 76.5q0 70 -20.5 133.5t-63.5 111.5t-110.5 75.5t-159.5 27.5q-213 0 -363.5 -132t-201.5 -406z" />
<glyph unicode="&#x4bf;" horiz-adv-x="1236" d="M47 774q0 86 57 199h197v-189h-139q-2 -8 -2 -15v-13q0 -53 43 -87t135 -38q31 102 86 189t130 147.5t169 95.5t203 35q55 0 104 -13.5t86 -40t57.5 -65.5t20.5 -86q0 -154 -157.5 -244t-512.5 -114q-8 -37 -12 -70t-4 -66q0 -129 68.5 -205.5t197.5 -76.5q41 0 81 12 t77 31.5t66.5 44t48.5 47.5l53 -55q-35 -70 -117 -128.5t-199 -78.5q-16 -14 -31.5 -31.5t-23.5 -34.5v-217q-16 -23 -46 -44t-63.5 -37.5t-68.5 -30t-64 -21.5l-34 72q72 33 112 67v176q20 25 49 48.5t60 42.5q-172 4 -273.5 103t-101.5 275q0 45 4 88t12 86 q-55 2 -104 18.5t-85 47.5t-57.5 76t-21.5 100zM541 631q217 6 334.5 71.5t117.5 182.5q0 23 -6 42t-21.5 36.5t-41 27.5t-66.5 10q-96 0 -178 -82.5t-139 -287.5z" />
<glyph unicode="&#x4c0;" horiz-adv-x="796" d="M-2 0l25 115h186l256 1204h-186l24 115h602l-24 -115h-187l-256 -1204h187l-25 -115h-602z" />
<glyph unicode="&#x4c3;" horiz-adv-x="1437" d="M-43 0l23 115h186l256 1204h-186l24 115h586l-25 -115h-170l-114 -537h125l550 537h-165l24 115h518l-24 -115h-162l-596 -543q92 -37 178 -98.5t152.5 -142t106.5 -176t40 -197.5q0 -180 -64.5 -295t-164 -181.5t-219 -92t-228.5 -25.5l4 102q86 14 165 48t138.5 89.5 t95.5 135.5t36 186q0 188 -101.5 326.5t-273.5 224.5h-156l-121 -565h170l-22 -115h-586z" />
<glyph unicode="&#x4c4;" horiz-adv-x="1157" d="M94 0l199 965h-160v110h387l-104 -483h67l369 301v182h272v-110l-477 -373q51 -23 113.5 -77t118 -128t92.5 -160t37 -172q0 -102 -42 -187t-117 -148.5t-177.5 -102.5t-220.5 -45l-23 94q74 10 138.5 39t113.5 74t77.5 104.5t28.5 130.5q0 86 -33.5 167t-80.5 146.5 t-100.5 112.5t-90.5 70h-82l-102 -510h-203z" />
<glyph unicode="&#x4c5;" horiz-adv-x="1495" d="M-57 0l53 258h237q43 51 92.5 136t101.5 213t104.5 304t101.5 408h-213l24 115h1198l-24 -115h-186l-256 -1204h221v-115q-47 -82 -112.5 -149.5t-142.5 -121t-164 -92t-175 -63.5l-41 86q137 55 242.5 140t164.5 200h-424l25 115h176l256 1204h-428q-49 -193 -92 -342.5 t-83 -264t-77 -201.5t-71.5 -153.5t-69.5 -119t-70 -99.5q-27 -35 -61.5 -69.5t-71.5 -69.5h-235z" />
<glyph unicode="&#x4c6;" horiz-adv-x="1183" d="M-51 0v197h213q51 61 95 151t81 192.5t66.5 212t52.5 212.5h-160v110h766l-205 -964h227v-109q-29 -70 -71.5 -136.5t-104 -123.5t-141.5 -100t-180 -66l-33 90q121 41 211 125t133 209h-256l207 965h-272q-29 -115 -67 -252.5t-90 -271.5t-117.5 -250.5t-147.5 -190.5 h-207z" />
<glyph unicode="&#x4c7;" horiz-adv-x="1658" d="M-43 0l23 115h186l256 1204h-186l24 115h586l-25 -115h-170l-110 -526h716l111 526h-170l25 115h585l-24 -115h-187l-270 -1276q-27 -123 -81 -210t-120.5 -142.5t-135 -84t-122.5 -36.5l-26 96q33 14 68.5 40t68.5 66t61.5 95t44.5 133l148 678h-717l-121 -563h170 l-24 -115h-584z" />
<glyph unicode="&#x4c8;" horiz-adv-x="1226" d="M96 0l203 965h-143v110h370l-104 -475h432l98 475h195l-213 -1040q-27 -127 -86.5 -212t-128 -137.5t-133 -79t-99.5 -34.5l-32 84q27 12 67.5 36.5t82.5 68.5t80 112t56 166l90 450h-430l-108 -489h-197z" />
<glyph unicode="&#x4c9;" horiz-adv-x="1658" d="M-43 0l23 115h186l256 1204h-186l24 115h586l-25 -115h-170l-110 -526h716l111 526h-170l25 115h585l-24 -115h-187l-256 -1204h222v-115q-47 -82 -113 -149.5t-142.5 -121t-163.5 -92t-175 -63.5l-41 86q137 55 242.5 140t164.5 200h-417l24 115h170l121 563h-717 l-121 -563h170l-24 -115h-584z" />
<glyph unicode="&#x4ca;" horiz-adv-x="1265" d="M96 0l203 965h-143v110h370l-104 -475h432l98 475h195l-201 -964h221v-109q-29 -70 -71.5 -136.5t-104 -123.5t-141.5 -100t-180 -66l-33 90q121 41 211 125t133 209h-248l98 489h-430l-108 -489h-197z" />
<glyph unicode="&#x4cb;" horiz-adv-x="1470" d="M195 1319l24 115h545l-25 -115h-149l-72 -332q-6 -31 -10 -60.5t-4 -56.5q0 -98 52 -155.5t175 -57.5q96 0 185.5 25t160.5 59l123 578h-164l25 115h559l-25 -115h-165l-256 -1204h165l-24 -115h-445l-51 -45l-59 -287h-142l95 447h231l111 520q-70 -35 -176.5 -63.5 t-239.5 -28.5q-166 0 -265.5 74.5t-99.5 234.5q0 29 3.5 62.5t11.5 68.5l71 336h-165z" />
<glyph unicode="&#x4cc;" horiz-adv-x="1120" d="M66 965v110h368q-47 -184 -81 -306t-34 -208q0 -45 27 -71.5t80 -26.5q37 0 79 13t83 36t77.5 54.5t63.5 68.5l100 440h193l-211 -964h164v-111h-381l113 508h-11q-96 -88 -186 -135t-207 -47q-78 0 -131 45t-53 139q0 39 5 81t16.5 95t26.5 120.5t38 158.5h-139z M215 -354q72 33 113 67v176q41 41 96.5 68t108.5 41l39 -55q-20 -14 -40 -27.5t-40 -32.5v-176q-16 -23 -46 -44t-63.5 -37.5t-68.5 -30t-64 -21.5z" />
<glyph unicode="&#x4cd;" horiz-adv-x="1994" d="M-43 0l23 115h186l256 1204h-186l24 115h465l285 -904l688 904h446l-24 -115h-187l-256 -1204h221v-115q-47 -82 -112.5 -149.5t-142 -121t-163.5 -92t-175 -63.5l-41 86q137 55 242.5 140t164.5 200h-426l25 115h186l195 913q2 4 12 43t20 82l29 115h-18l-135 -219 l-578 -742h-125l-252 742l-39 239h-20q-14 -68 -25 -121q-10 -47 -18 -89t-10 -50l-195 -913h174l-25 -115h-489z" />
<glyph unicode="&#x4ce;" horiz-adv-x="1619" d="M-45 0v197h203q37 45 73.5 132t69.5 194.5t60.5 223t46.5 218.5h-132v110h441l51 -799h8l443 799h282l-203 -964h226v-109q-29 -70 -72 -136.5t-104.5 -123.5t-141.5 -100t-180 -66l-33 90q121 41 211 125t133 209h-252l211 965h-14l-477 -854h-213l-49 854h-25 q-20 -111 -51 -248t-74 -272.5t-100 -253t-127 -191.5h-211z" />
<glyph unicode="&#x4cf;" horiz-adv-x="626" d="M78 0l303 1425h-152v111h373l-303 -1425h162v-111h-185h-198z" />
<glyph unicode="&#x4d0;" horiz-adv-x="1525" d="M-102 0l24 115h156l807 1319h217l201 -1319h151l-24 -115h-580l24 115h183l-56 360h-540l-217 -360h176l-25 -115h-497zM532 590h459l-63 473q-2 6 -2 40t-2 75q-2 45 -2 102h-9l-110 -221zM621 1802h258v-139q14 -16 50 -22.5t65 -6.5q45 0 93 6.5t91 24.5t79 51t56 86 h125q-16 -61 -51 -112.5t-90.5 -89t-132.5 -58t-179 -20.5q-190 0 -277 68.5t-87 211.5z" />
<glyph unicode="&#x4d1;" horiz-adv-x="1210" d="M94 299q0 152 43 295t125 255t202 179.5t275 67.5q57 0 109.5 -21.5t75.5 -48.5l32 49h158l-192 -964h168v-111h-363l43 240h-12q-20 -35 -57 -80t-89.5 -85t-118 -67.5t-141.5 -27.5q-117 0 -187.5 79.5t-70.5 239.5zM307 336q1 -225 144 -225q39 0 86 23.5t93 60t86 83 t66 91.5l109 557q-20 27 -60 43t-92 16q-104 0 -184 -58.5t-135 -152.5t-84 -209.5t-29 -228.5zM432 1413v119h234v-141q27 -18 53.5 -25.5t79.5 -7.5q43 0 88 11t84 32.5t68.5 54.5t44.5 76h114q-27 -135 -144.5 -211t-287.5 -76q-154 0 -231.5 50.5t-102.5 117.5z" />
<glyph unicode="&#x4d2;" horiz-adv-x="1525" d="M-102 0l24 115h156l807 1319h217l201 -1319h151l-24 -115h-580l24 115h183l-56 360h-540l-217 -360h176l-25 -115h-497zM532 590h459l-63 473q-2 6 -2 40t-2 75q-2 45 -2 102h-9l-110 -221zM596 1630q0 59 37.5 89t95.5 30q59 0 98 -29.5t39 -89.5q0 -53 -39 -81.5 t-98 -28.5q-57 0 -95 28.5t-38 81.5zM1112 1630q0 59 39 89t94 30q59 0 98 -29.5t39 -89.5q0 -53 -39 -81.5t-98 -28.5q-55 0 -94 28.5t-39 81.5z" />
<glyph unicode="&#x4d3;" horiz-adv-x="1210" d="M94 299q0 152 43 295t125 255t202 179.5t275 67.5q57 0 109.5 -21.5t75.5 -48.5l32 49h158l-192 -964h168v-111h-363l43 240h-12q-20 -35 -57 -80t-89.5 -85t-118 -67.5t-141.5 -27.5q-117 0 -187.5 79.5t-70.5 239.5zM307 336q1 -225 144 -225q39 0 86 23.5t93 60t86 83 t66 91.5l109 557q-20 27 -60 43t-92 16q-104 0 -184 -58.5t-135 -152.5t-84 -209.5t-29 -228.5zM389 1409q0 59 36 95t95 36q57 0 93 -36t36 -95q0 -55 -36 -91t-93 -36q-59 0 -95 36t-36 91zM895 1409q0 59 37 95t94 36q59 0 94 -36t35 -95q0 -55 -35 -91t-94 -36 q-57 0 -94 36t-37 91z" />
<glyph unicode="&#x4d4;" horiz-adv-x="2084" d="M-102 0l24 115h166l1055 1204h-123l24 115h1090l-72 -336h-131l39 176l-33 45h-495l-113 -531h346l37 31l19 86h131l-74 -350h-131l18 86l-24 33h-346l-119 -559h536l50 41l43 200h131l-76 -356h-1118l24 115h180l86 403h-436l-348 -403h193l-25 -115h-528zM700 633h367 l131 616h-4l-123 -190z" />
<glyph unicode="&#x4d5;" horiz-adv-x="1673" d="M63 258q0 76 40 139.5t116 109.5t183.5 71.5t242.5 25.5h57.5t59.5 -4q23 72 36 133.5t13 110.5q0 74 -35 114.5t-114 40.5q-33 0 -87.5 -9t-95.5 -32v-188h-196v219q98 49 207.5 78t238.5 29q127 0 190.5 -33t77.5 -86q72 55 163 87t200 32q55 0 104 -12.5t85 -38 t57.5 -63.5t21.5 -89q0 -154 -157.5 -243t-512.5 -113q-10 -37 -13 -71t-3 -67q0 -129 68.5 -205.5t197.5 -76.5q45 0 86 14t76 36.5t63.5 49.5t49.5 49l63 -71q-25 -43 -66.5 -82t-96 -69t-121 -47t-140.5 -17q-147 0 -241.5 60t-128.5 187h-2q-61 -113 -159.5 -180 t-232.5 -67q-61 0 -114.5 19t-93 55t-63.5 87.5t-24 116.5zM297 279q0 -90 46.5 -126t105.5 -36q49 0 94 21.5t82 55t64.5 76.5t43.5 84q0 33 3 81t7 83q-49 6 -92 6q-90 0 -156.5 -21.5t-110.5 -56t-65.5 -78.5t-21.5 -89zM975 631q215 6 333.5 71.5t118.5 182.5 q0 45 -26.5 79.5t-106.5 34.5q-96 0 -179 -81.5t-140 -286.5z" />
<glyph unicode="&#x4d6;" horiz-adv-x="1300" d="M-43 0l23 115h186l256 1204h-186l24 115h1090l-72 -336h-131l39 176l-33 45h-502l-112 -531h346l37 31l18 86h131l-74 -350h-131l19 86l-25 33h-346l-119 -559h537l49 41l43 200h131l-76 -356h-1122zM486 1802h258v-139q14 -16 50 -22.5t65 -6.5q45 0 93 6.5t91 24.5 t79 51t56 86h125q-16 -61 -51 -112.5t-90.5 -89t-132.5 -58t-179 -20.5q-190 0 -277 68.5t-87 211.5z" />
<glyph unicode="&#x4d7;" horiz-adv-x="1026" d="M90 358q0 154 45 289t127 233.5t197.5 157t257.5 58.5q55 0 104 -13.5t86 -40t57.5 -65.5t20.5 -90q0 -147 -155.5 -237.5t-510.5 -114.5q-8 -37 -12 -70t-4 -66q0 -129 66.5 -205.5t195.5 -76.5q41 0 81 12t77 31.5t66.5 44t48.5 47.5l53 -55q-23 -41 -61.5 -80t-92 -70 t-119 -49t-141.5 -18q-176 0 -281.5 99t-105.5 279zM336 631q217 6 332.5 71.5t115.5 176.5q0 23 -6 44t-21.5 38.5t-41 27.5t-66.5 10q-96 0 -176 -85t-137 -283zM346 1413v119h234v-141q27 -18 53.5 -25.5t79.5 -7.5q43 0 88 11t84 32.5t68.5 54.5t44.5 76h114 q-27 -135 -144.5 -211t-287.5 -76q-154 0 -231.5 50.5t-102.5 117.5z" />
<glyph unicode="&#x4d8;" horiz-adv-x="1609" d="M156 485q0 76 10 152t24 129h1147q6 68 6 129q0 109 -26.5 192.5t-84.5 140t-149.5 86t-222.5 29.5q-29 0 -66.5 -2t-76.5 -6t-76 -10t-63 -14l-43 -47l-50 -240h-131q20 96 37 174q6 33 13.5 64.5t12.5 56t8 39.5l3 16q88 35 211 59.5t258 24.5q199 0 329 -48 t206.5 -127t108.5 -178t32 -202q0 -186 -43 -354t-140.5 -296t-254 -203t-383.5 -75q-158 0 -270.5 43t-185.5 115t-106.5 164t-33.5 188zM385 483q0 -102 29.5 -177t82 -123t123 -70.5t154.5 -22.5q104 0 195.5 34t164 103.5t122 175t69.5 248.5h-919q-4 -16 -8.5 -38.5 t-7.5 -47t-4 -47t-1 -35.5z" />
<glyph unicode="&#x4d9;" horiz-adv-x="1087" d="M78 236q0 55 28.5 120.5t96 123t180.5 95t281 37.5h56.5t57.5 -4q4 14 5 35t1 33q0 129 -43 205.5t-159 76.5q-51 0 -98.5 -14t-87.5 -36.5t-73.5 -49.5t-56.5 -51l-59 72q29 37 72 75.5t98 69.5t120.5 51.5t139.5 20.5q174 0 267 -100.5t93 -290.5q0 -137 -44 -268.5 t-126 -233t-196.5 -162.5t-257.5 -61q-57 0 -110.5 16t-94.5 48t-65.5 80t-24.5 112zM283 223q0 -70 44.5 -108.5t112.5 -38.5q47 0 95.5 26.5t91.5 80t78.5 136t56.5 197.5q-31 4 -58.5 6t-54.5 2q-96 0 -165.5 -25.5t-113.5 -68.5t-65.5 -97t-21.5 -110z" />
<glyph unicode="&#x4da;" horiz-adv-x="1609" d="M156 485q0 76 10 152t24 129h1147q6 68 6 129q0 109 -26.5 192.5t-84.5 140t-149.5 86t-222.5 29.5q-29 0 -66.5 -2t-76.5 -6t-76 -10t-63 -14l-43 -47l-50 -240h-131q20 96 37 174q6 33 13.5 64.5t12.5 56t8 39.5l3 16q88 35 211 59.5t258 24.5q199 0 329 -48 t206.5 -127t108.5 -178t32 -202q0 -186 -43 -354t-140.5 -296t-254 -203t-383.5 -75q-158 0 -270.5 43t-185.5 115t-106.5 164t-33.5 188zM385 483q0 -102 29.5 -177t82 -123t123 -70.5t154.5 -22.5q104 0 195.5 34t164 103.5t122 175t69.5 248.5h-919q-4 -16 -8.5 -38.5 t-7.5 -47t-4 -47t-1 -35.5zM576 1630q0 59 37.5 89t95.5 30q59 0 98 -29.5t39 -89.5q0 -53 -39 -81.5t-98 -28.5q-57 0 -95 28.5t-38 81.5zM1092 1630q0 59 39 89t94 30q59 0 98 -29.5t39 -89.5q0 -53 -39 -81.5t-98 -28.5q-55 0 -94 28.5t-39 81.5z" />
<glyph unicode="&#x4db;" horiz-adv-x="1087" d="M78 236q0 55 28.5 120.5t96 123t180.5 95t281 37.5h56.5t57.5 -4q4 14 5 35t1 33q0 129 -43 205.5t-159 76.5q-51 0 -98.5 -14t-87.5 -36.5t-73.5 -49.5t-56.5 -51l-59 72q29 37 72 75.5t98 69.5t120.5 51.5t139.5 20.5q174 0 267 -100.5t93 -290.5q0 -137 -44 -268.5 t-126 -233t-196.5 -162.5t-257.5 -61q-57 0 -110.5 16t-94.5 48t-65.5 80t-24.5 112zM283 223q0 -70 44.5 -108.5t112.5 -38.5q47 0 95.5 26.5t91.5 80t78.5 136t56.5 197.5q-31 4 -58.5 6t-54.5 2q-96 0 -165.5 -25.5t-113.5 -68.5t-65.5 -97t-21.5 -110zM332 1409 q0 59 36 95t95 36q57 0 93 -36t36 -95q0 -55 -36 -91t-93 -36q-59 0 -95 36t-36 91zM838 1409q0 59 37 95t94 36q59 0 94 -36t35 -95q0 -55 -35 -91t-94 -36q-57 0 -94 36t-37 91z" />
<glyph unicode="&#x4dc;" horiz-adv-x="2123" d="M-94 0l24 115h121q184 184 328 329q61 61 120.5 121t105.5 107t75 76l29 28l-336 543h-160l25 115h495l-24 -115h-154l293 -537h160l114 537h-157l24 115h537l-25 -115h-158l-114 -537h153l502 537h-164l25 115h530l-24 -115h-174l-561 -549l413 -655h123l-24 -115h-295 l-377 680h-148l-121 -565h158l-24 -115h-537l25 115h157l121 565h-143l-613 -680h-325zM881 1630q0 59 37.5 89t95.5 30q59 0 98 -29.5t39 -89.5q0 -53 -39 -81.5t-98 -28.5q-57 0 -95 28.5t-38 81.5zM1397 1630q0 59 39 89t94 30q59 0 98 -29.5t39 -89.5q0 -53 -39 -81.5 t-98 -28.5q-55 0 -94 28.5t-39 81.5z" />
<glyph unicode="&#x4dd;" horiz-adv-x="1869" d="M-31 27l49 225h123l-32 -152q10 -2 28 -2q70 0 130.5 49.5t106.5 136.5t72.5 206.5t26.5 263.5q0 197 -113 196q-18 0 -42.5 -11t-50 -28.5t-50 -40t-41.5 -45.5l-57 62q61 98 157.5 149t182.5 51q51 0 92 -22.5t67.5 -62t41 -92t14.5 -109.5q0 -51 -5 -103.5t-16 -103.5 h207l101 481h188l-105 -481h205q61 233 190.5 363t295.5 130q35 0 84 -5t75 -21l-53 -230h-125l37 144q-6 2 -13 2h-14q-66 0 -124 -47t-101 -130t-68.5 -198t-25.5 -250q0 -117 36 -172t95 -55q37 0 88 39t82 92l66 -49q-18 -43 -51 -82t-76 -69.5t-93.5 -49t-105.5 -18.5 q-66 0 -112 23.5t-74.5 63.5t-42 95t-13.5 119q0 43 4 98t15 111h-199l-108 -498h-187l107 498h-207q-31 -113 -79 -206t-110.5 -161t-139.5 -105.5t-163 -37.5q-18 0 -42.5 2t-48 7t-45 12t-34.5 18zM686 1409q0 59 36 95t95 36q57 0 93 -36t36 -95q0 -55 -36 -91t-93 -36 q-59 0 -95 36t-36 91zM1192 1409q0 59 37 95t94 36q59 0 94 -36t35 -95q0 -55 -35 -91t-94 -36q-57 0 -94 36t-37 91z" />
<glyph unicode="&#x4de;" horiz-adv-x="1261" d="M39 102q0 2 11 56.5t26 117.5l37 168h131l-51 -247l22 -39q45 -29 112.5 -48.5t133.5 -19.5q205 0 319.5 103.5t114.5 271.5q0 109 -73.5 158t-209.5 49h-182l29 131h266q129 39 199.5 131t70.5 203q0 39 -12 76.5t-42 66.5t-80 46t-126 17q-35 0 -71.5 -3t-70.5 -9 t-61.5 -13t-42.5 -15l-34 -39l-43 -203h-131l67 313q43 23 96.5 38t108.5 25.5t111.5 15.5t105.5 5q94 0 178 -16.5t147.5 -53t100.5 -96t37 -143.5q0 -55 -20.5 -113.5t-63.5 -111t-110.5 -95.5t-164.5 -63v-8q47 -10 93.5 -30.5t83 -55.5t59.5 -85t23 -118 q0 -129 -56.5 -222t-147.5 -153.5t-208 -89.5t-240 -29q-86 0 -159.5 12.5t-131 32t-96.5 42t-55 40.5zM359 1630q0 59 37.5 89t95.5 30q59 0 98 -29.5t39 -89.5q0 -53 -39 -81.5t-98 -28.5q-57 0 -95 28.5t-38 81.5zM875 1630q0 59 39 89t94 30q59 0 98 -29.5t39 -89.5 q0 -53 -39 -81.5t-98 -28.5q-55 0 -94 28.5t-39 81.5z" />
<glyph unicode="&#x4df;" horiz-adv-x="991" d="M25 82l57 211h131l-39 -148q16 -23 63.5 -39t114.5 -16q55 0 109.5 15.5t97.5 45t69.5 73.5t26.5 102q0 88 -46 122.5t-130 45.5h-145v110h119q61 18 105 47t74 64t44 71.5t14 69.5q0 66 -44 97.5t-154 31.5q-43 0 -85 -13.5t-81 -29.5l-47 -154h-132l54 216 q63 41 144 66.5t216 25.5q74 0 136.5 -12.5t108.5 -38t71.5 -63.5t25.5 -89q0 -203 -303 -307q70 0 121 -19.5t84 -50.5t48 -69.5t15 -77.5q0 -80 -34.5 -151t-101 -124t-160 -83.5t-210.5 -30.5q-94 0 -188 25.5t-149 76.5zM219 1409q0 59 36 95t95 36q57 0 93 -36t36 -95 q0 -55 -36 -91t-93 -36q-59 0 -95 36t-36 91zM725 1409q0 59 37 95t94 36q59 0 94 -36t35 -95q0 -55 -35 -91t-94 -36q-57 0 -94 36t-37 91z" />
<glyph unicode="&#x4e0;" d="M25 55q0 4 10 57.5t24 116.5l37 168h131l-51 -241l33 -39q12 -6 38.5 -11.5t60.5 -8.5t70 -5t64 -2q119 0 202 35t136.5 90t78 123t24.5 133q0 63 -22.5 104t-62.5 65t-97.5 33t-125.5 9h-184q0 4 27 131h162l381 406l92 67l2 8l-133 -14h-463l-29 -35l-37 -178h-131 l78 367h940l-14 -66l-447 -479l-131 -94q123 0 206 -28t133 -72t71.5 -100t21.5 -114q0 -233 -180 -369.5t-518 -136.5q-127 0 -226.5 22.5t-170.5 57.5z" />
<glyph unicode="&#x4e1;" horiz-adv-x="993" d="M-55 -86h131v-176q16 -14 67.5 -25.5t114.5 -11.5q70 0 134.5 27.5t114.5 76t79.5 113t29.5 137.5q0 57 -14 107.5t-48 87.5t-87 57.5t-133 20.5h-103v106h113l428 498h-489l-66 -215h-111l48 358h823v-110l-494 -531q92 -10 159 -42t110 -80t63.5 -107.5t20.5 -126.5 q0 -121 -53.5 -212t-138.5 -152.5t-192.5 -92.5t-215.5 -31q-98 0 -174 24t-117 58v242z" />
<glyph unicode="&#x4e2;" horiz-adv-x="1685" d="M-43 0l23 115h186l256 1204h-186l24 115h588l-25 -115h-172l-186 -879l-57 -153l137 166l854 821l8 45h-186l24 115h590l-25 -115h-186l-256 -1204h186l-24 -115h-590l25 115h174l186 876l55 154l-127 -158l-864 -831l-8 -41h186l-24 -115h-586zM699 1612l24 131h696 l-24 -131h-696z" />
<glyph unicode="&#x4e3;" d="M119 176q0 29 5 75t17 105l129 609h-141v110h369l-142 -612q-12 -53 -24.5 -113.5t-12.5 -118.5q0 -61 27 -90.5t70 -29.5q70 0 132 32.5t112.5 76.5t84 91t50.5 78l137 686h194l-186 -964h166v-111h-377l43 242h-8q-31 -43 -76 -89.5t-101.5 -84t-123 -63t-139.5 -25.5 q-94 0 -149.5 50t-55.5 146zM452 1368l25 113h590l-25 -113h-590z" />
<glyph unicode="&#x4e4;" horiz-adv-x="1685" d="M-43 0l23 115h186l256 1204h-186l24 115h588l-25 -115h-172l-186 -879l-57 -153l137 166l854 821l8 45h-186l24 115h590l-25 -115h-186l-256 -1204h186l-24 -115h-590l25 115h174l186 876l55 154l-127 -158l-864 -831l-8 -41h186l-24 -115h-586zM672 1630q0 59 37.5 89 t95.5 30q59 0 98 -29.5t39 -89.5q0 -53 -39 -81.5t-98 -28.5q-57 0 -95 28.5t-38 81.5zM1188 1630q0 59 39 89t94 30q59 0 98 -29.5t39 -89.5q0 -53 -39 -81.5t-98 -28.5q-55 0 -94 28.5t-39 81.5z" />
<glyph unicode="&#x4e5;" d="M119 176q0 29 5 75t17 105l129 609h-141v110h369l-142 -612q-12 -53 -24.5 -113.5t-12.5 -118.5q0 -61 27 -90.5t70 -29.5q70 0 132 32.5t112.5 76.5t84 91t50.5 78l137 686h194l-186 -964h166v-111h-377l43 242h-8q-31 -43 -76 -89.5t-101.5 -84t-123 -63t-139.5 -25.5 q-94 0 -149.5 50t-55.5 146zM360 1409q0 59 36 95t95 36q57 0 93 -36t36 -95q0 -55 -36 -91t-93 -36q-59 0 -95 36t-36 91zM866 1409q0 59 37 95t94 36q59 0 94 -36t35 -95q0 -55 -35 -91t-94 -36q-57 0 -94 36t-37 91z" />
<glyph unicode="&#x4e6;" horiz-adv-x="1679" d="M156 580q0 166 52 324.5t159.5 281.5t271.5 197.5t385 74.5q137 0 252 -40t195.5 -115.5t125.5 -182t45 -237.5q0 -164 -45 -327t-145 -292t-258 -209t-381 -80q-121 0 -237.5 35t-211 109t-151.5 187.5t-57 273.5zM412 578q0 -131 35.5 -223.5t94 -151t134.5 -86 t153 -27.5q160 0 266.5 73t171 187.5t92 254.5t27.5 276q0 227 -108.5 344.5t-304.5 117.5q-145 0 -252 -67.5t-175.5 -176t-101 -245.5t-32.5 -276zM639 1630q0 59 37.5 89t95.5 30q59 0 98 -29.5t39 -89.5q0 -53 -39 -81.5t-98 -28.5q-57 0 -95 28.5t-38 81.5zM1155 1630 q0 59 39 89t94 30q59 0 98 -29.5t39 -89.5q0 -53 -39 -81.5t-98 -28.5q-55 0 -94 28.5t-39 81.5z" />
<glyph unicode="&#x4e7;" horiz-adv-x="1155" d="M90 399q0 115 38 239t114.5 224.5t192.5 167t272 66.5q178 0 268 -104.5t90 -305.5q0 -141 -43 -268t-121 -223.5t-186.5 -155.5t-241.5 -59q-174 0 -278.5 107t-104.5 312zM303 350q0 -119 56.5 -196.5t154.5 -77.5q78 0 140.5 57t106.5 146.5t67.5 204t23.5 235.5 q0 127 -46 203.5t-144 76.5q-72 0 -127.5 -30.5t-94.5 -82.5t-65.5 -119t-43 -139.5t-22.5 -143t-6 -134.5zM354 1409q0 59 36 95t95 36q57 0 93 -36t36 -95q0 -55 -36 -91t-93 -36q-59 0 -95 36t-36 91zM860 1409q0 59 37 95t94 36q59 0 94 -36t35 -95q0 -55 -35 -91 t-94 -36q-57 0 -94 36t-37 91z" />
<glyph unicode="&#x4e8;" horiz-adv-x="1679" d="M156 580q0 166 52 324.5t159.5 281.5t271.5 197.5t385 74.5q137 0 252 -40t195.5 -115.5t125.5 -182t45 -237.5q0 -164 -45 -327t-145 -292t-258 -209t-381 -80q-121 0 -237.5 35t-211 109t-151.5 187.5t-57 273.5zM412 578q0 -131 35.5 -223.5t94 -151t134.5 -86 t153 -27.5q129 0 222.5 48t159 129t103.5 185.5t56 215.5h-956q-2 -23 -2 -45v-45zM432 793h952q2 23 2 44v44q0 227 -108 344.5t-305 117.5q-119 0 -210 -45t-157.5 -119.5t-109.5 -175t-64 -210.5z" />
<glyph unicode="&#x4e9;" horiz-adv-x="1155" d="M90 399q0 115 38 238t114.5 225.5t192.5 168t272 65.5q358 0 358 -404q0 -141 -43 -270t-121 -227.5t-186.5 -156.5t-241.5 -58q-174 0 -278.5 104t-104.5 315zM303 350q0 -125 56.5 -199.5t154.5 -74.5q57 0 107.5 31.5t90.5 87t69.5 129t45.5 159.5h-520 q-4 -35 -4 -69.5v-63.5zM326 594h520q6 63 6 131q0 127 -46 200.5t-144 73.5q-78 0 -135.5 -33.5t-97.5 -90t-65.5 -130t-37.5 -151.5z" />
<glyph unicode="&#x4ea;" horiz-adv-x="1679" d="M156 580q0 166 52 324.5t159.5 281.5t271.5 197.5t385 74.5q137 0 252 -40t195.5 -115.5t125.5 -182t45 -237.5q0 -164 -45 -327t-145 -292t-258 -209t-381 -80q-121 0 -237.5 35t-211 109t-151.5 187.5t-57 273.5zM412 578q0 -131 35.5 -223.5t94 -151t134.5 -86 t153 -27.5q129 0 222.5 48t159 129t103.5 185.5t56 215.5h-956q-2 -23 -2 -45v-45zM432 793h952q2 23 2 44v44q0 227 -108 344.5t-305 117.5q-119 0 -210 -45t-157.5 -119.5t-109.5 -175t-64 -210.5zM635 1630q0 59 37.5 89t95.5 30q59 0 98 -29.5t39 -89.5q0 -53 -39 -81.5 t-98 -28.5q-57 0 -95 28.5t-38 81.5zM1151 1630q0 59 39 89t94 30q59 0 98 -29.5t39 -89.5q0 -53 -39 -81.5t-98 -28.5q-55 0 -94 28.5t-39 81.5z" />
<glyph unicode="&#x4eb;" horiz-adv-x="1155" d="M90 399q0 115 38 238t114.5 225.5t192.5 168t272 65.5q358 0 358 -404q0 -141 -43 -270t-121 -227.5t-186.5 -156.5t-241.5 -58q-174 0 -278.5 104t-104.5 315zM303 350q0 -125 56.5 -199.5t154.5 -74.5q57 0 107.5 31.5t90.5 87t69.5 129t45.5 159.5h-520 q-4 -35 -4 -69.5v-63.5zM326 594h520q6 63 6 131q0 127 -46 200.5t-144 73.5q-78 0 -135.5 -33.5t-97.5 -90t-65.5 -130t-37.5 -151.5zM338 1409q0 59 36 95t95 36q57 0 93 -36t36 -95q0 -55 -36 -91t-93 -36q-59 0 -95 36t-36 91zM844 1409q0 59 37 95t94 36q59 0 94 -36 t35 -95q0 -55 -35 -91t-94 -36q-57 0 -94 36t-37 91z" />
<glyph unicode="&#x4ec;" horiz-adv-x="1392" d="M63 90l76 354h131l-51 -231l21 -43q29 -23 89 -43.5t146 -20.5q100 0 199.5 26t184.5 90.5t148.5 174t88.5 275.5h-631l29 131h620q2 23 3 45t1 45q0 213 -100 323.5t-334 110.5q-68 0 -122 -12t-81 -27l-37 -41l-41 -188h-131l68 315q84 47 192.5 65.5t206.5 18.5 q168 0 285 -42t190.5 -114.5t107.5 -171t34 -208.5q0 -207 -59.5 -380t-171 -299t-270.5 -197t-357 -71q-176 0 -285 37t-150 78zM424 1630q0 59 37.5 89t95.5 30q59 0 98 -29.5t39 -89.5q0 -53 -39 -81.5t-98 -28.5q-57 0 -95 28.5t-38 81.5zM940 1630q0 59 39 89t94 30 q59 0 98 -29.5t39 -89.5q0 -53 -39 -81.5t-98 -28.5q-55 0 -94 28.5t-39 81.5z" />
<glyph unicode="&#x4ed;" horiz-adv-x="1050" d="M10 82l60 211h131l-41 -148q16 -23 64 -39t116 -16q63 0 125.5 22.5t116 69.5t93.5 122t58 179h-416v131h433q2 10 2 21.5v21.5q0 55 -13.5 113.5t-44 106t-80 78t-118.5 30.5q-55 0 -100.5 -10t-84.5 -33l-41 -154h-131l49 216q63 41 144.5 66.5t216.5 25.5 q199 0 311.5 -101.5t112.5 -294.5q0 -158 -49.5 -289.5t-133 -227t-197.5 -149.5t-245 -54q-94 0 -188 25.5t-150 76.5zM223 1409q0 59 36 95t95 36q57 0 93 -36t36 -95q0 -55 -36 -91t-93 -36q-59 0 -95 36t-36 91zM729 1409q0 59 37 95t94 36q59 0 94 -36t35 -95 q0 -55 -35 -91t-94 -36q-57 0 -94 36t-37 91z" />
<glyph unicode="&#x4ee;" horiz-adv-x="1499" d="M184 1319l25 115h608l-24 -115h-185l248 -633l39 -141h8l72 135l377 639h-191l25 115h522l-25 -115h-165l-555 -870q-43 -66 -100.5 -139.5t-116 -137t-109.5 -111t-82 -61.5h-199l54 252h239q14 12 31.5 29.5t34 36t30 36t19.5 29.5l-406 936h-174zM678 1612l24 131h696 l-24 -131h-696z" />
<glyph unicode="&#x4ef;" horiz-adv-x="1040" d="M72 965v110h305l160 -852v-112h16l55 106q35 76 72 162t72.5 172t66.5 169t51 157l-57 198h252v-110q-33 -90 -81 -210t-105.5 -250t-123 -265.5t-132 -257t-133 -224t-125.5 -168.5h-236v197h227q29 35 58.5 80t58.5 133h-100l-176 965h-125zM370 1368l25 113h590 l-25 -113h-590z" />
<glyph unicode="&#x4f0;" horiz-adv-x="1499" d="M184 1319l25 115h608l-24 -115h-185l248 -633l39 -141h8l72 135l377 639h-191l25 115h522l-25 -115h-165l-555 -870q-43 -66 -100.5 -139.5t-116 -137t-109.5 -111t-82 -61.5h-199l54 252h239q14 12 31.5 29.5t34 36t30 36t19.5 29.5l-406 936h-174zM592 1630 q0 59 37.5 89t95.5 30q59 0 98 -29.5t39 -89.5q0 -53 -39 -81.5t-98 -28.5q-57 0 -95 28.5t-38 81.5zM1108 1630q0 59 39 89t94 30q59 0 98 -29.5t39 -89.5q0 -53 -39 -81.5t-98 -28.5q-55 0 -94 28.5t-39 81.5z" />
<glyph unicode="&#x4f1;" horiz-adv-x="1040" d="M72 965v110h305l160 -852v-112h16l55 106q35 76 72 162t72.5 172t66.5 169t51 157l-57 198h252v-110q-33 -90 -81 -210t-105.5 -250t-123 -265.5t-132 -257t-133 -224t-125.5 -168.5h-236v197h227q29 35 58.5 80t58.5 133h-100l-176 965h-125zM270 1409q0 59 36 95t95 36 q57 0 93 -36t36 -95q0 -55 -36 -91t-93 -36q-59 0 -95 36t-36 91zM776 1409q0 59 37 95t94 36q59 0 94 -36t35 -95q0 -55 -35 -91t-94 -36q-57 0 -94 36t-37 91z" />
<glyph unicode="&#x4f2;" horiz-adv-x="1499" d="M184 1319l25 115h608l-24 -115h-185l248 -633l39 -141h8l72 135l377 639h-191l25 115h522l-25 -115h-165l-555 -870q-43 -66 -100.5 -139.5t-116 -137t-109.5 -111t-82 -61.5h-199l54 252h239q14 12 31.5 29.5t34 36t30 36t19.5 29.5l-406 936h-174zM723 1589l201 271 l207 -50v-49l-363 -211zM1022 1585l305 275l218 -45v-52l-471 -217z" />
<glyph unicode="&#x4f3;" horiz-adv-x="1040" d="M72 965v110h305l160 -852v-112h16l55 106q35 76 72 162t72.5 172t66.5 169t51 157l-57 198h252v-110q-33 -90 -81 -210t-105.5 -250t-123 -265.5t-132 -257t-133 -224t-125.5 -168.5h-236v197h227q29 35 58.5 80t58.5 133h-100l-176 965h-125zM424 1319l174 332l199 -45 v-54l-318 -266zM694 1323l306 328l200 -60v-51l-458 -254z" />
<glyph unicode="&#x4f4;" horiz-adv-x="1470" d="M195 1319l24 115h545l-25 -115h-149l-72 -332q-6 -31 -10 -60.5t-4 -56.5q0 -98 52 -155.5t175 -57.5q96 0 185.5 25t160.5 59l123 578h-164l25 115h559l-25 -115h-165l-256 -1204h165l-24 -115h-608l24 115h213l111 520q-70 -35 -176.5 -63.5t-239.5 -28.5 q-166 0 -265.5 74.5t-99.5 234.5q0 29 3.5 62.5t11.5 68.5l71 336h-165zM537 1630q0 59 37.5 89t95.5 30q59 0 98 -29.5t39 -89.5q0 -53 -39 -81.5t-98 -28.5q-57 0 -95 28.5t-38 81.5zM1053 1630q0 59 39 89t94 30q59 0 98 -29.5t39 -89.5q0 -53 -39 -81.5t-98 -28.5 q-55 0 -94 28.5t-39 81.5z" />
<glyph unicode="&#x4f5;" horiz-adv-x="1120" d="M66 965v110h368q-47 -184 -81 -306t-34 -208q0 -45 27 -71.5t80 -26.5q37 0 79 13t83 36t77.5 54.5t63.5 68.5l100 440h193l-211 -964h164v-111h-381l113 508h-11q-96 -88 -186 -135t-207 -47q-78 0 -131 45t-53 139q0 39 5 81t16.5 95t26.5 120.5t38 158.5h-139z M276 1409q0 59 36 95t95 36q57 0 93 -36t36 -95q0 -55 -36 -91t-93 -36q-59 0 -95 36t-36 91zM782 1409q0 59 37 95t94 36q59 0 94 -36t35 -95q0 -55 -35 -91t-94 -36q-57 0 -94 36t-37 91z" />
<glyph unicode="&#x4f6;" horiz-adv-x="1120" d="M-43 0l23 115h186l256 1204h-186l24 115h1051l-90 -424h-148l57 264l-32 45h-447l-256 -1204h228l-97 -447h-141l61 287l-30 45h-459z" />
<glyph unicode="&#x4f7;" horiz-adv-x="882" d="M35 205q0 74 42 134t106.5 112.5t138 99.5t138 95t106.5 98.5t42 107.5q0 43 -21.5 78t-74.5 35q-45 0 -88 -17.5t-82 -42t-70.5 -51.5t-52.5 -47l-57 70q18 33 59 71.5t96.5 71.5t120 54.5t131.5 21.5q66 0 115 -16.5t81 -44t48 -63.5t16 -75q0 -80 -42 -143.5 t-106.5 -115.5t-138 -98t-138 -92.5t-106.5 -95.5t-42 -106q0 -55 33 -95t98 -40q55 0 104.5 12t90.5 29.5t72.5 37t54.5 35.5l51 -94q-39 -29 -62.5 -67.5t-38.5 -79.5v-291q-100 -92 -264 -125l-37 78q39 16 70 32.5t66 42.5v197l137 125l-2 6q-66 -31 -146 -50t-186 -19 q-53 0 -100 16t-83 46t-57.5 72t-21.5 91z" />
<glyph unicode="&#x4f8;" horiz-adv-x="1929" d="M-43 0l20 115h187l256 1204h-187l25 115h621l-25 -115h-205l-98 -465q43 8 101.5 11t105.5 3q231 0 358 -86t127 -262q0 -123 -50 -220t-142.5 -164.5t-223.5 -104.5t-292 -37q-10 0 -43 1t-75 2t-87 2t-80 1h-293zM395 119q12 -2 33 -4t44.5 -3t45 -2t33.5 -1 q78 0 155.5 20.5t140 67.5t101.5 122.5t39 186.5q0 51 -13 97t-47 79t-93.5 52.5t-151.5 19.5q-55 0 -90 -4.5t-66 -8.5zM791 1630q0 59 37.5 89t95.5 30q59 0 98 -29.5t39 -89.5q0 -53 -39 -81.5t-98 -28.5q-57 0 -95 28.5t-38 81.5zM1182 0l22 115h178l256 1204h-178 l25 115h594l-25 -115h-186l-256 -1204h186l-22 -115h-594zM1307 1630q0 59 39 89t94 30q59 0 98 -29.5t39 -89.5q0 -53 -39 -81.5t-98 -28.5q-55 0 -94 28.5t-39 81.5z" />
<glyph unicode="&#x4f9;" horiz-adv-x="1521" d="M117 213q0 70 20.5 161t52 190.5t68.5 202.5t70 198h-142v110h394q-29 -68 -52.5 -125t-46 -113.5t-46 -119t-48.5 -139.5h10q53 51 126 89t182 38q35 0 71.5 -11.5t67 -37t50 -65.5t19.5 -97q0 -96 -43 -188.5t-117.5 -164t-175 -116.5t-212.5 -45q-51 0 -96.5 13 t-79 41.5t-53 73t-19.5 105.5zM317 225q0 -74 27 -111.5t94 -37.5q61 0 111.5 32.5t87.5 84t56.5 116t19.5 127.5q0 37 -13.5 61.5t-34 40t-44 22.5t-41.5 7q-78 0 -128 -28.5t-85 -69.5q-20 -59 -35 -122.5t-15 -121.5zM524 1409q0 59 36 95t95 36q57 0 93 -36t36 -95 q0 -55 -36 -91t-93 -36q-59 0 -95 36t-36 91zM977 0l244 1075h200l-219 -964h170v-111h-395zM1030 1409q0 59 37 95t94 36q59 0 94 -36t35 -95q0 -55 -35 -91t-94 -36q-57 0 -94 36t-37 91z" />
<glyph unicode="&#x4fc;" horiz-adv-x="1527" d="M-88 0l22 115h172l578 606l-301 598h-184l24 115h606l-24 -115h-164l221 -457l402 457h-181l25 115h524l-24 -115h-168l-518 -551q106 -182 172.5 -303t105.5 -208t53.5 -152.5t14.5 -135.5q0 -78 -34 -149.5t-99.5 -128t-165 -90t-228.5 -33.5l-8 102 q152 37 224.5 107.5t72.5 185.5q0 45 -8 91t-37 117t-87 177.5t-157 272.5l-446 -506h158l-23 -115h-518z" />
<glyph unicode="&#x4fd;" horiz-adv-x="1028" d="M-10 0v111l432 434l-156 420h-139v110h319l136 -424l219 238l-17 186h238v-110l-412 -410q23 -53 57.5 -136t68.5 -173t57.5 -179.5t23.5 -156.5q0 -82 -37 -142.5t-95 -101.5t-128 -62.5t-135 -27.5l-25 84q98 27 154.5 82t56.5 137q0 61 -14 134t-38 149t-51.5 151.5 t-51.5 143.5l-232 -273l33 -184h-264z" />
<glyph unicode="&#x2000;" horiz-adv-x="936" />
<glyph unicode="&#x2001;" horiz-adv-x="1872" />
<glyph unicode="&#x2002;" horiz-adv-x="936" />
<glyph unicode="&#x2003;" horiz-adv-x="1872" />
<glyph unicode="&#x2004;" horiz-adv-x="624" />
<glyph unicode="&#x2005;" horiz-adv-x="468" />
<glyph unicode="&#x2006;" horiz-adv-x="312" />
<glyph unicode="&#x2007;" horiz-adv-x="312" />
<glyph unicode="&#x2008;" horiz-adv-x="234" />
<glyph unicode="&#x2009;" horiz-adv-x="374" />
<glyph unicode="&#x200a;" horiz-adv-x="104" />
<glyph unicode="&#x2010;" horiz-adv-x="972" d="M170 512l27 131h647l-27 -131h-647z" />
<glyph unicode="&#x2011;" horiz-adv-x="972" d="M170 512l27 131h647l-27 -131h-647z" />
<glyph unicode="&#x2012;" horiz-adv-x="972" d="M170 512l27 131h647l-27 -131h-647z" />
<glyph unicode="&#x2013;" horiz-adv-x="1439" d="M180 512l27 131h1106l-27 -131h-1106z" />
<glyph unicode="&#x2014;" horiz-adv-x="2035" d="M193 512l26 131h1704l-27 -131h-1703z" />
<glyph unicode="&#x2018;" horiz-adv-x="651" d="M348 1266q0 84 33 158.5t86 133t120.5 98.5t139.5 56l25 -59q-47 -12 -87 -39t-72 -60.5t-52.5 -72.5t-24.5 -76h117q16 -31 16 -72t-17.5 -81t-45.5 -72h-228q-10 47 -10 86z" />
<glyph unicode="&#x2019;" horiz-adv-x="651" d="M243 926q45 12 86 39t73 60.5t51.5 72.5t25.5 76h-117q-18 33 -18 72q0 41 18.5 81t46.5 72h228q10 -47 10 -86q0 -84 -33 -158.5t-87 -133t-121.5 -99.5t-137.5 -55z" />
<glyph unicode="&#x201a;" horiz-adv-x="651" d="M14 -248q45 12 86 39t73 60.5t51.5 72.5t25.5 76h-117q-18 33 -18 72q0 41 18.5 81t46.5 72h228q10 -47 10 -86q0 -84 -33 -158.5t-87 -133t-121.5 -99.5t-137.5 -55z" />
<glyph unicode="&#x201c;" horiz-adv-x="1075" d="M348 1266q0 84 33 158.5t86 133t120.5 98.5t139.5 56l25 -59q-47 -12 -87 -39t-72 -60.5t-52.5 -72.5t-24.5 -76h117q16 -31 16 -72t-17.5 -81t-45.5 -72h-228q-10 47 -10 86zM770 1266q0 84 33 158.5t86 133t120.5 98.5t139.5 56l25 -59q-47 -12 -87 -39t-72 -60.5 t-52.5 -72.5t-24.5 -76h117q16 -31 16 -72t-17.5 -81t-45.5 -72h-228q-10 47 -10 86z" />
<glyph unicode="&#x201d;" horiz-adv-x="1075" d="M243 926q45 12 86 39t73 60.5t51.5 72.5t25.5 76h-117q-18 33 -18 72q0 41 18.5 81t46.5 72h228q10 -47 10 -86q0 -84 -33 -158.5t-87 -133t-121.5 -99.5t-137.5 -55zM667 926q45 12 86 39t73 60.5t51.5 72.5t25.5 76h-117q-18 33 -18 72q0 41 18.5 81t46.5 72h228 q10 -47 10 -86q0 -84 -33 -158.5t-87 -133t-121.5 -99.5t-137.5 -55z" />
<glyph unicode="&#x201e;" horiz-adv-x="1075" d="M14 -248q45 12 86 39t73 60.5t51.5 72.5t25.5 76h-117q-18 33 -18 72q0 41 18.5 81t46.5 72h228q10 -47 10 -86q0 -84 -33 -158.5t-87 -133t-121.5 -99.5t-137.5 -55zM438 -248q45 12 86 39t73 60.5t51.5 72.5t25.5 76h-117q-18 33 -18 72q0 41 18.5 81t46.5 72h228 q10 -47 10 -86q0 -84 -33 -158.5t-87 -133t-121.5 -99.5t-137.5 -55z" />
<glyph unicode="&#x2022;" horiz-adv-x="1052" d="M201 637q0 63 25.5 117.5t69.5 92.5t103.5 59.5t126.5 21.5q68 0 127.5 -19.5t102.5 -57.5t68.5 -92t25.5 -122t-25.5 -122t-68.5 -91t-102.5 -56.5t-127.5 -19.5t-127 19.5t-103 56.5t-69.5 91t-25.5 122z" />
<glyph unicode="&#x2026;" horiz-adv-x="2041" d="M78 119q0 63 43 100t115 37t116.5 -37t44.5 -100q0 -61 -45 -98t-116 -37q-72 0 -115 37t-43 98zM776 119q0 63 43 100t115 37t117 -37t45 -100q0 -61 -45 -98t-117 -37t-115 37t-43 98zM1475 119q0 63 43 100t114 37q72 0 117 -37t45 -100q0 -61 -45 -98t-117 -37 t-114.5 37t-42.5 98z" />
<glyph unicode="&#x202f;" horiz-adv-x="374" />
<glyph unicode="&#x2039;" horiz-adv-x="626" d="M70 530l489 422l47 -41l-317 -383l172 -370l-62 -41z" />
<glyph unicode="&#x203a;" horiz-adv-x="626" d="M55 160l336 389l-162 364l68 39l311 -420l-502 -415z" />
<glyph unicode="&#x205f;" horiz-adv-x="468" />
<glyph unicode="&#x20ac;" d="M-86 526l57 117h150q4 35 9 71t11 70h-174l60 117h147q43 125 114.5 228.5t172 176t226.5 112.5t276 40t245 -21.5t166 -56.5l-76 -350h-131l47 215l-20 41q-23 10 -78 25.5t-162 15.5q-211 0 -356 -112.5t-213 -313.5h717l-60 -117h-688q-8 -35 -12 -69.5t-8 -71.5h635 l-60 -117h-579q0 -86 23.5 -162.5t75.5 -134t134 -90.5t199 -33q74 0 134 11.5t89 29.5l37 39l39 191h131l-68 -322q-35 -18 -83 -32.5t-101 -25.5t-108.5 -16.5t-106.5 -5.5q-201 0 -320.5 51.5t-183 132.5t-84 178t-20.5 189h-203z" />
<glyph unicode="&#x2122;" horiz-adv-x="2295" d="M102 1157v277h795v-277h-102v199h-195v-604h115v-86h-436v86h120v604h-194v-199h-103zM987 666v86h113v579h-113v103h397l193 -353h6l207 353h373v-103h-113v-579h113v-86h-406v86h105v585h-13l-268 -446h-84l-264 446h-14v-585h102v-86h-334z" />
<glyph unicode="&#xe000;" horiz-adv-x="1075" d="M0 0v1075h1075v-1075h-1075z" />
</font>
</defs>
</svg>
